<?xml version="1.0" standalone="no"?>
<!DOCTYPE svg PUBLIC "-//W3C//DTD SVG 1.1//EN" "http://www.w3.org/Graphics/SVG/1.1/DTD/svg11.dtd" >
<svg xmlns="http://www.w3.org/2000/svg" width="100%" height="100%">
<metadata>
Created by FontXChange 20110222 at Wed Apr  4 12:41:45 2012
 By Richard Rutter
Copyright (c) 2011 by Fontsmith Ltd. All rights reserved.
</metadata>
<defs>
<font id="" horiz-adv-x="570" >
  <font-face 
    font-family=""
    font-weight="400"
    font-style="italic"
    font-stretch="normal"
    units-per-em="1000"
    panose-1="2 0 5 6 4 0 0 9 0 4"
    ascent="750"
    descent="-250"
    x-height="528"
    cap-height="720"
    bbox="-159 -293.6 1198 1052"
    underline-thickness="50"
    underline-position="-50"
    slope="-8"
    unicode-range="U+0020-FB02"
  />
<missing-glyph horiz-adv-x="694" 
d="M90 720h514v-720h-514v720zM522 669h-350l176 -263zM553 98v524l-175 -262zM522 52l-174 262l-176 -262h350zM142 98l174 262l-174 262v-524z" />
    <glyph glyph-name="uniFB01" unicode="fi" horiz-adv-x="559" 
d="M140 528l2 17q13 111 69 168t160 57q39 0 77.5 -8.5t74.5 -29.5q9 -5 -3 -32l-4 -8q-16 -32 -27 -27q-35 17 -64 24t-64 7t-58 -10.5t-37.5 -29.5t-22.5 -46t-12 -59l-3 -23h114q5 0 5.5 -5.5t-1.5 -25.5l-1 -8q-3 -20 -5.5 -25.5t-7.5 -5.5h-114l-96 -679q0 -3 -1 -5
t-5 -3.5t-12 -2.5t-23 -1h-6q-29 0 -35.5 3t-5.5 9l96 679h-72q-5 0 -5.5 6t1.5 25l1 8q2 20 5 25.5t8 5.5h72zM488 528q29 0 34 -3.5t4 -8.5l-71 -504q0 -3 -1 -5t-5 -3.5t-12 -2.5t-23 -1h-6q-30 0 -36.5 3t-5.5 9l71 504q1 6 8 9t37 3h6z" />
    <glyph glyph-name="uniFB02" unicode="fl" horiz-adv-x="577" 
d="M140 528l3 21q14 109 72.5 165t164.5 56q32 0 69.5 -7t72.5 -22q14 -7 16.5 -16.5t2.5 -17.5q-1 -39 -8.5 -104t-19.5 -152l-47 -332q-1 -7 -1.5 -13t-0.5 -11q0 -26 32 -26h10q7 0 4 -26l-1 -7q-4 -27 -12 -29q-11 -4 -23.5 -6t-23.5 -2q-35 0 -55 17t-20 54q0 27 6 68
l47 335q8 58 14.5 112t9.5 96q-38 15 -83 15q-35 0 -59.5 -11t-40.5 -30.5t-25 -46t-13 -58.5l-3 -22h114q5 0 5.5 -6t-1.5 -26l-1 -8q-3 -20 -5.5 -25t-7.5 -5h-114l-96 -679q0 -3 -1 -5t-5 -3.5t-12 -2.5t-23 -1h-6q-29 0 -35.5 3t-5.5 9l96 679h-72q-5 0 -6 5t2 25l1 8
q3 20 5.5 26t7.5 6h72z" />
    <glyph glyph-name=".notdef" horiz-adv-x="694" 
d="M90 720h514v-720h-514v720zM522 669h-350l176 -263zM553 98v524l-175 -262zM522 52l-174 262l-176 -262h350zM142 98l174 262l-174 262v-524z" />
    <glyph glyph-name=".null" horiz-adv-x="0" 
 />
    <glyph glyph-name="nonmarkingreturn" horiz-adv-x="245" 
 />
    <glyph glyph-name="space" unicode=" " horiz-adv-x="245" 
 />
    <glyph glyph-name="exclam" unicode="!" horiz-adv-x="297" 
d="M217 720q27 0 37.5 -3t8.5 -10l-86 -500q-1 -9 -33 -9h-11q-32 0 -31 9l52 500q1 13 49 13h14zM124 117q26 0 42 -16.5t16 -40.5q0 -25 -17.5 -47.5t-49.5 -22.5q-26 0 -42 16.5t-16 40.5q0 26 18 48t49 22z" />
    <glyph glyph-name="quotedbl" unicode="&#x22;" horiz-adv-x="416" 
d="M185 720q42 0 39 -12l-46 -257q-1 -10 -34 -10h-11q-18 0 -25 2.5t-6 7.5l28 257q1 12 39 12h16zM370 720q42 0 39 -12l-46 -257q-1 -10 -34 -10h-11q-18 0 -25 2.5t-6 7.5l28 257q1 12 39 12h16z" />
    <glyph glyph-name="numbersign" unicode="#" horiz-adv-x="576" 
d="M306 720q32 0 28 -10l-62 -187h145l64 187q2 6 9 8t26 2h9q33 0 29 -10l-61 -187h90q10 0 4 -29l-2 -10q-3 -16 -6 -22t-8 -6h-101l-64 -188h94q10 0 4 -29l-2 -10q-3 -16 -6 -22t-8 -6h-105l-64 -191q-2 -6 -9 -8t-26 -2h-11q-34 0 -30 10l64 191h-144l-64 -191
q-2 -6 -9 -8t-25 -2h-11q-34 0 -30 10l65 191h-76q-5 0 -7 6.5t2 23.5l2 10q3 15 6 21t8 6h87l65 188h-82q-5 0 -6.5 6.5t1.5 23.5l2 10q3 15 6 21t8 6h93l64 187q2 6 9 8t25 2h10zM186 268h144l65 188h-145z" />
    <glyph glyph-name="dollar" unicode="$" 
d="M382 789q18 0 25 -2.5t6 -8.5l-11 -78q26 -4 50.5 -13.5t47.5 -25.5q8 -5 -6 -30l-7 -12q-10 -17 -16 -20.5t-11 0.5q-20 14 -47.5 21.5t-57.5 7.5q-24 0 -46.5 -6.5t-40 -20t-27.5 -33t-10 -45.5q0 -31 17.5 -52.5t43.5 -39t56.5 -34t56.5 -38.5t43.5 -52.5t17.5 -74.5
q0 -45 -14 -82t-40 -64t-62.5 -43.5t-80.5 -20.5l-13 -87q-1 -11 -33 -11h-12q-19 0 -26 2.5t-6 8.5l13 87q-42 5 -78.5 16.5t-62.5 34.5q-5 5 -3 13.5t13 25.5l6 9q13 20 21 21t12 -1q32 -20 70 -31.5t70 -11.5q24 0 48 7.5t43 21.5t31 35.5t12 50.5q0 34 -17.5 57.5
t-43.5 41t-57 34t-57 37t-43.5 48.5t-17.5 71t14.5 77.5t39.5 60t59.5 41t74.5 20.5l11 77q1 6 8 8.5t24 2.5h13z" />
    <glyph glyph-name="percent" unicode="%" horiz-adv-x="863" 
d="M668 737q33 0 27 -11l-433 -734q-5 -9 -34 -9h-21q-33 0 -27 11l434 734q3 5 10 7t23 2h21zM251 659q-23 0 -41 -15.5t-30 -40t-18.5 -56.5t-6.5 -65q0 -92 65 -92q23 0 41 15t30 39.5t18.5 56.5t6.5 66q0 92 -65 92zM262 730q67 0 105 -37.5t38 -116.5q0 -54 -13.5 -101
t-38.5 -81.5t-61 -54.5t-82 -20q-67 0 -105.5 38.5t-38.5 116.5q0 55 14 101.5t39.5 81t61.5 54t81 19.5zM660 330q-23 0 -41 -15.5t-30 -40t-18.5 -56.5t-6.5 -65q0 -92 65 -92q23 0 41 15t30 39.5t18.5 56.5t6.5 66q0 92 -65 92zM671 401q67 0 105 -37.5t38 -116.5
q0 -54 -13.5 -101t-38.5 -81.5t-61 -54.5t-82 -20q-67 0 -105.5 38.5t-38.5 116.5q0 55 14 101.5t39.5 81t61.5 54t81 19.5z" />
    <glyph glyph-name="ampersand" unicode="&#x26;" horiz-adv-x="683" 
d="M500 654q-8 -17 -13.5 -22t-10.5 -3q-49 25 -110 25q-54 0 -86 -29.5t-32 -88.5q0 -32 11.5 -59.5t34.5 -62.5q36 -53 78.5 -104t89.5 -101q25 37 46 84.5t36 101.5q2 7 9.5 10t27.5 3h16q21 0 28 -4t5 -11q-18 -70 -46.5 -130t-64.5 -110l49 -47q24 -22 51 -44
q10 -7 -15 -37l-8 -9q-24 -29 -33 -22q-30 23 -53.5 44t-46.5 44q-43 -45 -99 -68.5t-128 -23.5q-53 0 -92 13.5t-65.5 37.5t-39.5 57t-13 73q0 81 48.5 137.5t124.5 90.5q-23 31 -33.5 63.5t-10.5 64.5q0 47 16 84.5t45 64t69.5 40.5t88.5 14q38 0 71 -8.5t62 -24.5
q10 -6 -3 -34zM407 140q-51 51 -92 100.5t-79 103.5q-21 -11 -42 -27t-37 -36t-26 -44.5t-10 -52.5q0 -55 36 -86.5t96 -31.5q52 0 89.5 22.5t64.5 51.5z" />
    <glyph glyph-name="quotesingle" unicode="'" horiz-adv-x="231" 
d="M185 720q42 0 39 -12l-46 -257q-1 -10 -34 -10h-11q-18 0 -25 2.5t-6 7.5l28 257q1 12 39 12h16z" />
    <glyph glyph-name="parenleft" unicode="(" horiz-adv-x="319" 
d="M332 750q24 -15 18 -24q-38 -47 -70.5 -105t-56.5 -124.5t-38 -140t-14 -152.5q0 -50 5 -90.5t13.5 -77t20.5 -70t26 -67.5q2 -5 -3 -11.5t-23 -14.5l-9 -4q-18 -8 -26.5 -8.5t-11.5 4.5q-33 57 -57.5 139t-24.5 195q0 89 18.5 173t48.5 157t67.5 132t75.5 100
q4 5 10.5 4t20.5 -9z" />
    <glyph glyph-name="parenright" unicode=")" horiz-adv-x="319" 
d="M139 756q29 13 35 4q32 -54 57.5 -136.5t25.5 -196.5q0 -86 -18.5 -170t-48.5 -158t-68 -135t-77 -101q-10 -10 -33 7l-8 6q-24 18 -17 27q39 48 72.5 106t57.5 124t37.5 138t13.5 149q0 94 -17.5 170t-46.5 136q-2 5 2 11t24 15z" />
    <glyph glyph-name="asterisk" unicode="*" horiz-adv-x="389" 
d="M203 609l6 110q1 6 7.5 8.5t24.5 2.5h14q18 0 23.5 -3t4.5 -8l-24 -110l108 43q8 2 11 -4.5t6 -22.5l4 -14q6 -31 -5 -34l-116 -26l65 -85q2 -5 -3 -11t-20 -17l-13 -9q-27 -18 -31 -8l-49 95l-71 -96q-8 -11 -31 9l-10 9q-21 19 -14 26l86 87l-104 25q-5 2 -4.5 9.5
t8.5 25.5l7 15q8 18 13.5 23t10.5 3z" />
    <glyph glyph-name="plus" unicode="+" 
d="M253 398l31 220q1 5 7.5 7.5t23.5 2.5h15q17 0 23.5 -2.5t5.5 -7.5l-31 -220h204q8 0 5 -29l-1 -9q-2 -17 -5 -23.5t-8 -6.5h-204l-31 -222q-1 -10 -32 -10h-15q-17 0 -23 2.5t-5 7.5l31 222h-205q-5 0 -6 6.5t1 23.5l1 9q3 29 13 29h205z" />
    <glyph glyph-name="comma" unicode="," horiz-adv-x="236" 
d="M-29 -150q-4 5 -6.5 11.5t2.5 10.5l23 21q14 12 26 26.5t20 29.5t8 29q0 13 -5 21t-10.5 15.5t-10.5 17.5t-5 27q0 26 18.5 46t48.5 20q32 0 48.5 -21t16.5 -52t-12.5 -62.5t-33 -61t-46.5 -55t-53 -43.5q-5 -3 -9.5 0t-9.5 8z" />
    <glyph glyph-name="hyphen" unicode="-" horiz-adv-x="370" 
d="M323 338q6 0 7 -7t-3 -24l-2 -10q-4 -17 -6.5 -23.5t-8.5 -6.5h-266q-6 0 -7 7t3 24l2 10q4 17 6.5 23.5t8.5 6.5h266z" />
    <glyph glyph-name="period" unicode="." horiz-adv-x="236" 
d="M92 125q29 0 45.5 -17.5t16.5 -43.5q0 -13 -5 -26.5t-14 -24t-22 -17t-30 -6.5q-27 0 -44.5 17.5t-17.5 43.5q0 28 19.5 51t51.5 23z" />
    <glyph glyph-name="slash" unicode="/" horiz-adv-x="323" 
d="M338 738q37 0 31 -12l-318 -733q-4 -10 -37 -10h-23q-33 0 -28 12l318 733q3 7 11 8.5t25 1.5h21z" />
    <glyph glyph-name="zero" unicode="0" 
d="M325 652q-45 0 -81 -33.5t-61 -87.5t-38 -121.5t-13 -134.5q0 -103 30.5 -155t87.5 -52q46 0 81.5 33t59.5 86.5t36.5 121t12.5 135.5q0 208 -115 208zM339 730q93 0 143.5 -64.5t50.5 -206.5q0 -95 -19.5 -180t-57 -149t-93 -102t-127.5 -38q-93 0 -145.5 66t-52.5 209
q0 93 20.5 177t59 148t94.5 102t127 38z" />
    <glyph glyph-name="one" unicode="1" 
d="M316 708q6 4 18 8t29 4h22q20 0 27 -2.5t6 -9.5l-89 -635h104q8 0 5 -28l-2 -16q-3 -29 -13 -29h-304q-5 0 -6 5t1 24l2 15q2 18 5 23.5t8 5.5h107l75 540l-148 -87q-5 -3 -12.5 3t-13.5 18l-8 16q-6 12 -6.5 21.5t3.5 11.5z" />
    <glyph glyph-name="two" unicode="2" 
d="M133 646q-9 23 0 30q36 25 86 39.5t98 14.5q41 0 75 -11t59 -33t38.5 -53.5t13.5 -73.5q0 -46 -21.5 -92.5t-53.5 -90.5q-34 -43 -72 -83l-72 -74l-140 -140h302q8 0 4 -33l-2 -12q-6 -34 -14 -34h-394q-6 0 -8 7.5t1 27.5l3 18q5 34 20 49l162 164l66 66
q34 33 61.5 67.5t45.5 70t18 73.5q0 53 -31 80.5t-85 27.5q-32 0 -65 -10t-68 -28q-5 -2 -11 1.5t-11 17.5z" />
    <glyph glyph-name="three" unicode="3" 
d="M137 661q-9 25 1 31q34 17 74 27.5t81 10.5q39 0 74.5 -10t62 -30.5t42.5 -51t16 -72.5q0 -29 -8.5 -57t-25 -52.5t-41 -44t-55.5 -29.5q21 -5 40.5 -17t34.5 -31.5t24.5 -46.5t9.5 -61q0 -53 -21 -96.5t-57 -74.5t-84.5 -48.5t-103.5 -17.5q-45 0 -86.5 7.5t-79.5 23.5
q-4 2 -4 10t8 27l7 16q7 15 12 19.5t9 2.5q31 -14 69.5 -21t71.5 -7t63 10t52.5 29.5t35.5 47t13 62.5q0 32 -12 55.5t-33 39t-48.5 23t-58.5 7.5h-43q-5 0 -6.5 4.5t0.5 24.5l2 16q2 19 5.5 24t8.5 5h42q33 0 63 8t53 25t36.5 43t13.5 62q0 52 -34.5 76.5t-83.5 24.5
q-27 0 -57 -7t-59 -21q-4 -2 -9 1t-10 19z" />
    <glyph glyph-name="four" unicode="4" 
d="M378 720q20 0 30.5 -3t5.5 -11l-275 -444h200l23 159q1 12 41 12h11q23 0 32.5 -2.5t8.5 -8.5l-23 -160h80q10 0 4 -33l-2 -12q-3 -17 -5.5 -25.5t-7.5 -8.5h-80l-24 -172q-1 -11 -41 -11h-11q-42 0 -41 11l24 172h-262q-20 0 -27.5 3t-5.5 11l6 44q5 28 20 54l254 413
q5 8 15.5 10t29.5 2h20z" />
    <glyph glyph-name="five" unicode="5" 
d="M514 720q5 0 6.5 -6.5t-1.5 -26.5l-2 -12q-3 -20 -6.5 -27t-8.5 -7h-259l-27 -195q28 6 59 6q43 0 80 -11.5t64 -35t42.5 -60t15.5 -87.5q0 -58 -20 -107t-57.5 -85t-90.5 -56t-119 -20q-35 0 -76 7t-73 20q-4 2 -5 8t7 27l5 14q7 19 12 24t10 3q27 -11 63 -17.5t64 -6.5
q42 0 76 12.5t58.5 35.5t38 56.5t13.5 74.5q0 39 -11.5 63.5t-31 38.5t-45.5 19.5t-55 5.5q-67 0 -126 -14l51 359h349z" />
    <glyph glyph-name="six" unicode="6" 
d="M520 658q-9 -20 -14.5 -23.5t-9.5 -1.5q-22 9 -47 14.5t-49 5.5q-50 0 -86.5 -21t-63 -56t-44.5 -80t-29 -92q29 23 66 34t75 11q98 0 143.5 -50.5t45.5 -135.5q0 -51 -16 -100t-47.5 -87.5t-77 -62t-105.5 -23.5q-59 0 -98 17.5t-62 48t-33 72.5t-10 90q0 49 8 106
t25 114t44.5 109.5t66 93t89.5 65t116 24.5q38 0 66.5 -8t54.5 -19q5 -2 5 -9.5t-8 -24.5zM163 328q-5 -25 -8 -54.5t-3 -49.5q0 -30 5 -58.5t18.5 -50t37 -34.5t59.5 -13t62 16.5t43 42.5t25 59t8 66q0 25 -5 46.5t-17.5 38t-34 26t-53.5 9.5q-37 0 -73.5 -13t-63.5 -31z
" />
    <glyph glyph-name="seven" unicode="7" 
d="M524 720q35 0 32 -14l-7 -47q-2 -12 -6 -23.5t-9 -19.5l-329 -606q-6 -10 -44 -10h-20q-18 0 -29 3t-8 9l350 629h-316q-10 0 -4 34l2 12q2 16 5 24.5t9 8.5h374z" />
    <glyph glyph-name="eight" unicode="8" 
d="M211 382q-40 18 -67 55t-27 94q0 48 20 85t52 62.5t73 38.5t82 13q36 0 69 -9.5t58.5 -29t41 -48t15.5 -66.5q0 -34 -12 -64t-32 -54t-45.5 -42t-52.5 -28q23 -12 44.5 -28t38 -37t26 -48t9.5 -60q0 -51 -21.5 -93t-58 -71.5t-83.5 -45.5t-98 -16q-41 0 -77.5 10.5
t-64 31.5t-44 53t-16.5 76q0 76 46.5 134t123.5 87zM310 429q25 10 48 23t39.5 29t26.5 36t10 45q0 41 -28 66.5t-75 25.5q-25 0 -46.5 -8t-37.5 -22.5t-25.5 -34.5t-9.5 -44q0 -22 8 -39t21.5 -31t31.5 -25.5t37 -20.5zM286 340q-27 -10 -54.5 -25t-49 -35t-35 -46
t-13.5 -58q0 -51 34 -80t88 -29q30 0 57.5 10t49 28t34 43t12.5 55q0 28 -11 49t-28.5 37.5t-39.5 28.5t-44 22z" />
    <glyph glyph-name="nine" unicode="9" 
d="M45 70q14 30 25 25q24 -14 58.5 -21t64.5 -7q52 0 90.5 26.5t65 67.5t43 92t25.5 100q-30 -26 -70.5 -41t-78.5 -15q-49 0 -84.5 13t-58.5 36.5t-34 56t-11 72.5q0 52 16.5 98.5t48.5 81.5t78 55t105 20q57 0 95 -17.5t61 -48.5t33 -72.5t10 -90.5q0 -46 -7.5 -102
t-24 -113t-42.5 -110.5t-64 -94.5t-88.5 -66t-115.5 -25q-47 0 -82.5 7t-67.5 24q-5 3 -5 11t9 26zM429 425q4 17 6.5 36.5t2.5 34.5q0 31 -5.5 59.5t-19 50t-37.5 34.5t-60 13q-39 0 -66 -15.5t-43.5 -39t-24 -52.5t-7.5 -56q0 -23 5.5 -44t18.5 -37t34.5 -25t53.5 -9
q41 0 78 16t64 34z" />
    <glyph glyph-name="colon" unicode=":" horiz-adv-x="236" 
d="M83 124q29 0 45.5 -17.5t16.5 -43.5q0 -13 -5 -26t-14 -23.5t-22 -17t-29 -6.5q-27 0 -44.5 17.5t-17.5 43.5q0 27 19 50t51 23zM134 497q29 0 45.5 -17.5t16.5 -43.5q0 -13 -5 -26t-14 -23.5t-22 -17t-29 -6.5q-27 0 -44.5 17.5t-17.5 43.5q0 27 19 50t51 23z" />
    <glyph glyph-name="semicolon" unicode=";" horiz-adv-x="236" 
d="M-32 -150q-4 5 -6.5 11.5t2.5 10.5l24 21q14 12 25.5 26.5t19.5 29.5t8 29q0 13 -5 21t-10.5 15.5t-10.5 17.5t-5 27q0 26 18.5 46t48.5 20q32 0 48.5 -21t16.5 -52t-12.5 -62.5t-33 -61t-46.5 -55t-53 -43.5q-5 -3 -9.5 0t-9.5 8zM130 497q29 0 45.5 -17.5t16.5 -43.5
q0 -13 -5 -26t-14 -23.5t-22 -17t-29 -6.5q-27 0 -44.5 17.5t-17.5 43.5q0 27 19 50t51 23z" />
    <glyph glyph-name="less" unicode="&#x3c;" 
d="M521 645q5 3 11 -4.5t11 -19.5l5 -12q11 -27 1 -32l-411 -212l354 -219q9 -5 -8 -31l-7 -10q-17 -25 -26 -20l-393 242q-7 5 -4 34l1 11q2 15 4.5 22t7.5 10z" />
    <glyph glyph-name="equal" unicode="=" 
d="M542 499q10 0 4 -29l-2 -10q-3 -16 -6 -22t-8 -6h-473q-5 0 -7 6.5t2 23.5l2 10q3 15 6 21t8 6h474zM514 295q10 0 4 -29l-2 -10q-3 -16 -6 -22t-8 -6h-473q-5 0 -7 6.5t2 23.5l2 10q3 15 6 21t8 6h474z" />
    <glyph glyph-name="greater" unicode="&#x3e;" 
d="M117 628q17 25 26 20l389 -239q7 -5 4 -34l-1 -11q-2 -15 -4.5 -22t-7.5 -10l-458 -243q-5 -3 -11 4.5t-11 19.5l-5 12q-11 27 -1 32l415 214l-350 216q-10 5 8 31z" />
    <glyph glyph-name="question" unicode="?" horiz-adv-x="404" 
d="M91 664q-5 17 -4 24t6 9q33 17 73.5 25t76.5 8q38 0 70.5 -8.5t56.5 -27t37.5 -47.5t13.5 -70q0 -71 -41 -128.5t-114 -89.5q-41 -18 -58.5 -41.5t-21.5 -49.5l-8 -61q-1 -5 -12 -7.5t-28 -2.5h-12q-39 0 -38 10l7 59q8 57 34.5 96.5t88.5 65.5q46 19 76.5 49.5
t30.5 81.5q0 26 -8 43t-22.5 27t-34 14t-41.5 4q-29 0 -51 -5.5t-52 -16.5q-4 -2 -9.5 2t-10.5 20zM117 117q26 0 42 -16.5t16 -40.5q0 -25 -17.5 -47.5t-49.5 -22.5q-26 0 -42 16.5t-16 40.5q0 26 18 48t49 22z" />
    <glyph glyph-name="at" unicode="@" horiz-adv-x="802" 
d="M528 526q3 7 9.5 8.5t20.5 1.5h25q17 0 22 -4.5t3 -8.5q-18 -41 -36 -107l-28 -97q-3 -11 -5.5 -24t-2.5 -26q0 -20 9.5 -34.5t36.5 -14.5q34 0 59.5 23t42 56.5t24.5 71.5t8 67q0 53 -18.5 95.5t-52 72.5t-79.5 46t-101 16q-75 0 -140.5 -27.5t-114 -76.5t-76.5 -116.5
t-28 -146.5q0 -60 18.5 -106t52 -78t81.5 -48.5t107 -16.5q35 0 73.5 5.5t70.5 16.5q5 2 8 -2.5t5 -18.5l1 -7q2 -11 1.5 -18t-6.5 -9q-38 -15 -85 -22t-87 -7q-70 0 -127 20.5t-98 59t-63.5 94.5t-22.5 127q0 97 35 178t95 139t139.5 90t168.5 32q67 0 124.5 -20t99 -57
t65 -90t23.5 -119q0 -46 -13 -96t-40 -92t-69 -69t-101 -27q-23 0 -38.5 4.5t-25.5 12t-16 17.5t-10 21q-30 -29 -60 -42t-64 -13q-64 0 -96.5 37.5t-32.5 92.5q0 43 15.5 88t44 82t70 60t94.5 23t82 -24zM499 450q-11 12 -29 19.5t-38 7.5q-31 0 -54 -17t-38.5 -43.5
t-23.5 -58t-8 -60.5q0 -32 14 -51.5t43 -19.5q40 0 64 34t39 85z" />
    <glyph glyph-name="A" unicode="A" horiz-adv-x="635" 
d="M376 720q23 0 32 -2.5t10 -8.5l145 -698q2 -6 -10 -8.5t-33 -2.5h-11q-41 0 -44 11l-33 176h-277l-82 -176q-6 -11 -45 -11h-16q-21 0 -32 2q-8 2 -8 7q0 1 1 2l337 698q3 6 12.5 8.5t34.5 2.5h19zM188 265h231l-65 358z" />
    <glyph glyph-name="B" unicode="B" horiz-adv-x="563" 
d="M296 720q45 0 85 -8.5t70 -28t47.5 -50t17.5 -75.5q0 -53 -27 -101.5t-84 -75.5q52 -24 77 -60t25 -95q0 -55 -21 -97t-57.5 -70.5t-87.5 -43.5t-111 -15h-200l101 720h165zM133 78h101q36 0 68 7.5t56 23.5t38.5 42t14.5 63q0 53 -33 86t-107 33h-102zM180 408h83
q34 0 62.5 8.5t49.5 24.5t33 40t12 56q0 35 -13 55.5t-32.5 31.5t-42.5 14.5t-44 3.5h-75z" />
    <glyph glyph-name="C" unicode="C" horiz-adv-x="562" 
d="M546 633q-9 -16 -15 -19t-11 -1q-36 20 -70 28.5t-74 8.5q-63 0 -108 -34t-73.5 -86.5t-42 -115.5t-13.5 -122q0 -45 8.5 -85t29 -70t55 -47.5t85.5 -17.5q67 0 133 31q5 2 10.5 -2t10.5 -20l4 -13q4 -13 4 -21q0 -10 -6 -13q-42 -22 -88.5 -33t-96.5 -11q-65 0 -112 20
t-77 57.5t-44 90t-14 118.5q0 49 8 102t25.5 103.5t44 95.5t64 79t86.5 54t110 20q108 0 183 -49q3 -2 3 -7q0 -9 -9 -25z" />
    <glyph glyph-name="D" unicode="D" horiz-adv-x="641" 
d="M297 720q70 0 127 -14.5t97.5 -47.5t62.5 -87.5t22 -135.5q0 -46 -8 -96t-24.5 -98t-43.5 -91.5t-64 -75.5q-51 -44 -113.5 -59t-144.5 -15h-178l101 720h166zM133 77h87q53 0 96.5 11.5t82.5 43.5q30 25 50.5 57.5t33.5 70t19 77t6 78.5q0 112 -50 170t-164 58h-81z" />
    <glyph glyph-name="E" unicode="E" horiz-adv-x="533" 
d="M523 720q6 0 6 -13q0 -9 -2 -20l-2 -10q-6 -34 -14 -34h-298l-34 -240h254q7 0 7 -14q0 -7 -2 -18l-2 -12q-2 -14 -5.5 -23.5t-8.5 -9.5h-254l-34 -248h303q6 0 6 -13q0 -7 -2 -18l-2 -13q-2 -15 -5.5 -24.5t-8.5 -9.5h-395l101 720h392z" />
    <glyph glyph-name="F" unicode="F" horiz-adv-x="480" 
d="M499 720q6 0 6 -12q0 -8 -2 -19l-2 -13q-5 -33 -14 -33h-274l-34 -240h230q7 0 7 -14q0 -7 -2 -18l-2 -12q-6 -33 -14 -33h-230l-44 -315q-1 -11 -41 -11h-10q-43 0 -42 11l100 709h368z" />
    <glyph glyph-name="G" unicode="G" horiz-adv-x="622" 
d="M572 624q-12 -20 -21 -20q-2 0 -4 1q-38 24 -80.5 35t-87.5 11q-69 0 -116 -34t-76 -86.5t-41.5 -117t-12.5 -124.5q0 -50 11 -90t34 -69t59 -44.5t87 -15.5q30 0 61 4.5t54 13.5l31 219h-154q-7 0 -7 15q0 7 2 18l2 14q4 32 14 32h245l-48 -349q-43 -21 -102.5 -34
t-121.5 -13q-131 0 -198 75.5t-67 210.5q0 50 8 103.5t25.5 103.5t45.5 95t67 79t90 53.5t115 19.5q67 0 117 -15.5t84 -43.5q4 -3 4 -8q0 -8 -9 -22z" />
    <glyph glyph-name="H" unicode="H" horiz-adv-x="651" 
d="M182 720q41 0 40 -11l-43 -307h308l43 307q1 6 12 8.5t30 2.5h11q41 0 40 -11l-98 -698q-1 -11 -41 -11h-11q-42 0 -41 11l44 314h-308l-44 -314q-1 -11 -41 -11h-10q-43 0 -42 11l98 698q1 6 12 8.5t31 2.5h10z" />
    <glyph glyph-name="I" unicode="I" horiz-adv-x="373" 
d="M356 720q7 0 7 -12q0 -7 -2 -16l-2 -11q-4 -29 -13 -29h-71l-82 -584h71q7 0 7 -12q0 -7 -2 -16l-2 -12q-2 -16 -5 -22t-8 -6h-234q-6 0 -6 10q0 7 2 21l1 8q2 17 4.5 23t7.5 6h71l82 584h-70q-9 0 -5 28l2 13q2 15 5 21t8 6h234z" />
    <glyph glyph-name="J" unicode="J" horiz-adv-x="433" 
d="M378 720q42 0 41 -11l-69 -493q-8 -53 -23 -95t-41 -71t-63.5 -44.5t-89.5 -15.5q-44 0 -84 12t-63 35q-3 3 -3 10.5t12 23.5l11 15q11 15 17.5 18t12.5 -1q21 -14 46.5 -24t53.5 -10q31 0 52 11.5t34.5 30.5t21 44t11.5 52l70 502q1 6 12 8.5t31 2.5h10z" />
    <glyph glyph-name="K" unicode="K" horiz-adv-x="576" 
d="M181 720q42 0 41 -11l-48 -337l92 90q73 71 128 134t88 114q4 6 13 8t32 2h11q26 0 34 -2q4 -1 4 -5q0 -2 -1 -4q-12 -22 -35 -54.5t-55.5 -71t-72.5 -81.5t-85 -86l182 -405q2 -5 -10.5 -8t-32.5 -3h-16q-41 0 -46 11l-148 345l-97 -92l-35 -253q-1 -11 -41 -11h-10
q-43 0 -42 11l98 698q1 11 42 11h10z" />
    <glyph glyph-name="L" unicode="L" horiz-adv-x="496" 
d="M182 720q41 0 40 -12l-88 -630h280q7 0 7 -14q0 -7 -2 -19l-2 -11q-6 -34 -14 -34h-374l100 708q1 8 12 10t31 2h10z" />
    <glyph glyph-name="M" unicode="M" horiz-adv-x="763" 
d="M203 720q29 0 38.5 -3.5t11.5 -11.5l116 -466l243 466q4 8 14.5 11.5t38.5 3.5h10q29 0 39.5 -3.5t9.5 -11.5l-70 -694q-1 -11 -40 -11h-10q-40 0 -39 11l60 555l-223 -431q-3 -5 -12.5 -7.5t-32.5 -2.5h-7q-24 0 -32.5 2.5t-9.5 8.5l-107 416l-95 -541q-1 -11 -41 -11
h-10q-38 0 -37 11l130 694q2 10 10.5 12.5t38.5 2.5h6z" />
    <glyph glyph-name="N" unicode="N" horiz-adv-x="664" 
d="M178 720q16 0 25 -0.5t14.5 -2t7.5 -4t4 -6.5l250 -553l78 555q1 11 39 11h10q38 0 37 -11l-98 -698q-1 -7 -10 -9t-36 -2h-4q-31 0 -39.5 2.5t-12.5 10.5l-251 554l-78 -556q-1 -11 -38 -11h-10q-40 0 -39 11l98 698q1 7 10.5 9t37.5 2h5z" />
    <glyph glyph-name="O" unicode="O" horiz-adv-x="683" 
d="M376 650q-55 0 -100 -28t-76.5 -76.5t-49 -113t-17.5 -137.5q0 -111 43.5 -168t131.5 -57q56 0 101 28.5t76.5 77.5t48 113.5t16.5 135.5q0 112 -43.5 168.5t-130.5 56.5zM391 730q118 0 187 -73t69 -222q0 -92 -25 -173t-71.5 -141.5t-111.5 -95.5t-145 -35
q-59 0 -107 18t-81.5 54.5t-51.5 91.5t-18 130q0 93 25.5 174t72 141.5t112 95.5t145.5 35z" />
    <glyph glyph-name="P" unicode="P" horiz-adv-x="526" 
d="M291 720q52 0 96 -8.5t76.5 -29.5t51 -55.5t18.5 -86.5q0 -57 -17.5 -106.5t-51.5 -85.5t-83 -57t-112 -21q-26 0 -54 1.5t-54 4.5l-37 -265q-1 -11 -41 -11h-10q-43 0 -42 11l100 709h160zM172 352q49 -6 101 -6q76 0 119.5 48.5t43.5 129.5q0 40 -14 63.5t-35 36
t-46.5 16t-48.5 3.5h-79z" />
    <glyph glyph-name="Q" unicode="Q" horiz-adv-x="681" 
d="M502 -88q-18 -16 -29 -16q-5 0 -8 3q-19 20 -38.5 46.5t-36.5 58.5q-22 -6 -45.5 -10t-48.5 -4q-59 0 -107 18t-81.5 54.5t-51.5 91.5t-18 130q0 93 25.5 174t72 141.5t112 95.5t145.5 35q118 0 187 -73t69 -222q0 -130 -48 -234t-134 -161q15 -28 31 -48t32 -37
q5 -5 0 -13.5t-17 -19.5zM360 202q14 5 23.5 5.5t11.5 -7.5l15 -41q9 -23 20 -47q29 23 51.5 56t38.5 73.5t24 87t8 96.5q0 112 -43.5 168.5t-130.5 56.5q-55 0 -100 -28t-76.5 -76.5t-49 -113t-17.5 -137.5q0 -111 43.5 -168t131.5 -57q25 0 48 6q-9 19 -20 46
q-17 44 -17 54.5t23 19.5z" />
    <glyph glyph-name="R" unicode="R" horiz-adv-x="563" 
d="M291 720q54 0 99 -7.5t77.5 -27.5t51 -54.5t18.5 -87.5q0 -82 -46 -144.5t-131 -91.5l33 -92q19 -54 40 -100.5t52 -99.5q4 -6 -6.5 -10.5t-32.5 -4.5h-18q-23 0 -35.5 5.5t-16.5 12.5q-23 40 -38.5 77t-31.5 81l-43 119h-99l-40 -284q-1 -11 -41 -11h-10q-43 0 -42 11
l100 709h160zM175 370h95q78 0 124 42.5t46 114.5q0 40 -13.5 63.5t-34.5 35.5t-47 15t-50 3h-82z" />
    <glyph glyph-name="S" unicode="S" horiz-adv-x="509" 
d="M468 639q-10 -17 -16.5 -20.5t-11.5 -0.5q-23 14 -56.5 23.5t-66.5 9.5q-26 0 -50.5 -7t-43.5 -21.5t-30 -36t-11 -50.5q0 -33 20 -56.5t49.5 -43t64 -38.5t64 -44t49.5 -59t20 -84q0 -48 -17.5 -89t-49.5 -70t-79 -45.5t-105 -16.5q-29 0 -58.5 4t-56.5 11t-48.5 17.5
t-33.5 22.5q-3 3 -3 8v6q3 9 14 26l6 9q10 15 18.5 19t12.5 1q16 -11 35.5 -19.5t40.5 -14t41 -8.5t37 -3q31 0 58.5 8.5t48 24.5t32.5 39t12 52q0 38 -19.5 64t-49.5 46t-64 38.5t-64 42t-49.5 55t-19.5 78.5q0 46 17 85t47.5 67.5t72.5 44.5t93 16q21 0 45 -3.5t46 -9.5
t41 -15t31 -20q4 -4 4 -8q0 -6 -9 -21z" />
    <glyph glyph-name="T" unicode="T" horiz-adv-x="502" 
d="M531 720q6 0 6 -13q0 -8 -2 -20l-2 -12q-3 -17 -5.5 -25.5t-7.5 -8.5h-182l-89 -630q-1 -11 -43 -11h-11q-40 0 -39 11l89 630h-181q-7 0 -7 14q0 8 2 20l2 12q6 33 14 33h456z" />
    <glyph glyph-name="U" unicode="U" horiz-adv-x="664" 
d="M176 720q42 0 41 -11l-62 -438q-2 -12 -3 -25.5t-1 -25.5q0 -33 7.5 -60.5t25 -47.5t46 -31.5t69.5 -11.5q81 0 129 48.5t62 152.5l62 439q1 11 42 11h11q41 0 40 -11l-60 -427q-21 -151 -93 -221.5t-203 -70.5q-233 0 -233 212q0 14 1.5 29.5t3.5 32.5l63 445
q1 11 42 11h10z" />
    <glyph glyph-name="V" unicode="V" horiz-adv-x="595" 
d="M127 720q20 0 32 -3.5t13 -8.5l95 -616l266 616q4 12 44 12h17q38 0 38 -9q0 -2 -1 -3l-316 -697q-3 -6 -15.5 -8.5t-31.5 -2.5h-25q-41 0 -44 11l-128 697q-2 6 11 9t34 3h11z" />
    <glyph glyph-name="W" unicode="W" horiz-adv-x="934" 
d="M133 720q20 0 31.5 -3t12.5 -9l59 -619l229 620q4 11 47 11h25q41 0 42 -11l61 -618l227 617q4 12 43 12h12q41 0 37 -12l-271 -697q-2 -6 -15.5 -8.5t-32.5 -2.5h-30q-43 0 -44 11l-57 594l-222 -592q-2 -6 -15 -9.5t-33 -3.5h-30q-41 0 -43 13l-89 695q-1 6 12 9t34 3
h10z" />
    <glyph glyph-name="X" unicode="X" horiz-adv-x="564" 
d="M155 720q19 0 31 -2.5t14 -8.5l107 -259l179 259q5 6 18 8.5t32 2.5h12q20 0 33 -3q9 -2 9 -6q0 -1 -1 -3l-248 -336l157 -359q3 -6 -10.5 -9.5t-33.5 -3.5h-12q-19 0 -32 3t-15 8l-118 290l-203 -290q-8 -11 -48 -11h-13q-21 0 -35 4q-9 2 -9 6q0 1 1 3l270 368
l-139 327q-2 6 11.5 9t33.5 3h9z" />
    <glyph glyph-name="Y" unicode="Y" horiz-adv-x="532" 
d="M121 720q19 0 31 -2.5t14 -8.5l107 -337l200 337q4 6 16.5 8.5t30.5 2.5h15q20 0 31 -3q9 -2 9 -6q0 -1 -1 -3l-269 -429l-38 -268q-1 -11 -43 -11h-11q-40 0 -39 11l38 268l-148 429q-2 6 11 9t34 3h12z" />
    <glyph glyph-name="Z" unicode="Z" horiz-adv-x="536" 
d="M507 720q35 0 32 -14l-6 -42q-2 -11 -11 -25.5t-17 -25.5l-397 -534h345q5 0 5 -15q0 -7 -1 -18l-2 -11q-5 -35 -13 -35h-420q-20 0 -27.5 3t-5.5 11l7 43q2 13 8 25t17 26l398 534h-315q-5 0 -6 7.5t2 29.5l1 6q5 35 14 35h392z" />
    <glyph glyph-name="bracketleft" unicode="[" horiz-adv-x="319" 
d="M370 753q11 0 5 -32l-1 -6q-6 -35 -15 -35h-111l-104 -739h115q5 0 6.5 -7t-1.5 -25l-1 -6q-6 -35 -14 -35h-202l124 885h199z" />
    <glyph glyph-name="backslash" unicode="\" horiz-adv-x="329" 
d="M119 738q17 0 24 -1.5t9 -8.5l113 -733q0 -6 -7.5 -9t-25.5 -3h-20q-33 0 -34 10l-111 733q-2 12 32 12h20z" />
    <glyph glyph-name="bracketright" unicode="]" horiz-adv-x="319" 
d="M303 753l-124 -885h-201q-11 0 -5 35l1 6q6 32 13 32h115l104 739h-111q-11 0 -5 35l1 6q2 15 5 23.5t9 8.5h198z" />
    <glyph glyph-name="asciicircum" unicode="^" 
d="M352 730q20 0 28 -3.5t10 -9.5l121 -377q4 -12 -41 -12h-11q-22 0 -31 3t-11 10l-89 297l-173 -297q-4 -7 -13 -10t-29 -3h-17q-46 0 -38 12l230 377q8 13 40 13h24z" />
    <glyph glyph-name="underscore" unicode="_" horiz-adv-x="500" 
d="M450 -134q5 0 6 -6t-2 -22l-2 -10q-3 -16 -6 -21.5t-8 -5.5h-499q-11 0 -5 30l2 10q3 14 6 19.5t8 5.5h500z" />
    <glyph glyph-name="grave" unicode="`" horiz-adv-x="343" 
d="M227 732q40 0 45 -11l53 -128q2 -5 -4 -8.5t-29 -3.5h-8q-18 0 -24 2.5t-9 6.5l-75 128q-2 5 5 9.5t35 4.5h11z" />
    <glyph glyph-name="a" unicode="a" horiz-adv-x="556" 
d="M487 528q26 0 31 -3t5 -7q0 -7 -9 -63q-7 -43 -14 -91l-20 -140q-10 -69 -14 -120l-9 -92q-1 -6 -7 -9t-29 -3h-4q-23 0 -29.5 2.5t-6.5 9.5l1 48q-27 -30 -67 -50t-91 -20q-47 0 -81 17t-56 46t-32.5 69t-10.5 87q0 58 17 116.5t51 105.5t83.5 77t114.5 30
q45 0 77 -18.5t50 -45.5l11 42q2 8 8.5 10t26.5 2h4zM415 389q-14 27 -42.5 48t-63.5 21q-45 0 -77.5 -22t-53.5 -56t-31 -75.5t-10 -81.5q0 -31 6 -59t19 -49t34.5 -33.5t53.5 -12.5q23 0 50 9t50 32q9 9 15 19t11.5 25.5t9.5 38t9 54.5z" />
    <glyph glyph-name="b" unicode="b" horiz-adv-x="549" 
d="M138 83q23 -8 49.5 -12t50.5 -4q46 0 80.5 21.5t57.5 56t34 78.5t11 89q0 69 -28 105t-85 36q-27 0 -52.5 -10t-45.5 -29q-10 -10 -17.5 -25t-15.5 -47q-5 -21 -10 -55l-11 -78zM193 760q28 0 34 -3.5t5 -8.5l-38 -269q23 27 60.5 43t79.5 16q48 0 82 -17t55.5 -46
t32 -69t10.5 -86q0 -61 -16.5 -120.5t-51.5 -106t-89.5 -75t-131.5 -28.5q-54 0 -98 9.5t-75 22.5q-9 4 -9 16q0 3 1 7l100 703q1 6 7.5 9t35.5 3h6z" />
    <glyph glyph-name="c" unicode="c" horiz-adv-x="477" 
d="M410 71q5 -16 5.5 -25t-5.5 -12q-40 -21 -83.5 -32.5t-87.5 -11.5q-51 0 -89.5 16.5t-63.5 45.5t-37.5 69t-12.5 88q0 58 17 117t51.5 106t85.5 76.5t120 29.5q45 0 88.5 -12t71.5 -35q3 -3 3 -8q0 -11 -13 -34q-16 -28 -29 -28q-2 0 -5 1q-29 18 -61 27t-64 9
q-42 0 -74 -21t-53.5 -54t-32.5 -74.5t-11 -83.5q0 -31 7 -59t23 -49t40.5 -33.5t60.5 -12.5q31 0 62 8.5t61 22.5q7 3 12.5 -1.5t11.5 -23.5z" />
    <glyph glyph-name="d" unicode="d" horiz-adv-x="568" 
d="M514 760q23 0 31.5 -2.5t6.5 -10.5l-87 -622q-3 -19 -2.5 -29.5t3.5 -16t9 -7t16 -1.5q5 0 6.5 -6t-0.5 -21l-1 -6q-2 -17 -6 -24.5t-9 -9.5q-8 -4 -18.5 -5t-24.5 -1q-22 0 -38 14.5t-21 43.5h-1q-22 -27 -62 -46.5t-94 -19.5q-86 0 -133.5 56t-47.5 156q0 57 17 116.5
t51 108.5t84.5 80t118.5 31q37 0 67.5 -10t50.5 -25l34 244q1 8 10 10.5t34 2.5h6zM418 419q-17 17 -45.5 27.5t-60.5 10.5q-44 0 -77.5 -21.5t-55.5 -55.5t-33 -76t-11 -84q0 -76 32 -113.5t85 -37.5q23 0 50 8.5t44 27.5q8 9 15 20.5t13 27.5t11 38t9 53z" />
    <glyph glyph-name="e" unicode="e" horiz-adv-x="533" 
d="M132 232q-1 -7 -1 -12v-12q0 -71 38 -104t110 -33q30 0 60.5 8t68.5 25q2 1 4 1q9 0 17 -22l4 -11q7 -18 5.5 -25.5t-7.5 -10.5q-81 -46 -179 -46q-109 0 -161 56t-52 157q0 56 16.5 115.5t49.5 108t83.5 80t119.5 31.5q47 0 82.5 -15t59 -41.5t35.5 -63.5t12 -82
q0 -17 -2 -35l-4 -35q-3 -23 -6 -28.5t-9 -5.5h-344zM408 306q1 7 1.5 14t0.5 14q0 24 -6 46.5t-19.5 40t-35 27.5t-51.5 10q-51 0 -91.5 -37t-60.5 -115h262z" />
    <glyph glyph-name="f" unicode="f" horiz-adv-x="326" 
d="M140 528l3 23q14 106 63 162.5t138 56.5q58 0 103 -23q4 -1 4 -7q0 -9 -8 -27l-2 -5q-7 -17 -11.5 -23t-10.5 -4q-38 16 -81 16q-53 0 -76 -40t-31 -105l-3 -24h114q5 0 5.5 -5.5t-1.5 -25.5l-1 -8q-3 -20 -5.5 -25.5t-7.5 -5.5h-114l-96 -679q0 -3 -1 -5t-5 -3.5
t-12 -2.5t-23 -1h-6q-29 0 -35.5 3t-5.5 9l96 679h-72q-5 0 -5.5 6t1.5 25l1 8q2 20 5 25.5t8 5.5h72z" />
    <glyph glyph-name="g" unicode="g" horiz-adv-x="554" 
d="M401 284q4 27 5.5 45.5t1.5 32.5q0 44 -31 68.5t-81 24.5q-44 0 -74.5 -22t-50.5 -55.5t-29 -74.5t-9 -79q0 -68 27 -106t81 -38q41 0 77.5 16.5t62.5 43.5zM478 528q22 0 29.5 -2.5t7.5 -10.5q-1 -19 -4 -51.5t-7 -68.5l-10 -71l-7 -57l-23 -166q-8 -60 -18 -108.5
t-23 -79.5q-31 -75 -93.5 -110.5t-137.5 -35.5q-19 0 -41.5 2t-44.5 6t-40.5 9.5t-28.5 12.5q-5 3 -5 10q0 9 9 29l4 9q11 26 22 26q3 0 5 -1q27 -11 59 -17.5t64 -6.5q57 0 97 26.5t58 83.5q7 20 12 50l7 51q-30 -32 -69.5 -44.5t-77.5 -12.5q-46 0 -80 16t-56.5 44.5
t-33.5 67.5t-11 85q0 55 16 113t47.5 105t78.5 77t109 30q48 0 83 -16.5t52 -47.5l6 41q1 7 8.5 10t30.5 3h6z" />
    <glyph glyph-name="h" unicode="h" horiz-adv-x="572" 
d="M195 760q29 0 35.5 -3t5.5 -9l-39 -274q30 30 75.5 47t89.5 17q41 0 74 -13.5t54 -39.5q31 -38 31 -106q0 -14 -1.5 -30t-3.5 -34l-43 -303q0 -3 -1 -5t-5 -3.5t-12 -2.5t-23 -1h-6q-30 0 -36 3t-5 9l37 261q4 29 6.5 51t2.5 39q0 19 -3.5 32.5t-11.5 24.5q-24 34 -89 34
q-27 0 -58 -10t-51 -27q-10 -8 -19 -23.5t-17 -47.5q-5 -21 -10.5 -57t-11.5 -80l-28 -197q0 -3 -1 -5t-5 -3.5t-12.5 -2.5t-23.5 -1h-5q-30 0 -36.5 3t-5.5 9l104 736q0 3 1 5t5 3.5t12.5 2.5t23.5 1h6z" />
    <glyph glyph-name="i" unicode="i" horiz-adv-x="235" 
d="M164 528q29 0 34 -3.5t4 -8.5l-71 -504q0 -3 -1 -5t-5 -3.5t-12 -2.5t-23 -1h-6q-30 0 -36.5 3t-5.5 9l71 504q1 6 8 9t37 3h6zM186 753q26 0 42 -16.5t16 -40.5t-17 -46.5t-49 -22.5q-26 0 -42 16.5t-16 40.5q0 26 18 47.5t48 21.5z" />
    <glyph glyph-name="j" unicode="j" horiz-adv-x="236" 
d="M161 528q30 0 35 -3.5t4 -8.5l-73 -519q-9 -65 -27.5 -109t-45.5 -71t-62.5 -38.5t-77.5 -11.5q-16 0 -37 4t-31 11q-5 3 -5 7.5t6 22.5l6 17q5 12 9 18.5t10 4.5q11 -4 23.5 -6.5t22.5 -2.5q27 0 46.5 7.5t34 25.5t24 47t15.5 72l73 521q1 6 8 9t37 3h5zM183 753
q26 0 42 -16.5t16 -40.5t-17 -46.5t-49 -22.5q-26 0 -42 16.5t-16 40.5q0 26 18 47.5t48 21.5z" />
    <glyph glyph-name="k" unicode="k" horiz-adv-x="482" 
d="M195 760q27 0 34 -3.5t6 -8.5l-62 -432l64 54l41 36l36 32q17 17 34 36l39 43q5 6 15.5 8.5t37.5 2.5q42 0 42 -10q0 -2 -2 -5q-10 -14 -28 -35t-43 -47l-55 -55q-31 -29 -65 -58l140 -302q2 -5 -4 -10.5t-35 -5.5h-5q-29 0 -39 3.5t-12 9.5l-116 251l-58 -47l-29 -205
q-1 -5 -7 -8.5t-35 -3.5h-5q-30 0 -36.5 3t-5.5 9l104 736q1 6 8 9t36 3h5z" />
    <glyph glyph-name="l" unicode="l" horiz-adv-x="251" 
d="M178 760q23 0 30.5 -2.5t7.5 -10.5q0 -26 -6 -102.5t-23 -193.5l-47 -332q-1 -7 -1.5 -13t-0.5 -11q0 -26 32 -26h10q7 0 4 -26l-1 -7q-4 -27 -12 -29q-11 -4 -23.5 -6t-23.5 -2q-35 0 -55 17t-20 54q0 27 6 68l47 335q6 43 11 85t8.5 78.5t5.5 65t2 45.5q0 8 9 10.5
t35 2.5h5z" />
    <glyph glyph-name="m" unicode="m" horiz-adv-x="892" 
d="M159 528q26 0 32.5 -2.5t5.5 -9.5l-5 -45h1q29 31 72 49t89 18q45 0 85 -20t58 -65q35 42 85 63.5t103 21.5q81 0 125 -53q31 -38 31 -109q0 -14 -2 -33t-4 -36l-42 -295q0 -3 -1 -5t-5 -3.5t-12 -2.5t-23 -1h-6q-29 0 -35.5 3t-5.5 9l36 254q5 29 7.5 55t2.5 43
q0 36 -14 56q-12 17 -34.5 25t-51.5 8q-26 0 -54.5 -9t-48.5 -26q-9 -8 -18.5 -23.5t-17.5 -47.5q-5 -21 -10.5 -57t-11.5 -80l-28 -198q0 -3 -1 -5t-5 -3.5t-12 -2.5t-23 -1h-6q-29 0 -35.5 3t-5.5 9l37 261q9 58 9 90q0 19 -3.5 32.5t-11.5 24.5q-11 17 -34 25t-51 8
q-26 0 -54.5 -9t-48.5 -26q-10 -8 -19 -23.5t-17 -47.5q-5 -21 -10.5 -57t-11.5 -80l-28 -198q0 -3 -1 -5t-5 -3.5t-12 -2.5t-23 -1h-6q-30 0 -36 3t-5 9l48 341q4 25 7 50.5t6 47t5 39.5l3 26q1 6 7 9t35 3h5z" />
    <glyph glyph-name="n" unicode="n" horiz-adv-x="573" 
d="M160 528q26 0 32.5 -3t5.5 -9l-5 -45h1q15 15 34.5 27.5t41.5 21.5t45.5 13.5t46.5 4.5q76 0 117.5 -42t41.5 -117q0 -14 -1.5 -29.5t-3.5 -33.5l-43 -304q0 -3 -1 -5t-5 -3.5t-12 -2.5t-23 -1h-6q-30 0 -36.5 3t-5.5 9l37 261q9 58 9 92q0 48 -26 68.5t-77 20.5
q-27 0 -58 -10t-51 -27q-10 -8 -19 -23.5t-17 -47.5q-5 -21 -10.5 -57t-11.5 -80l-28 -197q0 -3 -1 -5t-5 -3.5t-12.5 -2.5t-23.5 -1h-5q-30 0 -36.5 3t-5.5 9l48 341q4 25 7 50.5t6 47t5 39.5l3 26q1 6 7.5 9t35.5 3h5z" />
    <glyph glyph-name="o" unicode="o" horiz-adv-x="553" 
d="M314 538q104 0 153.5 -58t49.5 -163q0 -72 -20.5 -132t-57.5 -103.5t-88.5 -67.5t-112.5 -24q-105 0 -153.5 58t-48.5 161q0 73 21 133.5t58.5 104t88 67.5t110.5 24zM300 458q-35 0 -66.5 -17t-54.5 -47.5t-36.5 -74.5t-13.5 -98q0 -30 6 -57.5t20 -48.5t37.5 -33
t59.5 -12t67 17t54 48t36 74.5t13 97.5q0 30 -5.5 57.5t-19.5 48t-37.5 33t-59.5 12.5z" />
    <glyph glyph-name="p" unicode="p" horiz-adv-x="547" 
d="M152 528q26 0 33 -2.5t6 -9.5l-5 -45q28 33 67.5 50t83.5 17q83 0 129.5 -57t46.5 -154q0 -57 -17 -116.5t-51 -108.5t-85 -80.5t-120 -31.5q-35 0 -64.5 8.5t-48.5 22.5l-34 -241q-2 -8 -10.5 -10.5t-33.5 -2.5h-6q-24 0 -32 2.5t-7 10.5l80 573q4 25 7 50.5t6 47
t5 39.5l3 26q1 6 7.5 9t35.5 3h4zM139 109q17 -16 44 -27t59 -11q45 0 78.5 23t55.5 58t32.5 78t10.5 82q0 71 -30.5 108t-81.5 37q-32 0 -60 -13t-47 -33q-8 -9 -13 -19.5t-9.5 -27t-7.5 -40.5l-9 -59z" />
    <glyph glyph-name="q" unicode="q" horiz-adv-x="554" 
d="M451 64q-5 -32 -10.5 -73.5t-10.5 -80.5l-8 -71q-3 -31 -3 -43q0 -13 -7.5 -16t-36.5 -3h-6q-23 0 -30 2.5t-8 10.5q0 10 2 34.5t5.5 59t9.5 76.5l13 89q-24 -26 -61.5 -42.5t-82.5 -16.5q-46 0 -79.5 16t-55.5 44.5t-32.5 68.5t-10.5 87q0 72 21 132.5t60 105t93 69.5
t120 25q49 0 93.5 -9.5t76.5 -22.5q9 -4 9 -16q0 -3 -1 -7zM417 446q-20 7 -45.5 11t-51.5 4q-44 0 -79 -20.5t-59.5 -55t-37.5 -79t-13 -92.5q0 -141 114 -141q25 0 50 8.5t44 25.5q11 10 19 23.5t14.5 35.5t12.5 54.5t12 79.5z" />
    <glyph glyph-name="r" unicode="r" horiz-adv-x="348" 
d="M159 528q26 0 32.5 -3t5.5 -10l-11 -102q34 64 76 92.5t84 28.5q7 0 10.5 -0.5t7.5 -1.5q8 -2 8 -18q0 -6 -1 -13l-2 -15q-2 -16 -5.5 -25t-11.5 -9q-35 0 -65 -16.5t-53.5 -42t-39 -57t-22.5 -61.5q-2 -9 -5 -27l-7 -38q-3 -20 -6 -42t-6 -41l-16 -115q-1 -5 -8.5 -8.5
t-33.5 -3.5h-5q-28 0 -35.5 3t-6.5 9l48 341q4 25 7 50t6 46.5t4.5 38.5t2.5 27q1 6 7.5 9.5t35.5 3.5h5z" />
    <glyph glyph-name="s" unicode="s" horiz-adv-x="449" 
d="M31 82q11 16 17.5 21t14.5 0q25 -16 59 -26.5t66 -10.5q19 0 40 4.5t38.5 14.5t28.5 25.5t11 37.5q0 19 -9 32.5t-23 23.5t-32 16.5t-37 12.5q-27 8 -52 18.5t-43.5 26t-30 37.5t-11.5 54q0 39 16.5 70.5t44.5 53.5t65 33.5t79 11.5q43 0 83 -13t64 -37q3 -3 3 -8
q0 -10 -13 -28l-5 -7q-11 -16 -18.5 -20t-12.5 0q-26 20 -54.5 29t-54.5 9q-19 0 -38.5 -4t-35.5 -12.5t-26.5 -23t-10.5 -35.5q0 -18 8 -30.5t20.5 -21.5t29.5 -15l35 -12q28 -9 54 -20t46.5 -27.5t32.5 -40.5t12 -58q0 -41 -17.5 -73t-47 -54.5t-69 -34t-84.5 -11.5
q-51 0 -91 13.5t-67 33.5q-3 3 -3 8q0 3 1 7q3 9 11 21z" />
    <glyph glyph-name="t" unicode="t" horiz-adv-x="361" 
d="M201 677q29 0 34.5 -4t4.5 -9l-19 -136h124q6 0 6 -14q0 -7 -1 -16l-1 -8q-4 -32 -14 -32h-124l-42 -296q-2 -13 -3 -23.5t-1 -19.5q0 -25 13.5 -39t42.5 -14q17 0 35.5 3t34.5 8q12 4 14 -22l1 -12q1 -13 0 -19.5t-7 -10.5q-20 -11 -49.5 -17t-57.5 -6q-53 0 -84.5 26.5
t-31.5 81.5q0 12 1 26.5t3 30.5l43 303h-71q-7 0 -7 16q0 7 1 16l1 8q2 17 6 23.5t9 6.5h71l19 136q1 6 7.5 9.5t35.5 3.5h6z" />
    <glyph glyph-name="u" unicode="u" horiz-adv-x="569" 
d="M153 528q28 0 34 -3t5 -9l-37 -262q-5 -30 -7 -51.5t-2 -38.5q0 -20 3 -33.5t10 -24.5q22 -34 82 -34q32 0 61 9.5t52 28.5q9 8 16 18t13.5 27t12 44.5t11.5 69.5l35 247q1 5 8.5 8.5t32.5 3.5h9q25 0 32 -3t6 -9l-48 -341q-3 -26 -6.5 -51t-6 -46.5t-5 -39t-3.5 -26.5
q-1 -6 -7 -9t-34 -3h-4q-26 0 -33 3t-6 9l4 43h-1q-32 -30 -74.5 -47.5t-93.5 -17.5q-41 0 -73.5 12.5t-52.5 38.5q-30 39 -30 103q0 14 1.5 33t3.5 36l43 303q1 5 7 8.5t34 3.5h8z" />
    <glyph glyph-name="v" unicode="v" horiz-adv-x="483" 
d="M229 100q51 100 99 206t83 212q1 3 2.5 5t6 3t13 1.5t22.5 0.5q30 0 39 -2q6 -2 6 -8q0 -4 -2 -9q-26 -72 -55.5 -140.5t-60.5 -132.5l-60 -120q-30 -57 -58 -104q-5 -8 -14.5 -10t-38.5 -2t-39 2t-12 10l-108 502q-2 9 7 11.5t36 2.5q26 0 37 -2.5t13 -8.5z" />
    <glyph glyph-name="w" unicode="w" horiz-adv-x="761" 
d="M206 100l163 414q3 8 11.5 11t34.5 3h20q23 0 29.5 -3t8.5 -11l50 -411l46 101l42 100q20 49 38.5 100.5t35.5 108.5q2 8 9.5 11.5t36.5 3.5q26 0 35 -3q7 -2 7 -9q0 -3 -2 -8q-27 -77 -53 -144l-52 -126l-50 -114l-52 -107q-5 -8 -15.5 -12.5t-33.5 -4.5h-16
q-43 0 -46 14l-29 233q-5 42 -9 95.5t-5 98.5q-6 -21 -14 -46.5t-17 -50.5l-19 -50l-17 -46l-94 -235q-3 -8 -12.5 -10.5t-36.5 -2.5h-11q-31 0 -39.5 2.5t-10.5 10.5l-75 501q-2 9 6.5 11.5t33.5 2.5q30 0 38.5 -2.5t10.5 -8.5z" />
    <glyph glyph-name="x" unicode="x" horiz-adv-x="509" 
d="M270 350l120 165q5 8 16 10.5t39 2.5q29 0 43 -4q9 -2 9 -7q0 -2 -2 -4l-185 -236l136 -264q4 -7 -7 -10t-41 -3q-17 0 -26.5 0.5t-14.5 1.5t-7.5 3t-4.5 6l-94 201l-150 -201q-6 -8 -18 -9.5t-41 -1.5t-40 3q-7 2 -7 6q0 2 3 5l212 269l-115 233q-4 7 5 9.5t39 2.5
q33 0 41.5 -2t12.5 -9z" />
    <glyph glyph-name="y" unicode="y" horiz-adv-x="497" 
d="M206 268q13 -54 19.5 -94t11.5 -82q13 35 33 79l42 90l123 256q5 11 48 11q28 0 38 -3q7 -2 7 -7q0 -2 -1 -4l-259 -526q-21 -42 -44.5 -82t-53.5 -71t-68 -49.5t-89 -18.5q-22 0 -43.5 4t-38.5 12q-6 3 -6 9q0 7 9 27l5 11q7 14 11 19t12 3q11 -4 26.5 -6.5t32.5 -2.5
q23 0 42.5 7.5t38 25.5t37 47t39.5 71l-122 520q-3 9 7.5 11.5t40.5 2.5q26 0 34.5 -2.5t10.5 -8.5z" />
    <glyph glyph-name="z" unicode="z" horiz-adv-x="446" 
d="M434 528q5 0 6 -6q1 -3 1 -7t-1 -9l-2 -13q-3 -21 -14 -35l-296 -383h249q5 0 7 -6t-1 -26l-2 -12q-3 -20 -6 -25.5t-8 -5.5h-351q-9 0 -9 15q0 5 1 11l2 13l4 16q2 8 9 17l294 381h-230q-5 0 -6.5 6t0.5 26l2 12q3 19 6.5 25t8.5 6h336z" />
    <glyph glyph-name="braceleft" unicode="{" horiz-adv-x="319" 
d="M365 753q11 0 5 -32l-1 -6q-6 -35 -15 -35h-22q-40 0 -60.5 -25.5t-26.5 -70.5l-16 -114q-3 -19 -9 -44t-16.5 -48t-26.5 -39.5t-38 -19.5q22 -4 33 -20t15.5 -37t3.5 -44t-4 -41l-17 -125q-1 -8 -1.5 -15.5t-0.5 -14.5q0 -36 15 -58.5t51 -22.5h20q10 0 5 -32l-1 -6
q-5 -35 -14 -35h-23q-68 0 -105 36.5t-37 102.5q0 17 3 35l17 126q3 19 3 39t-5 36t-16 27t-30 13q-5 1 -5 10t2 24l1 6q5 30 11 31q18 2 32 12t24 24.5t16 32t8 34.5l16 118q12 89 61.5 133.5t119.5 44.5h28z" />
    <glyph glyph-name="bar" unicode="|" horiz-adv-x="272" 
d="M219 817q21 0 28.5 -3t6.5 -9l-150 -1066q-1 -6 -8.5 -9t-27.5 -3h-13q-20 0 -28 3t-7 9l150 1066q1 12 36 12h13z" />
    <glyph glyph-name="braceright" unicode="}" horiz-adv-x="319" 
d="M123 753q60 0 97.5 -34t37.5 -99q0 -8 -0.5 -16.5t-1.5 -16.5l-17 -119q-3 -19 -2 -38t6 -35.5t16 -27.5t28 -13q6 -1 3 -30l-1 -8q-3 -32 -12 -33q-39 -4 -56.5 -35.5t-22.5 -71.5l-16 -128q-11 -86 -61 -133t-125 -47h-28q-7 0 -4 35l1 6q5 32 13 32h24q41 0 63.5 29.5
t27.5 73.5l16 125q3 20 8.5 44.5t16 46.5t26 38t38.5 21q-22 5 -33 21.5t-15 37.5t-3 43.5t3 39.5l17 119q1 7 1.5 13.5t0.5 12.5q0 32 -14.5 53t-47.5 21h-23q-8 0 -3 35l1 6q5 32 12 32h29z" />
    <glyph glyph-name="asciitilde" unicode="~" 
d="M43 314q-16 5 -20 9t-2 9q19 69 63.5 100.5t101.5 31.5q39 0 68 -14.5t54.5 -31.5t51 -31.5t57.5 -14.5q28 0 46 17t28 48q2 5 8 7t26 -3l8 -2q18 -5 23 -8.5t3 -8.5q-10 -36 -27 -60.5t-38.5 -38.5t-46.5 -20t-52 -6q-44 0 -73 14t-52 31.5t-45.5 31.5t-53.5 14
q-30 0 -51 -20t-33 -56q-3 -10 -30 -2z" />
    <glyph glyph-name="uni00A0" unicode="&#xa0;" horiz-adv-x="245" 
 />
    <glyph glyph-name="exclamdown" unicode="&#xa1;" horiz-adv-x="287" 
d="M156 330q18 0 25.5 -2t6.5 -7l-53 -500q-1 -13 -49 -13h-14q-26 0 -36.5 3.5t-9.5 9.5l87 500q1 6 8 7.5t24 1.5h11zM175 538q26 0 42 -16.5t16 -40.5q0 -25 -17.5 -47.5t-49.5 -22.5q-26 0 -42 16.5t-16 40.5q0 26 18 48t49 22z" />
    <glyph glyph-name="cent" unicode="&#xa2;" 
d="M391 720q19 0 25.5 -2.5t5.5 -8.5l-13 -91q35 -5 65.5 -17.5t52.5 -31.5q5 -5 3.5 -11.5t-12.5 -26.5q-12 -21 -20.5 -25t-13.5 -1q-55 37 -116 37q-46 0 -80.5 -19t-57 -49.5t-34 -69t-11.5 -78.5q0 -29 6.5 -54.5t21.5 -45.5t40 -31.5t61 -11.5q61 0 121 27q7 3 11 -1
t9 -20l3 -10q5 -18 4.5 -26t-6.5 -11q-61 -32 -129 -38l-13 -93q-1 -11 -33 -11h-12q-19 0 -26 2.5t-6 8.5l13 94q-41 6 -71 23t-49.5 44t-29 61.5t-9.5 75.5q0 52 15.5 104t45.5 95.5t75 73t105 37.5l13 90q1 11 34 11h12z" />
    <glyph glyph-name="sterling" unicode="&#xa3;" 
d="M186 409l14 92q8 52 26 94.5t46.5 72.5t69 46t93.5 16q34 0 70.5 -9t66.5 -28q5 -3 2 -11.5t-10 -21.5l-6 -11q-10 -17 -15.5 -21t-11.5 -1q-29 15 -52 20t-48 5q-68 0 -99.5 -39.5t-40.5 -105.5l-13 -98h190q11 0 5 -29l-2 -11q-3 -17 -6 -23.5t-8 -6.5h-188l-10 -71
q-9 -66 -31.5 -113.5t-64.5 -75.5h327q8 0 4 -33l-2 -12q-3 -17 -5.5 -25.5t-7.5 -8.5h-426q-10 0 -4 34l2 11q6 32 15 37q41 27 66 73t32 97l12 87h-76q-5 0 -6 6.5t2 23.5l2 11q3 16 5.5 22.5t7.5 6.5h75z" />
    <glyph glyph-name="currency" unicode="&#xa4;" 
d="M470 398q0 -62 -19.5 -111t-52.5 -82l49 -113q3 -7 -4 -9.5t-33 -2.5h-9q-20 0 -26.5 2t-10.5 10l-32 71q-33 -13 -72 -13q-46 0 -80 18l-56 -76q-5 -7 -12.5 -9.5t-27.5 -2.5h-17q-26 0 -31.5 3t-0.5 9l91 127q-26 40 -26 101q0 62 19 111t53 81l-49 114q-3 7 4 9.5
t33 2.5h9q20 0 26.5 -2t10.5 -10l32 -71q17 6 34.5 9.5t37.5 3.5q44 0 80 -19l56 77q5 7 12.5 9.5t27.5 2.5h17q26 0 31.5 -3t0.5 -9l-91 -127q12 -20 19 -45.5t7 -55.5zM388 390q0 20 -4.5 38.5t-15 32.5t-26.5 22.5t-40 8.5t-46 -11.5t-38.5 -33t-26 -52t-9.5 -67.5
q0 -20 4.5 -38.5t15 -32.5t26.5 -22.5t40 -8.5t46 11.5t38.5 33t26 52t9.5 67.5z" />
    <glyph glyph-name="yen" unicode="&#xa5;" 
d="M156 720q19 0 31 -2.5t14 -8.5l82 -337l182 337q4 6 16.5 8.5t30.5 2.5h15q20 0 31.5 -3t7.5 -9l-187 -320h97q8 0 5 -28l-1 -7q-4 -28 -13 -28h-125l-27 -46l-5 -35h147q8 0 5 -28l-1 -7q-4 -28 -13 -28h-147l-24 -170q-1 -11 -43 -11h-11q-40 0 -39 11l24 170h-136
q-9 0 -5 28l1 8q3 27 13 27h136l5 35l-13 46h-117q-8 0 -5 28l1 8q3 27 13 27h90l-92 320q-2 6 11 9t34 3h12z" />
    <glyph glyph-name="brokenbar" unicode="&#xa6;" horiz-adv-x="267" 
d="M197 766q21 0 28.5 -2.5t6.5 -8.5l-54 -379q-1 -6 -8 -8.5t-27 -2.5h-13q-20 0 -28.5 2.5t-7.5 8.5l54 379q1 11 36 11h13zM115 179q21 0 28 -2.5t6 -8.5l-53 -379q-1 -6 -8.5 -8.5t-27.5 -2.5h-13q-20 0 -28 2.5t-7 8.5l53 379q1 11 37 11h13z" />
    <glyph glyph-name="section" unicode="&#xa7;" horiz-adv-x="487" 
d="M465 650q-11 -18 -17.5 -23t-12.5 -1q-29 16 -58 23.5t-68 7.5q-16 0 -33.5 -4t-32.5 -12.5t-25 -22t-10 -33.5t9 -34t23 -23.5t31 -16.5t34 -11q30 -8 59 -18.5t51.5 -28t36.5 -44t14 -65.5q0 -49 -29 -88t-69 -61q9 -14 14.5 -29.5t5.5 -35.5q0 -40 -17 -71.5
t-46 -53.5t-67 -33.5t-80 -11.5q-54 0 -97 10.5t-72 25.5q-6 3 -3.5 13t8.5 21l6 11q7 13 13 19.5t14 3.5q29 -13 66.5 -21.5t73.5 -8.5q18 0 38 4.5t37.5 13.5t28.5 24t11 36t-10 36.5t-26 26t-35.5 17t-37.5 10.5q-29 7 -56.5 17.5t-49 27.5t-34.5 41t-13 58q0 96 104 150
q-11 14 -17 32.5t-6 41.5q0 37 16 67t42.5 50.5t61.5 31.5t73 11q49 0 91.5 -9.5t70.5 -29.5q9 -7 -7 -34zM188 459q-25 -18 -43 -42.5t-18 -50.5q0 -20 9 -34.5t23 -25.5t31 -18.5t34 -11.5q24 -6 49 -15t47 -23q26 16 43.5 41t17.5 54q0 22 -10 38t-25.5 27t-34.5 18.5
t-38 11.5q-22 5 -43.5 12.5t-41.5 18.5z" />
    <glyph glyph-name="dieresis" unicode="&#xa8;" horiz-adv-x="343" 
d="M153 712q23 0 37.5 -15t14.5 -37t-15.5 -42t-44.5 -20q-23 0 -37.5 15t-14.5 36q0 23 16 43t44 20zM381 712q23 0 37.5 -15t14.5 -37t-15.5 -42t-44.5 -20q-23 0 -37.5 15t-14.5 36q0 23 16 43t44 20z" />
    <glyph glyph-name="copyright" unicode="&#xa9;" horiz-adv-x="789" 
d="M434 730q71 0 130 -25t101 -69t65.5 -104.5t23.5 -130.5q0 -82 -32.5 -156.5t-87 -131t-126 -90t-149.5 -33.5q-71 0 -130.5 25.5t-102.5 69.5t-67 104.5t-24 131.5q0 82 32.5 156t87.5 130.5t127.5 89.5t151.5 33zM425 669q-63 0 -120 -28t-100 -75t-68.5 -109
t-25.5 -130q0 -60 18.5 -110.5t52 -87t80.5 -57.5t104 -21q63 0 120 27.5t100 75t68.5 109.5t25.5 131q0 59 -18.5 109.5t-52 87t-80.5 57.5t-104 21zM529 506q-14 -24 -24 -19q-17 8 -35.5 12.5t-37.5 4.5q-27 0 -50 -12t-40.5 -34t-27.5 -53t-10 -68q0 -23 4.5 -43t16 -36
t31 -25t49.5 -9q29 0 59 14q8 3 11 -2t7 -18l3 -10q7 -25 -2 -30q-23 -12 -47 -18t-51 -6q-41 0 -71.5 13t-50.5 36t-30 54.5t-10 69.5q0 45 13 88.5t39.5 78t66.5 56t95 21.5q29 0 53 -5t48 -19q11 -5 -3 -30z" />
    <glyph glyph-name="ordfeminine" unicode="&#xaa;" horiz-adv-x="416" 
d="M340 714q3 10 26 10h16q17 0 22.5 -2t4.5 -6q-5 -20 -8.5 -44.5t-8.5 -56.5l-13 -92q-6 -45 -9.5 -79t-5.5 -61q0 -4 -7 -6.5t-30 -2.5h-2q-23 0 -28.5 2.5t-5.5 6.5l1 23q-17 -17 -43 -27t-52 -10q-33 0 -57 11.5t-39.5 31t-23 46.5t-7.5 58q0 44 13.5 83t37 68t55 46
t67.5 17q65 0 92 -36zM317 632q-11 14 -29 23.5t-40 9.5q-23 0 -41 -11.5t-31 -30.5t-20 -44t-7 -52q0 -37 16.5 -65t56.5 -28q13 0 28.5 5.5t27.5 19.5q9 11 15.5 29t10.5 47z" />
    <glyph glyph-name="guillemotleft" unicode="&#xab;" horiz-adv-x="501" 
d="M207 523q7 11 33 -2l12 -6q27 -12 20 -21l-140 -188l90 -194q4 -9 -25 -23l-4 -2q-31 -15 -37 -4l-104 193q-3 6 -5.5 13.5t-0.5 15.5l2 12q3 14 10 23zM414 523q7 11 33 -2l12 -6q27 -12 20 -21l-140 -188l90 -194q4 -9 -25 -23l-4 -2q-31 -15 -37 -4l-104 193
q-3 6 -5.5 13.5t-0.5 15.5l2 12q3 14 10 23z" />
    <glyph glyph-name="logicalnot" unicode="&#xac;" 
d="M540 444l-31 -219q-1 -10 -30 -10h-15q-17 0 -23.5 2.5t-5.5 7.5l21 152h-411q-5 0 -6.5 6.5t1.5 23.5l2 10q3 15 6 21t8 6h484z" />
    <glyph glyph-name="uni00AD" unicode="&#xad;" horiz-adv-x="370" 
d="M323 338q6 0 7 -7t-3 -24l-2 -10q-4 -17 -6.5 -23.5t-8.5 -6.5h-266q-6 0 -7 7t3 24l2 10q4 17 6.5 23.5t8.5 6.5h266z" />
    <glyph glyph-name="registered" unicode="&#xae;" horiz-adv-x="789" 
d="M414 563q66 0 106 -24t40 -82q0 -45 -24 -79.5t-76 -54.5l18 -42q11 -25 24.5 -51.5t31.5 -55.5q3 -5 -6 -8t-24 -3h-22q-18 0 -24.5 3t-8.5 7q-12 20 -23 40.5t-19 40.5l-25 61h-51l-20 -143q-1 -9 -24 -9h-32q-22 0 -21 9l55 391h125zM339 376h57q35 0 60.5 16.5
t25.5 52.5q0 16 -7.5 26.5t-19 16.5t-25.5 8.5t-28 2.5h-46zM434 730q71 0 130 -25t101 -69t65.5 -104.5t23.5 -130.5q0 -82 -32.5 -156.5t-87 -131t-126 -90t-149.5 -33.5q-71 0 -130.5 25.5t-102.5 69.5t-67 104.5t-24 131.5q0 82 32.5 156t87.5 130.5t127.5 89.5
t151.5 33zM425 669q-63 0 -120 -28t-100 -75t-68.5 -109t-25.5 -130q0 -60 18.5 -110.5t52 -87t80.5 -57.5t104 -21q63 0 120 27.5t100 75t68.5 109.5t25.5 131q0 59 -18.5 109.5t-52 87t-80.5 57.5t-104 21z" />
    <glyph glyph-name="macron" unicode="&#xaf;" horiz-adv-x="343" 
d="M403 693q12 0 6 -30l-2 -12q-6 -31 -14 -31h-270q-12 0 -6 32l2 12q5 29 14 29h270z" />
    <glyph glyph-name="degree" unicode="&#xb0;" horiz-adv-x="346" 
d="M213 668q-38 0 -59 -27.5t-21 -69.5q0 -64 66 -64q37 0 58 27t21 70q0 64 -65 64zM221 730q60 0 95.5 -29.5t35.5 -90.5q0 -36 -12 -66t-33 -52t-50.5 -34.5t-64.5 -12.5q-60 0 -95.5 30t-35.5 90q0 36 12 66t33 52t50.5 34.5t64.5 12.5z" />
    <glyph glyph-name="plusminus" unicode="&#xb1;" 
d="M474 67q10 0 4 -29l-2 -10q-3 -16 -6 -22t-8 -6h-453q-5 0 -6.5 6.5t1.5 23.5l2 10q3 15 6 21t8 6h454zM266 477l28 196q1 5 7.5 7.5t23.5 2.5h15q17 0 23.5 -2.5t5.5 -7.5l-28 -196h190q8 0 5 -29l-1 -8q-2 -17 -5 -23.5t-8 -6.5h-190l-28 -197q-1 -10 -32 -10h-15
q-17 0 -23 2.5t-5 7.5l28 197h-190q-5 0 -6 6.5t1 23.5l1 8q3 29 13 29h190z" />
    <glyph glyph-name="uni00B2" unicode="&#xb2;" horiz-adv-x="392" 
d="M123 725q-4 11 -2.5 16t4.5 7q24 14 53.5 21.5t61.5 7.5q52 0 86 -25.5t34 -76.5q0 -28 -10 -52.5t-27 -46.5t-38.5 -43t-44.5 -41l-59 -52h152q3 0 5.5 -5t0.5 -19l-2 -16q-2 -14 -5.5 -19t-6.5 -5h-248q-3 0 -4.5 4.5t0.5 17.5l2 11q2 11 5 16.5t8 10.5l87 81l33 29
q18 16 35.5 35.5t29 40.5t11.5 44q0 26 -17.5 36.5t-46.5 10.5q-19 0 -37 -5t-38 -14q-9 -5 -16 15z" />
    <glyph glyph-name="uni00B3" unicode="&#xb3;" horiz-adv-x="392" 
d="M127 728q-4 12 -2.5 17.5t3.5 7.5q24 13 53 18.5t58 5.5q57 0 93 -24t36 -72q0 -35 -22.5 -61.5t-57.5 -36.5q27 -5 48 -26.5t21 -61.5q0 -31 -14.5 -54.5t-38 -39.5t-54.5 -24t-64 -8q-29 0 -56.5 5t-50.5 16q-3 2 -3.5 7.5t7.5 19.5l7 13q7 13 12.5 15t7.5 1
q21 -8 39 -11t38 -3q42 0 68 16t26 45q0 16 -8 27t-21.5 18t-31.5 10t-37 3h-36q-3 0 -5.5 5t-0.5 19l2 13q2 14 5.5 18.5t6.5 4.5h35q20 0 38.5 3t32.5 9.5t22.5 17.5t8.5 26q0 26 -19 37.5t-48 11.5q-18 0 -38 -3t-41 -14q-2 -2 -6 1t-9 16z" />
    <glyph glyph-name="acute" unicode="&#xb4;" horiz-adv-x="343" 
d="M328 732q28 0 35 -4.5t2 -9.5l-111 -128q-4 -4 -11 -6.5t-25 -2.5h-12q-23 0 -27 3.5t0 8.5l90 128q4 5 13.5 8t30.5 3h15z" />
    <glyph glyph-name="mu" unicode="&#xb5;" horiz-adv-x="583" 
d="M159 528q29 0 35 -3t5 -9l-37 -261q-4 -28 -6 -50.5t-2 -39.5q0 -91 102 -91q29 0 55.5 9t47.5 28q10 8 19 23.5t17 47.5q5 21 10 57l11 80l28 197q1 5 7 8.5t35 3.5h6q29 0 35 -3t5 -9l-55 -391q-3 -21 -3 -32t3.5 -16t10 -5.5t15.5 -0.5q5 0 6.5 -6t-0.5 -21l-1 -6
q-3 -18 -7 -25t-8 -9q-7 -4 -16.5 -5t-25.5 -1q-26 0 -42 16.5t-20 48.5q-27 -32 -65.5 -52.5t-88.5 -20.5q-31 0 -57.5 7.5t-47.5 29.5l-7 -54q-4 -27 -7.5 -57t-6 -57t-3.5 -48t0 -31q1 -8 -9 -10.5t-36 -2.5h-5q-24 0 -31.5 2.5t-7.5 10.5q0 22 3 67.5t13 113.5l78 555
q1 5 7 8.5t35 3.5h6z" />
    <glyph glyph-name="mu" unicode="&#x3bc;" horiz-adv-x="583" 
d="M159 528q29 0 35 -3t5 -9l-37 -261q-4 -28 -6 -50.5t-2 -39.5q0 -91 102 -91q29 0 55.5 9t47.5 28q10 8 19 23.5t17 47.5q5 21 10 57l11 80l28 197q1 5 7 8.5t35 3.5h6q29 0 35 -3t5 -9l-55 -391q-3 -21 -3 -32t3.5 -16t10 -5.5t15.5 -0.5q5 0 6.5 -6t-0.5 -21l-1 -6
q-3 -18 -7 -25t-8 -9q-7 -4 -16.5 -5t-25.5 -1q-26 0 -42 16.5t-20 48.5q-27 -32 -65.5 -52.5t-88.5 -20.5q-31 0 -57.5 7.5t-47.5 29.5l-7 -54q-4 -27 -7.5 -57t-6 -57t-3.5 -48t0 -31q1 -8 -9 -10.5t-36 -2.5h-5q-24 0 -31.5 2.5t-7.5 10.5q0 22 3 67.5t13 113.5l78 555
q1 5 7 8.5t35 3.5h6z" />
    <glyph glyph-name="paragraph" unicode="&#xb6;" horiz-adv-x="601" 
d="M608 720q5 0 5.5 -7.5t-2.5 -27.5l-1 -7q-3 -19 -5.5 -25t-7.5 -6h-67l-108 -774q-1 -6 -11.5 -8t-27.5 -2h-9q-37 0 -36 10l109 775h-98l-109 -775q-1 -6 -11.5 -8t-27.5 -2h-9q-38 0 -37 10l61 434q-81 3 -124.5 53.5t-43.5 129.5q0 51 18.5 93.5t52 73t82 47
t108.5 16.5h299z" />
    <glyph glyph-name="periodcentered" unicode="&#xb7;" horiz-adv-x="236" 
d="M125 429q29 0 45.5 -17.5t16.5 -43.5q0 -13 -5 -26.5t-14 -24t-22 -17t-30 -6.5q-27 0 -44.5 17.5t-17.5 43.5q0 28 19.5 51t51.5 23z" />
    <glyph glyph-name="cedilla" unicode="&#xb8;" horiz-adv-x="343" 
d="M168 17q11 0 15 -2t4 -6l-11 -50q4 1 8 1h5q35 0 58.5 -19.5t23.5 -57.5q0 -20 -8.5 -39t-25 -33.5t-41.5 -23.5t-59 -9q-20 0 -38.5 3t-31.5 8q-7 3 0 23l6 16q8 21 16 18q12 -4 26 -5.5t25 -1.5q22 0 36.5 9t14.5 26q0 16 -9.5 21.5t-30.5 5.5q-16 0 -33.5 -0.5
t-30.5 -2.5l30 111q1 4 5.5 6t16.5 2h29z" />
    <glyph glyph-name="uni00B9" unicode="&#xb9;" horiz-adv-x="392" 
d="M226 760q8 5 17 7.5t22 2.5h18q16 0 21 -3t4 -6l-45 -325h55q3 0 5.5 -4.5t0.5 -19.5l-1 -12q-2 -14 -5 -19t-6 -5h-191q-3 0 -5 5t0 19l1 12q2 14 5 19t6 5h59l34 246l-79 -43q-10 -5 -19 15l-9 19q-4 8 -3.5 15.5t3.5 9.5z" />
    <glyph glyph-name="ordmasculine" unicode="&#xba;" horiz-adv-x="420" 
d="M259 730q73 0 109.5 -40.5t36.5 -108.5q0 -49 -15 -88t-40.5 -66.5t-60 -42.5t-74.5 -15q-73 0 -110 38.5t-37 106.5q0 49 14.5 89t40 68.5t60.5 43.5t76 15zM250 664q-20 0 -38.5 -9.5t-32.5 -27.5t-23 -44t-9 -59q0 -18 3.5 -34t12.5 -28t24 -19.5t37 -7.5
q20 0 38.5 10t32.5 28t22.5 44t8.5 59q0 17 -4 33t-13 28t-23.5 19.5t-35.5 7.5z" />
    <glyph glyph-name="guillemotright" unicode="&#xbb;" horiz-adv-x="501" 
d="M116 516q30 15 37 3l102 -183q2 -5 4.5 -12t0.5 -16l-2 -11q-2 -10 -4 -14.5t-6 -9.5l-157 -197q-6 -9 -30 6l-11 7q-23 15 -16 25l142 192l-89 184q-5 10 25 24zM320 516q30 15 37 3l102 -183q2 -5 4.5 -12t0.5 -16l-2 -11q-2 -10 -4 -14.5t-6 -9.5l-157 -197
q-6 -9 -30 6l-11 7q-23 15 -16 25l142 192l-89 184q-5 10 25 24z" />
    <glyph glyph-name="onequarter" unicode="&#xbc;" horiz-adv-x="882" 
d="M671 737q33 0 27 -11l-433 -734q-5 -9 -34 -9h-21q-32 0 -26 11l433 734q3 5 10 7t23 2h21zM226 710q8 5 17 7.5t22 2.5h18q16 0 21 -3t4 -6l-45 -325h55q3 0 5.5 -4.5t0.5 -19.5l-1 -12q-2 -14 -5 -19t-6 -5h-191q-3 0 -5 5t0 19l1 12q2 14 5 19t6 5h59l34 246l-79 -43
q-10 -5 -19 15l-9 19q-4 8 -3.5 15.5t3.5 9.5zM689 394q25 0 31 -2t2 -8l-147 -231h97l11 75q1 5 6.5 7.5t30.5 2.5h5q23 0 28.5 -2.5t4.5 -7.5l-11 -75h38q3 0 5 -5t-1 -19l-3 -16q-3 -14 -5 -19t-5 -5h-38l-11 -79q-1 -5 -5.5 -7.5t-29.5 -2.5h-5q-25 0 -30.5 2.5
t-4.5 7.5l11 79h-178q-2 0 -4 4.5t0 17.5l3 19q2 11 8 22t11 19l136 213q4 6 11.5 8t27.5 2h11z" />
    <glyph glyph-name="onehalf" unicode="&#xbd;" horiz-adv-x="882" 
d="M671 737q33 0 27 -11l-433 -734q-5 -9 -34 -9h-21q-32 0 -26 11l433 734q3 5 10 7t23 2h21zM226 710q8 5 17 7.5t22 2.5h18q16 0 21 -3t4 -6l-45 -325h55q3 0 5.5 -4.5t0.5 -19.5l-1 -12q-2 -14 -5 -19t-6 -5h-191q-3 0 -5 5t0 19l1 12q2 14 5 19t6 5h59l34 246l-79 -43
q-10 -5 -19 15l-9 19q-4 8 -3.5 15.5t3.5 9.5zM552 349q-4 11 -2.5 16t4.5 7q24 14 53.5 21.5t61.5 7.5q52 0 86 -25.5t34 -76.5q0 -28 -10 -52.5t-27 -46.5t-38.5 -43t-44.5 -41l-59 -52h152q3 0 5.5 -5t0.5 -19l-2 -16q-2 -14 -5.5 -19t-6.5 -5h-248q-3 0 -4.5 4.5
t0.5 17.5l2 11q2 11 5 16.5t8 10.5l87 81l34 29q18 16 35 35.5t28.5 40.5t11.5 44q0 26 -17.5 36.5t-46.5 10.5q-19 0 -37 -5t-38 -14q-9 -5 -16 15z" />
    <glyph glyph-name="threequarters" unicode="&#xbe;" horiz-adv-x="882" 
d="M697 737q33 0 27 -11l-433 -734q-5 -9 -34 -9h-21q-32 0 -26 11l433 734q3 5 10 7t23 2h21zM126 678q-4 12 -2.5 17.5t3.5 7.5q24 13 53 18.5t58 5.5q57 0 93 -24t36 -72q0 -35 -22.5 -61.5t-57.5 -36.5q27 -5 48 -26.5t21 -61.5q0 -31 -14.5 -54.5t-38 -39.5t-54.5 -24
t-64 -8q-29 0 -56.5 5t-50.5 16q-3 2 -3.5 7.5t7.5 19.5l8 14q8 13 13 15t7 1q20 -8 38 -11.5t38 -3.5q42 0 68 16t26 45q0 16 -8 27t-21.5 18t-31.5 10t-37 3h-36q-3 0 -5.5 5t-0.5 19l2 13q2 14 5.5 18.5t6.5 4.5h35q20 0 38.5 3t32.5 9.5t22.5 17.5t8.5 26q0 26 -19 37.5
t-48 11.5q-18 0 -38 -3t-41 -14q-2 -2 -6 1t-9 16zM705 394q25 0 31 -2t2 -8l-147 -231h97l11 75q1 5 6.5 7.5t30.5 2.5h5q23 0 28.5 -2.5t4.5 -7.5l-11 -75h38q3 0 5 -5t-1 -19l-3 -16q-3 -14 -5 -19t-5 -5h-38l-11 -79q-1 -5 -5.5 -7.5t-29.5 -2.5h-5q-25 0 -30.5 2.5
t-4.5 7.5l11 79h-178q-2 0 -4 4.5t0 17.5l3 19q2 11 8 22t11 19l136 213q4 6 11.5 8t27.5 2h11z" />
    <glyph glyph-name="questiondown" unicode="&#xbf;" horiz-adv-x="404" 
d="M285 538q26 0 42 -16.5t16 -40.5q0 -25 -17.5 -47.5t-49.5 -22.5q-26 0 -42 16.5t-16 40.5q0 26 18 48t49 22zM270 331q39 0 38 -10l-7 -59q-8 -57 -34.5 -96.5t-88.5 -65.5q-46 -19 -76.5 -49.5t-30.5 -81.5q0 -26 8 -43t22.5 -27t33.5 -14t42 -4q29 0 51 5.5t52 16.5
q4 2 9.5 -2t10.5 -20l5 -17q5 -17 4 -24t-6 -9q-33 -17 -73.5 -25t-76.5 -8q-38 0 -70.5 8.5t-56.5 27t-37.5 47.5t-13.5 70q0 71 41 128.5t114 89.5q41 18 58.5 41.5t21.5 49.5l8 61q1 5 12 7.5t28 2.5h12z" />
    <glyph glyph-name="Agrave" unicode="&#xc0;" horiz-adv-x="635" 
d="M376 720q23 0 32 -2.5t10 -8.5l145 -698q2 -6 -10 -8.5t-33 -2.5h-11q-41 0 -44 11l-33 176h-277l-82 -176q-6 -11 -45 -11h-16q-21 0 -32 2q-8 2 -8 7q0 1 1 2l337 698q3 6 12.5 8.5t34.5 2.5h19zM188 265h231l-65 358zM328 914q21 0 31.5 -1.5t13.5 -9.5l53 -128
q2 -5 -4 -8.5t-29 -3.5h-8q-18 0 -24 2.5t-9 6.5l-75 128q-2 5 5 9.5t35 4.5h11z" />
    <glyph glyph-name="Aacute" unicode="&#xc1;" horiz-adv-x="635" 
d="M376 720q23 0 32 -2.5t10 -8.5l145 -698q2 -6 -10 -8.5t-33 -2.5h-11q-41 0 -44 11l-33 176h-277l-82 -176q-6 -11 -45 -11h-16q-21 0 -32 2q-8 2 -8 7q0 1 1 2l337 698q3 6 12.5 8.5t34.5 2.5h19zM188 265h231l-65 358zM465 914q28 0 35 -4.5t2 -9.5l-111 -128
q-4 -4 -11 -6.5t-25 -2.5h-12q-23 0 -27 3.5t0 8.5l90 128q5 6 14 8.5t30 2.5h15z" />
    <glyph glyph-name="Acircumflex" unicode="&#xc2;" horiz-adv-x="635" 
d="M376 720q23 0 32 -2.5t10 -8.5l145 -698q2 -6 -10 -8.5t-33 -2.5h-11q-41 0 -44 11l-33 176h-277l-82 -176q-6 -11 -45 -11h-16q-21 0 -32 2q-8 2 -8 7q0 1 1 2l337 698q3 6 12.5 8.5t34.5 2.5h19zM188 265h231l-65 358zM319 896q6 6 15.5 9.5t29.5 3.5h37
q21 0 29.5 -4.5t12.5 -9.5l76 -97q6 -8 -12 -26l-7 -7q-10 -10 -18 -13t-11 0l-94 96l-122 -94q-3 -3 -8.5 -1.5t-13.5 12.5l-7 9q-8 11 -9.5 16.5t3.5 10.5z" />
    <glyph glyph-name="Atilde" unicode="&#xc3;" horiz-adv-x="635" 
d="M376 720q23 0 32 -2.5t10 -8.5l145 -698q2 -6 -10 -8.5t-33 -2.5h-11q-41 0 -44 11l-33 176h-277l-82 -176q-6 -11 -45 -11h-16q-21 0 -32 2q-8 2 -8 7q0 1 1 2l337 698q3 6 12.5 8.5t34.5 2.5h19zM188 265h231l-65 358zM222 807q-5 8 -7 15.5t3 12.5q17 19 42 33t54 14
q23 0 38 -6q16 -6 28 -12l24 -13q12 -6 30 -6q13 0 25 7.5t22 16.5q5 4 10.5 3t13.5 -12l6 -8q7 -10 8 -16.5t-4 -13.5q-15 -20 -39 -36t-53 -16q-20 0 -34.5 6t-27.5 12.5t-27 12.5t-32 6q-15 0 -26.5 -6.5t-22.5 -17.5q-4 -4 -11 0t-14 15z" />
    <glyph glyph-name="Adieresis" unicode="&#xc4;" horiz-adv-x="635" 
d="M376 720q23 0 32 -2.5t10 -8.5l145 -698q2 -6 -10 -8.5t-33 -2.5h-11q-41 0 -44 11l-33 176h-277l-82 -176q-6 -11 -45 -11h-16q-21 0 -32 2q-8 2 -8 7q0 1 1 2l337 698q3 6 12.5 8.5t34.5 2.5h19zM188 265h231l-65 358zM268 869q23 0 37.5 -15t14.5 -37t-15.5 -42
t-44.5 -20q-23 0 -37.5 15t-14.5 36q0 23 16 43t44 20zM496 869q23 0 37.5 -15t14.5 -37t-15.5 -42t-44.5 -20q-23 0 -37.5 15t-14.5 36q0 23 16 43t44 20z" />
    <glyph glyph-name="Aring" unicode="&#xc5;" horiz-adv-x="635" 
d="M563 11q2 -6 -10 -8.5t-33 -2.5h-11q-41 0 -44 11l-33 176h-277l-82 -176q-6 -11 -45 -11h-16q-21 0 -31.5 2.5t-7.5 8.5l336 697q-29 24 -29 62q0 20 8.5 38t23 31.5t32.5 21t38 7.5q36 0 60.5 -23.5t24.5 -58.5q0 -26 -13.5 -47.5t-34.5 -35.5zM188 265h231l-65 358z
M376 820q-17 0 -30.5 -12.5t-13.5 -32.5q0 -17 11 -28t27 -11q18 0 31.5 13.5t13.5 31.5q0 17 -11 28t-28 11z" />
    <glyph glyph-name="AE" unicode="&#xc6;" horiz-adv-x="874" 
d="M865 720q5 0 5.5 -9.5t-1.5 -23.5l-2 -10q-6 -34 -14 -34h-288l-34 -240h244q10 0 5 -32l-2 -12q-2 -14 -5.5 -23.5t-8.5 -9.5h-244l-34 -248h293q9 0 4 -31l-2 -13q-2 -15 -5.5 -24.5t-8.5 -9.5h-385l26 192h-222l-123 -181q-8 -11 -46 -11h-19q-20 0 -33.5 3t-9.5 8
l487 694q5 8 15.5 11.5t33.5 3.5h374zM241 271h179l45 329z" />
    <glyph glyph-name="Ccedilla" unicode="&#xc7;" horiz-adv-x="562" 
d="M546 633q-9 -16 -15 -19t-11 -1q-36 20 -70 28.5t-74 8.5q-63 0 -108 -34t-73.5 -86.5t-42 -115.5t-13.5 -122q0 -45 8.5 -85t29 -70t55 -47.5t85.5 -17.5q67 0 133 31q5 2 10.5 -2t10.5 -20l4 -13q9 -29 -2 -34q-37 -20 -78 -30.5t-85 -12.5l-7 -32q3 1 7 1h6
q35 0 58.5 -19.5t23.5 -57.5q0 -20 -8.5 -39t-25 -33.5t-41.5 -23.5t-59 -9q-20 0 -38.5 3t-31.5 8q-7 3 0 23l6 16q8 21 16 18q12 -4 26 -5.5t25 -1.5q22 0 36.5 9t14.5 26q0 16 -9.5 21.5t-30.5 5.5q-16 0 -33.5 -0.5t-30.5 -2.5l26 96q-53 7 -90.5 29.5t-61.5 59
t-35.5 85.5t-11.5 108q0 49 8 102t25.5 103.5t44 95.5t64 79t86.5 54t110 20q108 0 183 -49q9 -6 -6 -32z" />
    <glyph glyph-name="Egrave" unicode="&#xc8;" horiz-adv-x="533" 
d="M523 720q6 0 6 -13q0 -9 -2 -20l-2 -10q-6 -34 -14 -34h-298l-34 -240h254q7 0 7 -14q0 -7 -2 -18l-2 -12q-2 -14 -5.5 -23.5t-8.5 -9.5h-254l-34 -248h303q6 0 6 -13q0 -7 -2 -18l-2 -13q-2 -15 -5.5 -24.5t-8.5 -9.5h-395l101 720h392zM288 914q21 0 31.5 -1.5
t13.5 -9.5l53 -128q2 -5 -4 -8.5t-29 -3.5h-8q-18 0 -24 2.5t-9 6.5l-75 128q-2 5 5 9.5t35 4.5h11z" />
    <glyph glyph-name="Eacute" unicode="&#xc9;" horiz-adv-x="533" 
d="M523 720q6 0 6 -13q0 -9 -2 -20l-2 -10q-6 -34 -14 -34h-298l-34 -240h254q7 0 7 -14q0 -7 -2 -18l-2 -12q-2 -14 -5.5 -23.5t-8.5 -9.5h-254l-34 -248h303q6 0 6 -13q0 -7 -2 -18l-2 -13q-2 -15 -5.5 -24.5t-8.5 -9.5h-395l101 720h392zM444 914q28 0 35 -4.5t2 -9.5
l-111 -128q-4 -4 -11 -6.5t-25 -2.5h-12q-23 0 -27 3.5t0 8.5l90 128q5 6 14 8.5t30 2.5h15z" />
    <glyph glyph-name="Ecircumflex" unicode="&#xca;" horiz-adv-x="533" 
d="M523 720q6 0 6 -13q0 -9 -2 -20l-2 -10q-6 -34 -14 -34h-298l-34 -240h254q7 0 7 -14q0 -7 -2 -18l-2 -12q-2 -14 -5.5 -23.5t-8.5 -9.5h-254l-34 -248h303q6 0 6 -13q0 -7 -2 -18l-2 -13q-2 -15 -5.5 -24.5t-8.5 -9.5h-395l101 720h392zM297 896q6 6 15.5 9.5t29.5 3.5
h37q21 0 29.5 -4.5t12.5 -9.5l76 -97q6 -8 -12 -26l-7 -7q-10 -10 -18 -13t-11 0l-94 96l-122 -94q-3 -3 -8.5 -1.5t-13.5 12.5l-7 9q-8 11 -9.5 16.5t3.5 10.5z" />
    <glyph glyph-name="Edieresis" unicode="&#xcb;" horiz-adv-x="533" 
d="M523 720q6 0 6 -13q0 -9 -2 -20l-2 -10q-6 -34 -14 -34h-298l-34 -240h254q7 0 7 -14q0 -7 -2 -18l-2 -12q-2 -14 -5.5 -23.5t-8.5 -9.5h-254l-34 -248h303q6 0 6 -13q0 -7 -2 -18l-2 -13q-2 -15 -5.5 -24.5t-8.5 -9.5h-395l101 720h392zM232 869q23 0 37.5 -15t14.5 -37
t-15.5 -42t-44.5 -20q-23 0 -37.5 15t-14.5 36q0 23 16 43t44 20zM460 869q23 0 37.5 -15t14.5 -37t-15.5 -42t-44.5 -20q-23 0 -37.5 15t-14.5 36q0 23 16 43t44 20z" />
    <glyph glyph-name="Igrave" unicode="&#xcc;" horiz-adv-x="373" 
d="M356 720q7 0 7 -12q0 -7 -2 -16l-2 -11q-4 -29 -13 -29h-71l-82 -584h71q7 0 7 -12q0 -7 -2 -16l-2 -12q-2 -16 -5 -22t-8 -6h-234q-6 0 -6 10q0 7 2 21l1 8q2 17 4.5 23t7.5 6h71l82 584h-70q-9 0 -5 28l2 13q2 15 5 21t8 6h234zM194 914q21 0 31.5 -1.5t13.5 -9.5
l53 -128q2 -5 -4 -8.5t-29 -3.5h-8q-18 0 -24 2.5t-9 6.5l-75 128q-2 5 5 9.5t35 4.5h11z" />
    <glyph glyph-name="Iacute" unicode="&#xcd;" horiz-adv-x="373" 
d="M356 720q7 0 7 -12q0 -7 -2 -16l-2 -11q-4 -29 -13 -29h-71l-82 -584h71q7 0 7 -12q0 -7 -2 -16l-2 -12q-2 -16 -5 -22t-8 -6h-234q-6 0 -6 10q0 7 2 21l1 8q2 17 4.5 23t7.5 6h71l82 584h-70q-9 0 -5 28l2 13q2 15 5 21t8 6h234zM341 914q28 0 35 -4.5t2 -9.5l-111 -128
q-4 -4 -11 -6.5t-25 -2.5h-12q-23 0 -27 3.5t0 8.5l90 128q5 6 14 8.5t30 2.5h15z" />
    <glyph glyph-name="Icircumflex" unicode="&#xce;" horiz-adv-x="373" 
d="M356 720q7 0 7 -12q0 -7 -2 -16l-2 -11q-4 -29 -13 -29h-71l-82 -584h71q7 0 7 -12q0 -7 -2 -16l-2 -12q-2 -16 -5 -22t-8 -6h-234q-6 0 -6 10q0 7 2 21l1 8q2 17 4.5 23t7.5 6h71l82 584h-70q-9 0 -5 28l2 13q2 15 5 21t8 6h234zM194 896q6 6 15.5 9.5t29.5 3.5h37
q21 0 29.5 -4.5t12.5 -9.5l76 -97q6 -8 -12 -26l-7 -7q-10 -10 -18 -13t-11 0l-94 96l-122 -94q-3 -3 -8.5 -1.5t-13.5 12.5l-7 9q-8 11 -9.5 16.5t3.5 10.5z" />
    <glyph glyph-name="Idieresis" unicode="&#xcf;" horiz-adv-x="373" 
d="M356 720q7 0 7 -12q0 -7 -2 -16l-2 -11q-4 -29 -13 -29h-71l-82 -584h71q7 0 7 -12q0 -7 -2 -16l-2 -12q-2 -16 -5 -22t-8 -6h-234q-6 0 -6 10q0 7 2 21l1 8q2 17 4.5 23t7.5 6h71l82 584h-70q-9 0 -5 28l2 13q2 15 5 21t8 6h234zM134 869q23 0 37.5 -15t14.5 -37
t-15.5 -42t-44.5 -20q-23 0 -37.5 15t-14.5 36q0 23 16 43t44 20zM362 869q23 0 37.5 -15t14.5 -37t-15.5 -42t-44.5 -20q-23 0 -37.5 15t-14.5 36q0 23 16 43t44 20z" />
    <glyph glyph-name="Eth" unicode="&#xd0;" horiz-adv-x="655" 
d="M311 720q70 0 127 -14.5t97.5 -47.5t62.5 -87.5t22 -135.5q0 -46 -8 -96t-24.5 -98t-43.5 -91.5t-64 -75.5q-51 -44 -113.5 -59t-144.5 -15h-178l46 328h-53q-6 0 -8.5 6t1.5 26l2 11q3 17 6.5 24t10.5 7h51l45 318h166zM357 402q6 0 8.5 -6t-1.5 -26l-2 -11
q-3 -17 -6.5 -24t-10.5 -7h-163l-35 -251h87q53 0 96.5 11.5t82.5 43.5q30 25 50.5 57.5t33.5 70t19 77t6 78.5q0 112 -50 170t-164 58h-81l-34 -241h164z" />
    <glyph glyph-name="Ntilde" unicode="&#xd1;" horiz-adv-x="664" 
d="M178 720q16 0 25 -0.5t14.5 -2t7.5 -4t4 -6.5l250 -553l78 555q1 11 39 11h10q38 0 37 -11l-98 -698q-1 -7 -10 -9t-36 -2h-4q-31 0 -39.5 2.5t-12.5 10.5l-251 554l-78 -556q-1 -11 -38 -11h-10q-40 0 -39 11l98 698q1 7 10.5 9t37.5 2h5zM252 803q-5 8 -7 15.5t3 12.5
q17 19 42 33t54 14q23 0 38 -6q16 -6 28 -12l24 -13q12 -6 30 -6q13 0 25 7.5t22 16.5q5 4 10.5 3t13.5 -12l6 -8q7 -10 8 -16.5t-4 -13.5q-15 -20 -39 -36t-53 -16q-20 0 -34.5 6t-27.5 12.5t-27 12.5t-32 6q-15 0 -26.5 -6.5t-22.5 -17.5q-4 -4 -11 0t-14 15z" />
    <glyph glyph-name="Ograve" unicode="&#xd2;" horiz-adv-x="683" 
d="M376 650q-55 0 -100 -28t-76.5 -76.5t-49 -113t-17.5 -137.5q0 -111 43.5 -168t131.5 -57q56 0 101 28.5t76.5 77.5t48 113.5t16.5 135.5q0 112 -43.5 168.5t-130.5 56.5zM391 730q118 0 187 -73t69 -222q0 -92 -25 -173t-71.5 -141.5t-111.5 -95.5t-145 -35
q-59 0 -107 18t-81.5 54.5t-51.5 91.5t-18 130q0 93 25.5 174t72 141.5t112 95.5t145.5 35zM371 914q21 0 31.5 -1.5t13.5 -9.5l53 -128q2 -5 -4 -8.5t-29 -3.5h-8q-18 0 -24 2.5t-9 6.5l-75 128q-2 5 5 9.5t35 4.5h11z" />
    <glyph glyph-name="Oacute" unicode="&#xd3;" horiz-adv-x="683" 
d="M376 650q-55 0 -100 -28t-76.5 -76.5t-49 -113t-17.5 -137.5q0 -111 43.5 -168t131.5 -57q56 0 101 28.5t76.5 77.5t48 113.5t16.5 135.5q0 112 -43.5 168.5t-130.5 56.5zM391 730q118 0 187 -73t69 -222q0 -92 -25 -173t-71.5 -141.5t-111.5 -95.5t-145 -35
q-59 0 -107 18t-81.5 54.5t-51.5 91.5t-18 130q0 93 25.5 174t72 141.5t112 95.5t145.5 35zM489 914q28 0 35 -4.5t2 -9.5l-111 -128q-4 -4 -11 -6.5t-25 -2.5h-12q-23 0 -27 3.5t0 8.5l90 128q5 6 14 8.5t30 2.5h15z" />
    <glyph glyph-name="Ocircumflex" unicode="&#xd4;" horiz-adv-x="683" 
d="M376 650q-55 0 -100 -28t-76.5 -76.5t-49 -113t-17.5 -137.5q0 -111 43.5 -168t131.5 -57q56 0 101 28.5t76.5 77.5t48 113.5t16.5 135.5q0 112 -43.5 168.5t-130.5 56.5zM391 730q118 0 187 -73t69 -222q0 -92 -25 -173t-71.5 -141.5t-111.5 -95.5t-145 -35
q-59 0 -107 18t-81.5 54.5t-51.5 91.5t-18 130q0 93 25.5 174t72 141.5t112 95.5t145.5 35zM351 896q6 6 15.5 9.5t29.5 3.5h37q21 0 29.5 -4.5t12.5 -9.5l76 -97q6 -8 -12 -26l-7 -7q-10 -10 -18 -13t-11 0l-94 96l-122 -94q-3 -3 -8.5 -1.5t-13.5 12.5l-7 9
q-8 11 -9.5 16.5t3.5 10.5z" />
    <glyph glyph-name="Otilde" unicode="&#xd5;" horiz-adv-x="683" 
d="M376 650q-55 0 -100 -28t-76.5 -76.5t-49 -113t-17.5 -137.5q0 -111 43.5 -168t131.5 -57q56 0 101 28.5t76.5 77.5t48 113.5t16.5 135.5q0 112 -43.5 168.5t-130.5 56.5zM391 730q118 0 187 -73t69 -222q0 -92 -25 -173t-71.5 -141.5t-111.5 -95.5t-145 -35
q-59 0 -107 18t-81.5 54.5t-51.5 91.5t-18 130q0 93 25.5 174t72 141.5t112 95.5t145.5 35zM261 803q-5 8 -7 15.5t3 12.5q17 19 42 33t54 14q23 0 38 -6q16 -6 28 -12l24 -13q12 -6 30 -6q13 0 25 7.5t22 16.5q5 4 10.5 3t13.5 -12l6 -8q7 -10 8 -16.5t-4 -13.5
q-15 -20 -39 -36t-53 -16q-20 0 -34.5 6t-27.5 12.5t-27 12.5t-32 6q-15 0 -26.5 -6.5t-22.5 -17.5q-4 -4 -11 0t-14 15z" />
    <glyph glyph-name="Odieresis" unicode="&#xd6;" horiz-adv-x="683" 
d="M376 650q-55 0 -100 -28t-76.5 -76.5t-49 -113t-17.5 -137.5q0 -111 43.5 -168t131.5 -57q56 0 101 28.5t76.5 77.5t48 113.5t16.5 135.5q0 112 -43.5 168.5t-130.5 56.5zM391 730q118 0 187 -73t69 -222q0 -92 -25 -173t-71.5 -141.5t-111.5 -95.5t-145 -35
q-59 0 -107 18t-81.5 54.5t-51.5 91.5t-18 130q0 93 25.5 174t72 141.5t112 95.5t145.5 35zM294 876q23 0 37.5 -15t14.5 -37t-15.5 -42t-44.5 -20q-23 0 -37.5 15t-14.5 36q0 23 16 43t44 20zM522 876q23 0 37.5 -15t14.5 -37t-15.5 -42t-44.5 -20q-23 0 -37.5 15t-14.5 36
q0 23 16 43t44 20z" />
    <glyph glyph-name="multiply" unicode="&#xd7;" 
d="M104 607q15 14 22 16t10 -2l161 -200l216 199q5 4 11 1.5t17 -15.5l10 -11q9 -11 11 -17t-2 -10l-218 -200l163 -201q3 -4 0 -10t-17 -18l-8 -7q-11 -11 -20 -15.5t-13 0.5l-163 200l-222 -204q-5 -4 -10.5 -1.5t-16.5 15.5l-11 12q-11 11 -12.5 16.5t3.5 10.5l225 204
l-163 199q-3 4 0 10t17 19z" />
    <glyph glyph-name="Oslash" unicode="&#xd8;" horiz-adv-x="703" 
d="M627 754q9 11 32 -7l20 -17q19 -16 12 -25l-73 -86q20 -35 31 -81t11 -103q0 -92 -25 -173t-71.5 -141.5t-111.5 -95.5t-145 -35q-53 0 -96.5 14t-76.5 43l-66 -81q-4 -5 -11 -4.5t-18 9.5l-20 17q-8 7 -13 15t0 13l79 94q-17 34 -26.5 77t-9.5 97q0 93 25.5 174
t72 141.5t112 95.5t145.5 35q99 0 162 -51zM193 123q44 -53 128 -53q56 0 101 28.5t76.5 77.5t48 113.5t16.5 135.5q0 66 -17 115zM509 605q-44 45 -120 45q-55 0 -100 -28t-76.5 -76.5t-49 -113t-17.5 -137.5q0 -62 13 -104z" />
    <glyph glyph-name="Ugrave" unicode="&#xd9;" horiz-adv-x="664" 
d="M176 720q42 0 41 -11l-62 -438q-2 -12 -3 -25.5t-1 -25.5q0 -33 7.5 -60.5t25 -47.5t46 -31.5t69.5 -11.5q81 0 129 48.5t62 152.5l62 439q1 11 42 11h11q41 0 40 -11l-60 -427q-21 -151 -93 -221.5t-203 -70.5q-233 0 -233 212q0 14 1.5 29.5t3.5 32.5l63 445
q1 11 42 11h10zM339 914q21 0 31.5 -1.5t13.5 -9.5l53 -128q2 -5 -4 -8.5t-29 -3.5h-8q-18 0 -24 2.5t-9 6.5l-75 128q-2 5 5 9.5t35 4.5h11z" />
    <glyph glyph-name="Uacute" unicode="&#xda;" horiz-adv-x="664" 
d="M176 720q42 0 41 -11l-62 -438q-2 -12 -3 -25.5t-1 -25.5q0 -33 7.5 -60.5t25 -47.5t46 -31.5t69.5 -11.5q81 0 129 48.5t62 152.5l62 439q1 11 42 11h11q41 0 40 -11l-60 -427q-21 -151 -93 -221.5t-203 -70.5q-233 0 -233 212q0 14 1.5 29.5t3.5 32.5l63 445
q1 11 42 11h10zM487 914q28 0 35 -4.5t2 -9.5l-111 -128q-4 -4 -11 -6.5t-25 -2.5h-12q-23 0 -27 3.5t0 8.5l90 128q5 6 14 8.5t30 2.5h15z" />
    <glyph glyph-name="Ucircumflex" unicode="&#xdb;" horiz-adv-x="664" 
d="M176 720q42 0 41 -11l-62 -438q-2 -12 -3 -25.5t-1 -25.5q0 -33 7.5 -60.5t25 -47.5t46 -31.5t69.5 -11.5q81 0 129 48.5t62 152.5l62 439q1 11 42 11h11q41 0 40 -11l-60 -427q-21 -151 -93 -221.5t-203 -70.5q-233 0 -233 212q0 14 1.5 29.5t3.5 32.5l63 445
q1 11 42 11h10zM346 896q6 6 15.5 9.5t29.5 3.5h37q21 0 29.5 -4.5t12.5 -9.5l76 -97q6 -8 -12 -26l-7 -7q-10 -10 -18 -13t-11 0l-94 96l-122 -94q-3 -3 -8.5 -1.5t-13.5 12.5l-7 9q-8 11 -9.5 16.5t3.5 10.5z" />
    <glyph glyph-name="Udieresis" unicode="&#xdc;" horiz-adv-x="664" 
d="M176 720q42 0 41 -11l-62 -438q-2 -12 -3 -25.5t-1 -25.5q0 -33 7.5 -60.5t25 -47.5t46 -31.5t69.5 -11.5q81 0 129 48.5t62 152.5l62 439q1 11 42 11h11q41 0 40 -11l-60 -427q-21 -151 -93 -221.5t-203 -70.5q-233 0 -233 212q0 14 1.5 29.5t3.5 32.5l63 445
q1 11 42 11h10zM285 869q23 0 37.5 -15t14.5 -37t-15.5 -42t-44.5 -20q-23 0 -37.5 15t-14.5 36q0 23 16 43t44 20zM513 869q23 0 37.5 -15t14.5 -37t-15.5 -42t-44.5 -20q-23 0 -37.5 15t-14.5 36q0 23 16 43t44 20z" />
    <glyph glyph-name="Yacute" unicode="&#xdd;" horiz-adv-x="532" 
d="M121 720q19 0 31 -2.5t14 -8.5l107 -337l200 337q4 6 16.5 8.5t30.5 2.5h15q20 0 31 -3q9 -2 9 -6q0 -1 -1 -3l-269 -429l-38 -268q-1 -11 -43 -11h-11q-40 0 -39 11l38 268l-148 429q-2 6 11 9t34 3h12zM414 924q28 0 35 -4.5t2 -9.5l-111 -128q-4 -4 -11 -6.5t-25 -2.5
h-12q-23 0 -27 3.5t0 8.5l90 128q5 6 14 8.5t30 2.5h15z" />
    <glyph glyph-name="Thorn" unicode="&#xde;" horiz-adv-x="528" 
d="M182 720q23 0 32 -2.5t8 -8.5l-20 -142q32 7 72 7q51 0 95 -8.5t76 -28.5t50.5 -53.5t18.5 -84.5q0 -41 -13 -83.5t-44 -76.5t-81 -55.5t-123 -21.5q-11 0 -25 0.5t-29 1.5t-29 2.5t-24 3.5l-22 -159q-1 -11 -41 -11h-10q-43 0 -42 11l98 698q1 6 10.5 8.5t32.5 2.5h10z
M157 245q9 -2 22 -3q13 -2 27 -2h28q14 0 23 -1q81 0 121 41.5t40 107.5q0 37 -14.5 59t-37 32.5t-49.5 13.5t-52 3q-17 0 -36.5 -1.5t-36.5 -3.5z" />
    <glyph glyph-name="germandbls" unicode="&#xdf;" horiz-adv-x="594" 
d="M125 12q0 -3 -1 -5t-5 -3.5t-12 -2.5t-23 -1h-6q-30 0 -36 3t-5 9l71 501q18 130 72.5 193.5t151.5 63.5q30 0 59.5 -6.5t53 -22t38.5 -41t15 -62.5q0 -48 -20 -80q-18 -30 -42 -54l-44 -44q-20 -20 -19 -48q0 -17 6 -29.5t15 -21t20.5 -14.5t23.5 -10q21 -9 41 -19
t36.5 -26.5t26.5 -41t10 -61.5q0 -47 -16 -84t-44.5 -62.5t-67 -39t-83.5 -13.5q-38 0 -77.5 8.5t-61.5 23.5q-12 8 6 40l7 13q8 15 14 19.5t14 -0.5q9 -5 21.5 -10t27.5 -9t30 -6t28 -2q20 0 40.5 5.5t37 18t27 32t10.5 47.5q0 22 -6.5 37t-17.5 25.5t-24.5 16.5t-26.5 11
q-19 7 -38 16.5t-34 24.5t-24.5 37t-9.5 52q0 51 20 82t44 54t44 44t20 52q0 35 -21.5 55t-65.5 20q-60 0 -88.5 -48t-39.5 -128z" />
    <glyph glyph-name="agrave" unicode="&#xe0;" horiz-adv-x="556" 
d="M487 528q26 0 31 -3t5 -7q0 -7 -9 -63q-7 -43 -14 -91l-20 -140q-10 -69 -14 -120l-9 -92q-1 -6 -7 -9t-29 -3h-4q-23 0 -29.5 2.5t-6.5 9.5l1 48q-27 -30 -67 -50t-91 -20q-47 0 -81 17t-56 46t-32.5 69t-10.5 87q0 58 17 116.5t51 105.5t83.5 77t114.5 30
q45 0 77 -18.5t50 -45.5l11 42q2 8 8.5 10t26.5 2h4zM415 389q-14 27 -42.5 48t-63.5 21q-45 0 -77.5 -22t-53.5 -56t-31 -75.5t-10 -81.5q0 -31 6 -59t19 -49t34.5 -33.5t53.5 -12.5q23 0 50 9t50 32q9 9 15 19t11.5 25.5t9.5 38t9 54.5zM280 732q40 0 45 -11l53 -128
q2 -5 -4 -8.5t-29 -3.5h-8q-18 0 -24 2.5t-9 6.5l-75 128q-2 5 5 9.5t35 4.5h11z" />
    <glyph glyph-name="aacute" unicode="&#xe1;" horiz-adv-x="556" 
d="M487 528q26 0 31 -3t5 -7q0 -7 -9 -63q-7 -43 -14 -91l-20 -140q-10 -69 -14 -120l-9 -92q-1 -6 -7 -9t-29 -3h-4q-23 0 -29.5 2.5t-6.5 9.5l1 48q-27 -30 -67 -50t-91 -20q-47 0 -81 17t-56 46t-32.5 69t-10.5 87q0 58 17 116.5t51 105.5t83.5 77t114.5 30
q45 0 77 -18.5t50 -45.5l11 42q2 8 8.5 10t26.5 2h4zM415 389q-14 27 -42.5 48t-63.5 21q-45 0 -77.5 -22t-53.5 -56t-31 -75.5t-10 -81.5q0 -31 6 -59t19 -49t34.5 -33.5t53.5 -12.5q23 0 50 9t50 32q9 9 15 19t11.5 25.5t9.5 38t9 54.5zM420 732q28 0 35 -4.5t2 -9.5
l-111 -128q-4 -4 -11 -6.5t-25 -2.5h-12q-23 0 -27 3.5t0 8.5l90 128q4 5 13.5 8t30.5 3h15z" />
    <glyph glyph-name="acircumflex" unicode="&#xe2;" horiz-adv-x="556" 
d="M487 528q26 0 31 -3t5 -7q0 -7 -9 -63q-7 -43 -14 -91l-20 -140q-10 -69 -14 -120l-9 -92q-1 -6 -7 -9t-29 -3h-4q-23 0 -29.5 2.5t-6.5 9.5l1 48q-27 -30 -67 -50t-91 -20q-47 0 -81 17t-56 46t-32.5 69t-10.5 87q0 58 17 116.5t51 105.5t83.5 77t114.5 30
q45 0 77 -18.5t50 -45.5l11 42q2 8 8.5 10t26.5 2h4zM415 389q-14 27 -42.5 48t-63.5 21q-45 0 -77.5 -22t-53.5 -56t-31 -75.5t-10 -81.5q0 -31 6 -59t19 -49t34.5 -33.5t53.5 -12.5q23 0 50 9t50 32q9 9 15 19t11.5 25.5t9.5 38t9 54.5zM270 724q6 6 15.5 9.5t29.5 3.5h37
q21 0 29.5 -4.5t12.5 -9.5l76 -97q6 -8 -12 -26l-7 -7q-10 -10 -18 -13t-11 0l-94 96l-122 -94q-3 -3 -8.5 -1.5t-13.5 12.5l-7 9q-8 11 -9.5 16.5t3.5 10.5z" />
    <glyph glyph-name="atilde" unicode="&#xe3;" horiz-adv-x="556" 
d="M487 528q26 0 31 -3t5 -7q0 -7 -9 -63q-7 -43 -14 -91l-20 -140q-10 -69 -14 -120l-9 -92q-1 -6 -7 -9t-29 -3h-4q-23 0 -29.5 2.5t-6.5 9.5l1 48q-27 -30 -67 -50t-91 -20q-47 0 -81 17t-56 46t-32.5 69t-10.5 87q0 58 17 116.5t51 105.5t83.5 77t114.5 30
q45 0 77 -18.5t50 -45.5l11 42q2 8 8.5 10t26.5 2h4zM415 389q-14 27 -42.5 48t-63.5 21q-45 0 -77.5 -22t-53.5 -56t-31 -75.5t-10 -81.5q0 -31 6 -59t19 -49t34.5 -33.5t53.5 -12.5q23 0 50 9t50 32q9 9 15 19t11.5 25.5t9.5 38t9 54.5zM179 645q-5 8 -7 15.5t3 12.5
q17 19 42 33t54 14q23 0 38 -6t27 -12l25 -13q12 -6 30 -6q13 0 25 7.5t22 16.5q5 4 10.5 3t13.5 -12l6 -8q7 -10 8 -16.5t-4 -13.5q-15 -20 -39 -36t-53 -16q-20 0 -34.5 6t-27.5 12.5t-27 12.5t-32 6q-15 0 -26.5 -6.5t-22.5 -17.5q-4 -4 -11 0t-14 15z" />
    <glyph glyph-name="adieresis" unicode="&#xe4;" horiz-adv-x="556" 
d="M487 528q26 0 31 -3t5 -7q0 -7 -9 -63q-7 -43 -14 -91l-20 -140q-10 -69 -14 -120l-9 -92q-1 -6 -7 -9t-29 -3h-4q-23 0 -29.5 2.5t-6.5 9.5l1 48q-27 -30 -67 -50t-91 -20q-47 0 -81 17t-56 46t-32.5 69t-10.5 87q0 58 17 116.5t51 105.5t83.5 77t114.5 30
q45 0 77 -18.5t50 -45.5l11 42q2 8 8.5 10t26.5 2h4zM415 389q-14 27 -42.5 48t-63.5 21q-45 0 -77.5 -22t-53.5 -56t-31 -75.5t-10 -81.5q0 -31 6 -59t19 -49t34.5 -33.5t53.5 -12.5q23 0 50 9t50 32q9 9 15 19t11.5 25.5t9.5 38t9 54.5zM204 712q23 0 37.5 -15t14.5 -37
t-15.5 -42t-44.5 -20q-23 0 -37.5 15t-14.5 36q0 23 16 43t44 20zM432 712q23 0 37.5 -15t14.5 -37t-15.5 -42t-44.5 -20q-23 0 -37.5 15t-14.5 36q0 23 16 43t44 20z" />
    <glyph glyph-name="aring" unicode="&#xe5;" horiz-adv-x="556" 
d="M231 660q0 20 8.5 38t23 31.5t32.5 21t38 7.5q36 0 60.5 -23.5t24.5 -58.5q0 -20 -8.5 -38t-22.5 -31.5t-32.5 -21t-37.5 -7.5q-36 0 -61 23.5t-25 58.5zM327 710q-17 0 -30.5 -12.5t-13.5 -32.5q0 -17 11 -28t27 -11q18 0 31.5 13.5t13.5 31.5q0 17 -11 28t-28 11z
M487 528q26 0 31 -3t5 -7q0 -7 -9 -63q-7 -43 -14 -91l-20 -140q-10 -69 -14 -120l-9 -92q-1 -6 -7 -9t-29 -3h-4q-23 0 -29.5 2.5t-6.5 9.5l1 48q-27 -30 -67 -50t-91 -20q-47 0 -81 17t-56 46t-32.5 69t-10.5 87q0 58 17 116.5t51 105.5t83.5 77t114.5 30q45 0 77 -18.5
t50 -45.5l11 42q2 8 8.5 10t26.5 2h4zM415 389q-14 27 -42.5 48t-63.5 21q-45 0 -77.5 -22t-53.5 -56t-31 -75.5t-10 -81.5q0 -31 6 -59t19 -49t34.5 -33.5t53.5 -12.5q23 0 50 9t50 32q9 9 15 19t11.5 25.5t9.5 38t9 54.5z" />
    <glyph glyph-name="ae" unicode="&#xe6;" horiz-adv-x="840" 
d="M110 467q-5 17 -4.5 24.5t6.5 10.5q17 9 38 15.5t43.5 11t44.5 7t41 2.5q70 0 110 -20.5t57 -58.5q32 35 76 57t101 22q44 0 78 -15t56.5 -42t34 -64t11.5 -81q0 -17 -1.5 -34t-3.5 -34q-3 -23 -6 -29.5t-9 -6.5h-335q-1 -6 -1 -12v-12q0 -71 36.5 -104t106.5 -33
q56 0 124 32q7 3 11.5 0.5t10.5 -20.5l4 -12q6 -19 4.5 -25.5t-6.5 -9.5q-38 -22 -83 -34t-92 -12q-66 0 -109.5 21t-68.5 62q-16 -15 -35 -30t-42.5 -26.5t-51.5 -19t-63 -7.5q-33 0 -63.5 9.5t-53.5 28t-36.5 46.5t-13.5 65q0 44 16.5 80t46.5 61t71.5 38.5t90.5 13.5
q32 0 63 -6t54 -15q3 14 4.5 30t1.5 26q0 49 -26.5 70t-85.5 21q-28 0 -61.5 -5.5t-69.5 -19.5q-5 -2 -9.5 3t-9.5 23zM363 129q-5 17 -6.5 35.5t-1.5 38.5v18q0 9 1 19q-21 8 -50.5 13.5t-61.5 5.5q-26 0 -49 -6.5t-40.5 -19.5t-27.5 -33t-10 -46q0 -41 28 -63t75 -22
t84.5 19t58.5 41zM714 306q1 7 1.5 14t0.5 14q0 24 -5.5 47t-18 40t-32 27.5t-47.5 10.5q-50 0 -90.5 -37.5t-60.5 -115.5h252z" />
    <glyph glyph-name="ccedilla" unicode="&#xe7;" horiz-adv-x="477" 
d="M195 -7q-81 13 -120 72t-39 144q0 58 17 117t51.5 106t85.5 76.5t120 29.5q45 0 88.5 -12t71.5 -35q11 -9 -12 -45q-12 -19 -19.5 -24.5t-13.5 -0.5q-59 37 -124 37q-42 0 -74 -21t-53.5 -54t-32.5 -74.5t-11 -83.5q0 -31 7 -59t23 -49t40.5 -33.5t60.5 -12.5
q31 0 62 8.5t61 22.5q7 3 12.5 -1.5t11.5 -23.5l2 -6q11 -32 0 -37q-69 -37 -144 -43l-7 -32q3 1 7 1h6q35 0 58.5 -19.5t23.5 -57.5q0 -20 -8.5 -39t-25 -33.5t-41.5 -23.5t-59 -9q-20 0 -38.5 3t-31.5 8q-7 3 0 23l6 16q8 21 16 18q12 -4 26 -5.5t25 -1.5q22 0 36.5 9
t14.5 26q0 16 -9.5 21.5t-30.5 5.5q-16 0 -33.5 -0.5t-30.5 -2.5z" />
    <glyph glyph-name="egrave" unicode="&#xe8;" horiz-adv-x="533" 
d="M132 232q-1 -7 -1 -12v-12q0 -71 38 -104t110 -33q30 0 60.5 8t68.5 25q2 1 4 1q9 0 17 -22l4 -11q7 -18 5.5 -25.5t-7.5 -10.5q-81 -46 -179 -46q-109 0 -161 56t-52 157q0 56 16.5 115.5t49.5 108t83.5 80t119.5 31.5q47 0 82.5 -15t59 -41.5t35.5 -63.5t12 -82
q0 -17 -2 -35l-4 -35q-3 -23 -6 -28.5t-9 -5.5h-344zM408 306q1 7 1.5 14t0.5 14q0 24 -6 46.5t-19.5 40t-35 27.5t-51.5 10q-51 0 -91.5 -37t-60.5 -115h262zM275 732q40 0 45 -11l53 -128q2 -5 -4 -8.5t-29 -3.5h-8q-18 0 -24 2.5t-9 6.5l-75 128q-2 5 5 9.5t35 4.5h11z
" />
    <glyph glyph-name="eacute" unicode="&#xe9;" horiz-adv-x="533" 
d="M132 232q-1 -7 -1 -12v-12q0 -71 38 -104t110 -33q30 0 60.5 8t68.5 25q2 1 4 1q9 0 17 -22l4 -11q7 -18 5.5 -25.5t-7.5 -10.5q-81 -46 -179 -46q-109 0 -161 56t-52 157q0 56 16.5 115.5t49.5 108t83.5 80t119.5 31.5q47 0 82.5 -15t59 -41.5t35.5 -63.5t12 -82
q0 -17 -2 -35l-4 -35q-3 -23 -6 -28.5t-9 -5.5h-344zM408 306q1 7 1.5 14t0.5 14q0 24 -6 46.5t-19.5 40t-35 27.5t-51.5 10q-51 0 -91.5 -37t-60.5 -115h262zM419 732q28 0 35 -4.5t2 -9.5l-111 -128q-4 -4 -11 -6.5t-25 -2.5h-12q-23 0 -27 3.5t0 8.5l90 128q4 5 13.5 8
t30.5 3h15z" />
    <glyph glyph-name="ecircumflex" unicode="&#xea;" horiz-adv-x="533" 
d="M132 232q-1 -7 -1 -12v-12q0 -71 38 -104t110 -33q30 0 60.5 8t68.5 25q2 1 4 1q9 0 17 -22l4 -11q7 -18 5.5 -25.5t-7.5 -10.5q-81 -46 -179 -46q-109 0 -161 56t-52 157q0 56 16.5 115.5t49.5 108t83.5 80t119.5 31.5q47 0 82.5 -15t59 -41.5t35.5 -63.5t12 -82
q0 -17 -2 -35l-4 -35q-3 -23 -6 -28.5t-9 -5.5h-344zM408 306q1 7 1.5 14t0.5 14q0 24 -6 46.5t-19.5 40t-35 27.5t-51.5 10q-51 0 -91.5 -37t-60.5 -115h262zM268 724q6 6 15.5 9.5t29.5 3.5h37q21 0 29.5 -4.5t12.5 -9.5l76 -97q6 -8 -12 -26l-7 -7q-10 -10 -18 -13t-11 0
l-94 96l-122 -94q-3 -3 -8.5 -1.5t-13.5 12.5l-7 9q-8 11 -9.5 16.5t3.5 10.5z" />
    <glyph glyph-name="edieresis" unicode="&#xeb;" horiz-adv-x="533" 
d="M132 232q-1 -7 -1 -12v-12q0 -71 38 -104t110 -33q30 0 60.5 8t68.5 25q2 1 4 1q9 0 17 -22l4 -11q7 -18 5.5 -25.5t-7.5 -10.5q-81 -46 -179 -46q-109 0 -161 56t-52 157q0 56 16.5 115.5t49.5 108t83.5 80t119.5 31.5q47 0 82.5 -15t59 -41.5t35.5 -63.5t12 -82
q0 -17 -2 -35l-4 -35q-3 -23 -6 -28.5t-9 -5.5h-344zM408 306q1 7 1.5 14t0.5 14q0 24 -6 46.5t-19.5 40t-35 27.5t-51.5 10q-51 0 -91.5 -37t-60.5 -115h262zM216 712q23 0 37.5 -15t14.5 -37t-15.5 -42t-44.5 -20q-23 0 -37.5 15t-14.5 36q0 23 16 43t44 20zM444 712
q23 0 37.5 -15t14.5 -37t-15.5 -42t-44.5 -20q-23 0 -37.5 15t-14.5 36q0 23 16 43t44 20z" />
    <glyph glyph-name="igrave" unicode="&#xec;" horiz-adv-x="235" 
d="M164 528q29 0 34 -3.5t4 -8.5l-71 -504q0 -3 -1 -5t-5 -3.5t-12 -2.5t-23 -1h-6q-30 0 -36.5 3t-5.5 9l71 504q1 6 8 9t37 3h6zM110 732q40 0 45 -11l53 -128q2 -5 -4 -8.5t-29 -3.5h-8q-18 0 -24 2.5t-9 6.5l-75 128q-2 5 5 9.5t35 4.5h11z" />
    <glyph glyph-name="iacute" unicode="&#xed;" horiz-adv-x="235" 
d="M164 528q29 0 34 -3.5t4 -8.5l-71 -504q0 -3 -1 -5t-5 -3.5t-12 -2.5t-23 -1h-6q-30 0 -36.5 3t-5.5 9l71 504q1 6 8 9t37 3h6zM270 732q28 0 35 -4.5t2 -9.5l-111 -128q-4 -4 -11 -6.5t-25 -2.5h-12q-23 0 -27 3.5t0 8.5l90 128q4 5 13.5 8t30.5 3h15z" />
    <glyph glyph-name="icircumflex" unicode="&#xee;" horiz-adv-x="235" 
d="M164 528q29 0 34 -3.5t4 -8.5l-71 -504q0 -3 -1 -5t-5 -3.5t-12 -2.5t-23 -1h-6q-30 0 -36.5 3t-5.5 9l71 504q1 6 8 9t37 3h6zM117 724q6 6 15.5 9.5t29.5 3.5h37q21 0 29.5 -4.5t12.5 -9.5l76 -97q6 -8 -12 -26l-7 -7q-10 -10 -18 -13t-11 0l-94 96l-122 -94
q-3 -3 -8.5 -1.5t-13.5 12.5l-7 9q-8 11 -9.5 16.5t3.5 10.5z" />
    <glyph glyph-name="idieresis" unicode="&#xef;" horiz-adv-x="235" 
d="M164 528q29 0 34 -3.5t4 -8.5l-71 -504q0 -3 -1 -5t-5 -3.5t-12 -2.5t-23 -1h-6q-30 0 -36.5 3t-5.5 9l71 504q1 6 8 9t37 3h6zM61 712q23 0 37.5 -15t14.5 -37t-15.5 -42t-44.5 -20q-23 0 -37.5 15t-14.5 36q0 23 16 43t44 20zM289 712q23 0 37.5 -15t14.5 -37
t-15.5 -42t-44.5 -20q-23 0 -37.5 15t-14.5 36q0 23 16 43t44 20z" />
    <glyph glyph-name="eth" unicode="&#xf0;" horiz-adv-x="548" 
d="M191 744q11 17 17 20t11 1q31 -14 60 -30t56 -34h1l129 59q5 2 8 -1.5t8 -17.5l5 -13q5 -13 4 -19t-5 -8l-92 -44q57 -51 91.5 -123t34.5 -176q0 -62 -14.5 -127t-46.5 -118.5t-84 -88t-128 -34.5q-95 0 -151 57t-56 166q0 66 21 121.5t57 96t83 63t98 22.5
q30 0 59.5 -7.5t50.5 -21.5q-11 31 -33.5 63t-64.5 66l-135 -61q-8 -3 -16 19l-6 16q-5 12 -4 17.5t5 7.5l96 45q-16 11 -34 21l-39 21q-4 2 -2 11.5t12 24.5zM428 395q-12 9 -28 16.5t-34 13t-36.5 8.5t-34.5 3q-47 0 -78 -21.5t-49.5 -54t-26.5 -70t-8 -70.5
q0 -69 31.5 -109.5t91.5 -40.5q56 0 90 33t52 82t24 105.5t6 104.5z" />
    <glyph glyph-name="ntilde" unicode="&#xf1;" horiz-adv-x="573" 
d="M160 528q26 0 32.5 -3t5.5 -9l-5 -45h1q15 15 34.5 27.5t41.5 21.5t45.5 13.5t46.5 4.5q76 0 117.5 -42t41.5 -117q0 -14 -1.5 -29.5t-3.5 -33.5l-43 -304q0 -3 -1 -5t-5 -3.5t-12 -2.5t-23 -1h-6q-30 0 -36.5 3t-5.5 9l37 261q9 58 9 92q0 48 -26 68.5t-77 20.5
q-27 0 -58 -10t-51 -27q-10 -8 -19 -23.5t-17 -47.5q-5 -21 -10.5 -57t-11.5 -80l-28 -197q0 -3 -1 -5t-5 -3.5t-12.5 -2.5t-23.5 -1h-5q-30 0 -36.5 3t-5.5 9l48 341q4 25 7 50.5t6 47t5 39.5l3 26q1 6 7.5 9t35.5 3h5zM216 645q-5 8 -7 15.5t3 12.5q17 19 42 33t54 14
q23 0 38 -6t27 -12l25 -13q12 -6 30 -6q13 0 25 7.5t22 16.5q5 4 10.5 3t13.5 -12l6 -8q7 -10 8 -16.5t-4 -13.5q-15 -20 -39 -36t-53 -16q-20 0 -34.5 6t-27.5 12.5t-27 12.5t-32 6q-15 0 -26.5 -6.5t-22.5 -17.5q-4 -4 -11 0t-14 15z" />
    <glyph glyph-name="ograve" unicode="&#xf2;" horiz-adv-x="557" 
d="M316 538q104 0 153.5 -58t49.5 -163q0 -72 -20.5 -132t-57.5 -103.5t-88.5 -67.5t-112.5 -24q-105 0 -153.5 58t-48.5 161q0 73 21 133.5t58.5 104t88 67.5t110.5 24zM302 458q-35 0 -66.5 -17t-54.5 -47.5t-36.5 -74.5t-13.5 -98q0 -30 6 -57.5t20 -48.5t37.5 -33
t59.5 -12t67 17t54 48t36 74.5t13 97.5q0 30 -5.5 57.5t-19.5 48t-37.5 33t-59.5 12.5zM293 732q40 0 45 -11l53 -128q2 -5 -4 -8.5t-29 -3.5h-8q-18 0 -24 2.5t-9 6.5l-75 128q-2 5 5 9.5t35 4.5h11z" />
    <glyph glyph-name="oacute" unicode="&#xf3;" horiz-adv-x="557" 
d="M316 538q104 0 153.5 -58t49.5 -163q0 -72 -20.5 -132t-57.5 -103.5t-88.5 -67.5t-112.5 -24q-105 0 -153.5 58t-48.5 161q0 73 21 133.5t58.5 104t88 67.5t110.5 24zM302 458q-35 0 -66.5 -17t-54.5 -47.5t-36.5 -74.5t-13.5 -98q0 -30 6 -57.5t20 -48.5t37.5 -33
t59.5 -12t67 17t54 48t36 74.5t13 97.5q0 30 -5.5 57.5t-19.5 48t-37.5 33t-59.5 12.5zM416 732q28 0 35 -4.5t2 -9.5l-111 -128q-4 -4 -11 -6.5t-25 -2.5h-12q-23 0 -27 3.5t0 8.5l90 128q4 5 13.5 8t30.5 3h15z" />
    <glyph glyph-name="ocircumflex" unicode="&#xf4;" horiz-adv-x="557" 
d="M316 538q104 0 153.5 -58t49.5 -163q0 -72 -20.5 -132t-57.5 -103.5t-88.5 -67.5t-112.5 -24q-105 0 -153.5 58t-48.5 161q0 73 21 133.5t58.5 104t88 67.5t110.5 24zM302 458q-35 0 -66.5 -17t-54.5 -47.5t-36.5 -74.5t-13.5 -98q0 -30 6 -57.5t20 -48.5t37.5 -33
t59.5 -12t67 17t54 48t36 74.5t13 97.5q0 30 -5.5 57.5t-19.5 48t-37.5 33t-59.5 12.5zM274 724q6 6 15.5 9.5t29.5 3.5h37q21 0 29.5 -4.5t12.5 -9.5l76 -97q6 -8 -12 -26l-7 -7q-10 -10 -18 -13t-11 0l-94 96l-122 -94q-3 -3 -8.5 -1.5t-13.5 12.5l-7 9q-8 11 -9.5 16.5
t3.5 10.5z" />
    <glyph glyph-name="otilde" unicode="&#xf5;" horiz-adv-x="557" 
d="M316 538q104 0 153.5 -58t49.5 -163q0 -72 -20.5 -132t-57.5 -103.5t-88.5 -67.5t-112.5 -24q-105 0 -153.5 58t-48.5 161q0 73 21 133.5t58.5 104t88 67.5t110.5 24zM302 458q-35 0 -66.5 -17t-54.5 -47.5t-36.5 -74.5t-13.5 -98q0 -30 6 -57.5t20 -48.5t37.5 -33
t59.5 -12t67 17t54 48t36 74.5t13 97.5q0 30 -5.5 57.5t-19.5 48t-37.5 33t-59.5 12.5zM187 645q-5 8 -7 15.5t3 12.5q17 19 42 33t54 14q23 0 38 -6t27 -12l25 -13q12 -6 30 -6q13 0 25 7.5t22 16.5q5 4 10.5 3t13.5 -12l6 -8q7 -10 8 -16.5t-4 -13.5q-15 -20 -39 -36
t-53 -16q-20 0 -34.5 6t-27.5 12.5t-27 12.5t-32 6q-15 0 -26.5 -6.5t-22.5 -17.5q-4 -4 -11 0t-14 15z" />
    <glyph glyph-name="odieresis" unicode="&#xf6;" horiz-adv-x="557" 
d="M316 538q104 0 153.5 -58t49.5 -163q0 -72 -20.5 -132t-57.5 -103.5t-88.5 -67.5t-112.5 -24q-105 0 -153.5 58t-48.5 161q0 73 21 133.5t58.5 104t88 67.5t110.5 24zM302 458q-35 0 -66.5 -17t-54.5 -47.5t-36.5 -74.5t-13.5 -98q0 -30 6 -57.5t20 -48.5t37.5 -33
t59.5 -12t67 17t54 48t36 74.5t13 97.5q0 30 -5.5 57.5t-19.5 48t-37.5 33t-59.5 12.5zM221 712q23 0 37.5 -15t14.5 -37t-15.5 -42t-44.5 -20q-23 0 -37.5 15t-14.5 36q0 23 16 43t44 20zM449 712q23 0 37.5 -15t14.5 -37t-15.5 -42t-44.5 -20q-23 0 -37.5 15t-14.5 36
q0 23 16 43t44 20z" />
    <glyph glyph-name="divide" unicode="&#xf7;" 
d="M529 397q10 0 4 -29l-2 -10q-3 -16 -6 -22t-8 -6h-473q-5 0 -6.5 6.5t1.5 23.5l2 10q3 15 6 21t8 6h474zM320 624q26 0 41 -16t15 -39q0 -11 -4 -23t-12.5 -21.5t-20 -15.5t-26.5 -6q-25 0 -40.5 16t-15.5 39q0 24 17 45t46 21zM264 222q26 0 41 -16t15 -39q0 -11 -4 -23
t-12.5 -21.5t-20 -15.5t-26.5 -6q-25 0 -40.5 16t-15.5 39q0 24 17 45t46 21z" />
    <glyph glyph-name="oslash" unicode="&#xf8;" horiz-adv-x="571" 
d="M480 565q9 11 29 -6l21 -17q19 -15 10 -24l-47 -57q36 -54 36 -144q0 -72 -20.5 -132t-57.5 -103.5t-88.5 -67.5t-112.5 -24q-79 0 -128 35l-43 -52q-9 -11 -29 6l-18 17q-19 15 -11 24l53 62q-14 26 -20 57.5t-6 69.5q0 73 21 133.5t58.5 104t88 67.5t110.5 24
q66 0 112 -26zM180 99q14 -14 34.5 -21.5t49.5 -7.5q36 0 67 17t54 48t36 74.5t13 97.5q0 43 -12 78zM382 439q-27 19 -70 19q-35 0 -66.5 -17t-54.5 -47.5t-36.5 -74.5t-13.5 -98q0 -32 6 -59z" />
    <glyph glyph-name="ugrave" unicode="&#xf9;" horiz-adv-x="569" 
d="M153 528q28 0 34 -3t5 -9l-37 -262q-5 -30 -7 -51.5t-2 -38.5q0 -20 3 -33.5t10 -24.5q22 -34 82 -34q32 0 61 9.5t52 28.5q9 8 16 18t13.5 27t12 44.5t11.5 69.5l35 247q1 5 8.5 8.5t32.5 3.5h9q25 0 32 -3t6 -9l-48 -341q-3 -26 -6.5 -51t-6 -46.5t-5 -39t-3.5 -26.5
q-1 -6 -7 -9t-34 -3h-4q-26 0 -33 3t-6 9l4 43h-1q-32 -30 -74.5 -47.5t-93.5 -17.5q-41 0 -73.5 12.5t-52.5 38.5q-30 39 -30 103q0 14 1.5 33t3.5 36l43 303q1 5 7 8.5t34 3.5h8zM282 732q40 0 45 -11l53 -128q2 -5 -4 -8.5t-29 -3.5h-8q-18 0 -24 2.5t-9 6.5l-75 128
q-2 5 5 9.5t35 4.5h11z" />
    <glyph glyph-name="uacute" unicode="&#xfa;" horiz-adv-x="569" 
d="M153 528q28 0 34 -3t5 -9l-37 -262q-5 -30 -7 -51.5t-2 -38.5q0 -20 3 -33.5t10 -24.5q22 -34 82 -34q32 0 61 9.5t52 28.5q9 8 16 18t13.5 27t12 44.5t11.5 69.5l35 247q1 5 8.5 8.5t32.5 3.5h9q25 0 32 -3t6 -9l-48 -341q-3 -26 -6.5 -51t-6 -46.5t-5 -39t-3.5 -26.5
q-1 -6 -7 -9t-34 -3h-4q-26 0 -33 3t-6 9l4 43h-1q-32 -30 -74.5 -47.5t-93.5 -17.5q-41 0 -73.5 12.5t-52.5 38.5q-30 39 -30 103q0 14 1.5 33t3.5 36l43 303q1 5 7 8.5t34 3.5h8zM425 732q28 0 35 -4.5t2 -9.5l-111 -128q-4 -4 -11 -6.5t-25 -2.5h-12q-23 0 -27 3.5t0 8.5
l90 128q4 5 13.5 8t30.5 3h15z" />
    <glyph glyph-name="ucircumflex" unicode="&#xfb;" horiz-adv-x="569" 
d="M153 528q28 0 34 -3t5 -9l-37 -262q-5 -30 -7 -51.5t-2 -38.5q0 -20 3 -33.5t10 -24.5q22 -34 82 -34q32 0 61 9.5t52 28.5q9 8 16 18t13.5 27t12 44.5t11.5 69.5l35 247q1 5 8.5 8.5t32.5 3.5h9q25 0 32 -3t6 -9l-48 -341q-3 -26 -6.5 -51t-6 -46.5t-5 -39t-3.5 -26.5
q-1 -6 -7 -9t-34 -3h-4q-26 0 -33 3t-6 9l4 43h-1q-32 -30 -74.5 -47.5t-93.5 -17.5q-41 0 -73.5 12.5t-52.5 38.5q-30 39 -30 103q0 14 1.5 33t3.5 36l43 303q1 5 7 8.5t34 3.5h8zM278 724q6 6 15.5 9.5t29.5 3.5h37q21 0 29.5 -4.5t12.5 -9.5l76 -97q6 -8 -12 -26l-7 -7
q-10 -10 -18 -13t-11 0l-94 96l-122 -94q-3 -3 -8.5 -1.5t-13.5 12.5l-7 9q-8 11 -9.5 16.5t3.5 10.5z" />
    <glyph glyph-name="udieresis" unicode="&#xfc;" horiz-adv-x="569" 
d="M153 528q28 0 34 -3t5 -9l-37 -262q-5 -30 -7 -51.5t-2 -38.5q0 -20 3 -33.5t10 -24.5q22 -34 82 -34q32 0 61 9.5t52 28.5q9 8 16 18t13.5 27t12 44.5t11.5 69.5l35 247q1 5 8.5 8.5t32.5 3.5h9q25 0 32 -3t6 -9l-48 -341q-3 -26 -6.5 -51t-6 -46.5t-5 -39t-3.5 -26.5
q-1 -6 -7 -9t-34 -3h-4q-26 0 -33 3t-6 9l4 43h-1q-32 -30 -74.5 -47.5t-93.5 -17.5q-41 0 -73.5 12.5t-52.5 38.5q-30 39 -30 103q0 14 1.5 33t3.5 36l43 303q1 5 7 8.5t34 3.5h8zM226 712q23 0 37.5 -15t14.5 -37t-15.5 -42t-44.5 -20q-23 0 -37.5 15t-14.5 36q0 23 16 43
t44 20zM454 712q23 0 37.5 -15t14.5 -37t-15.5 -42t-44.5 -20q-23 0 -37.5 15t-14.5 36q0 23 16 43t44 20z" />
    <glyph glyph-name="yacute" unicode="&#xfd;" horiz-adv-x="497" 
d="M206 268q13 -54 19.5 -94t11.5 -82q13 35 33 79l42 90l123 256q5 11 48 11q28 0 38 -3q7 -2 7 -7q0 -2 -1 -4l-259 -526q-21 -42 -44.5 -82t-53.5 -71t-68 -49.5t-89 -18.5q-22 0 -43.5 4t-38.5 12q-6 3 -6 9q0 7 9 27l5 11q7 14 11 19t12 3q11 -4 26.5 -6.5t32.5 -2.5
q23 0 42.5 7.5t38 25.5t37 47t39.5 71l-122 520q-3 9 7.5 11.5t40.5 2.5q26 0 34.5 -2.5t10.5 -8.5zM380 732q28 0 35 -4.5t2 -9.5l-111 -128q-4 -4 -11 -6.5t-25 -2.5h-12q-23 0 -27 3.5t0 8.5l90 128q4 5 13.5 8t30.5 3h15z" />
    <glyph glyph-name="thorn" unicode="&#xfe;" horiz-adv-x="552" 
d="M191 760q28 0 34 -3.5t5 -8.5l-39 -273q26 31 63.5 47t78.5 16q86 0 134 -57t48 -154q0 -57 -16.5 -116.5t-50.5 -108.5t-84.5 -80.5t-117.5 -31.5q-37 0 -67 8.5t-50 22.5l-34 -241q-2 -8 -10.5 -10.5t-33.5 -2.5h-6q-24 0 -32 2.5t-7 10.5l136 968q1 6 7.5 9t35.5 3h6z
M141 109q17 -16 46 -27t64 -11q43 0 75 23t53 58t31.5 78t10.5 82q0 71 -31.5 108t-85.5 37q-31 0 -58 -13t-45 -33q-8 -9 -13 -19.5t-9 -27.5q-3 -16 -7 -40l-9 -59z" />
    <glyph glyph-name="ydieresis" unicode="&#xff;" horiz-adv-x="497" 
d="M206 268q13 -54 19.5 -94t11.5 -82q13 35 33 79l42 90l123 256q5 11 48 11q28 0 38 -3q7 -2 7 -7q0 -2 -1 -4l-259 -526q-21 -42 -44.5 -82t-53.5 -71t-68 -49.5t-89 -18.5q-22 0 -43.5 4t-38.5 12q-6 3 -6 9q0 7 9 27l5 11q7 14 11 19t12 3q11 -4 26.5 -6.5t32.5 -2.5
q23 0 42.5 7.5t38 25.5t37 47t39.5 71l-122 520q-3 9 7.5 11.5t40.5 2.5q26 0 34.5 -2.5t10.5 -8.5zM199 712q23 0 37.5 -15t14.5 -37t-15.5 -42t-44.5 -20q-23 0 -37.5 15t-14.5 36q0 23 16 43t44 20zM427 712q23 0 37.5 -15t14.5 -37t-15.5 -42t-44.5 -20q-23 0 -37.5 15
t-14.5 36q0 23 16 43t44 20z" />
    <glyph glyph-name="Amacron" unicode="&#x100;" horiz-adv-x="635" 
d="M376 720q23 0 32 -2.5t10 -8.5l145 -698q2 -6 -10 -8.5t-33 -2.5h-11q-41 0 -44 11l-33 176h-277l-82 -176q-6 -11 -45 -11h-16q-21 0 -32 2q-8 2 -8 7q0 1 1 2l337 698q3 6 12.5 8.5t34.5 2.5h19zM188 265h231l-65 358zM512 874q12 0 6 -30l-2 -12q-6 -31 -14 -31h-270
q-12 0 -6 32l2 12q5 29 14 29h270z" />
    <glyph glyph-name="amacron" unicode="&#x101;" horiz-adv-x="556" 
d="M487 528q26 0 31 -3t5 -7q0 -7 -9 -63q-7 -43 -14 -91l-20 -140q-10 -69 -14 -120l-9 -92q-1 -6 -7 -9t-29 -3h-4q-23 0 -29.5 2.5t-6.5 9.5l1 48q-27 -30 -67 -50t-91 -20q-47 0 -81 17t-56 46t-32.5 69t-10.5 87q0 58 17 116.5t51 105.5t83.5 77t114.5 30
q45 0 77 -18.5t50 -45.5l11 42q2 8 8.5 10t26.5 2h4zM415 389q-14 27 -42.5 48t-63.5 21q-45 0 -77.5 -22t-53.5 -56t-31 -75.5t-10 -81.5q0 -31 6 -59t19 -49t34.5 -33.5t53.5 -12.5q23 0 50 9t50 32q9 9 15 19t11.5 25.5t9.5 38t9 54.5zM478 693q12 0 6 -30l-2 -12
q-6 -31 -14 -31h-270q-12 0 -6 32l2 12q5 29 14 29h270z" />
    <glyph glyph-name="Abreve" unicode="&#x102;" horiz-adv-x="635" 
d="M376 720q23 0 32 -2.5t10 -8.5l145 -698q2 -6 -10 -8.5t-33 -2.5h-11q-41 0 -44 11l-33 176h-277l-82 -176q-6 -11 -45 -11h-16q-21 0 -32 2q-8 2 -8 7q0 1 1 2l337 698q3 6 12.5 8.5t34.5 2.5h19zM188 265h231l-65 358zM285 903q16 0 22 -2.5t6 -7.5q-2 -29 16.5 -44
t53.5 -15q29 0 48 15.5t27 43.5q2 5 8 7.5t22 2.5h13q32 0 31 -10q-12 -61 -54.5 -90t-102.5 -29q-32 0 -58 7t-44 21.5t-26.5 37t-6.5 53.5q1 10 33 10h12z" />
    <glyph glyph-name="abreve" unicode="&#x103;" horiz-adv-x="556" 
d="M487 528q26 0 31 -3t5 -7q0 -7 -9 -63q-7 -43 -14 -91l-20 -140q-10 -69 -14 -120l-9 -92q-1 -6 -7 -9t-29 -3h-4q-23 0 -29.5 2.5t-6.5 9.5l1 48q-27 -30 -67 -50t-91 -20q-47 0 -81 17t-56 46t-32.5 69t-10.5 87q0 58 17 116.5t51 105.5t83.5 77t114.5 30
q45 0 77 -18.5t50 -45.5l11 42q2 8 8.5 10t26.5 2h4zM415 389q-14 27 -42.5 48t-63.5 21q-45 0 -77.5 -22t-53.5 -56t-31 -75.5t-10 -81.5q0 -31 6 -59t19 -49t34.5 -33.5t53.5 -12.5q23 0 50 9t50 32q9 9 15 19t11.5 25.5t9.5 38t9 54.5zM239 722q16 0 22 -2.5t6 -7.5
q-2 -29 16.5 -44t53.5 -15q29 0 48 15.5t27 43.5q2 5 8 7.5t22 2.5h13q32 0 31 -10q-12 -61 -54.5 -90t-102.5 -29q-32 0 -58 7t-44 21.5t-26.5 37t-6.5 53.5q1 10 33 10h12z" />
    <glyph glyph-name="Aogonek" unicode="&#x104;" horiz-adv-x="635" 
d="M376 720q23 0 31.5 -2.5t10.5 -8.5l144 -692q1 -5 -0.5 -7.5t-9.5 -4.5q-24 -7 -47.5 -19.5t-38.5 -28.5q-33 -35 -33 -66q0 -21 13 -28.5t32 -7.5q8 0 18 1t21 5q8 2 11 -22l1 -9q1 -14 -0.5 -19.5t-5.5 -7.5q-14 -6 -31.5 -10t-37.5 -4q-52 0 -76.5 26.5t-24.5 61.5
q0 41 31 76.5t81 58.5l-33 175h-277l-82 -176q-6 -11 -45 -11h-16q-21 0 -31.5 2.5t-7.5 8.5l337 698q3 6 12.5 8.5t34.5 2.5h19zM188 265h231l-65 358z" />
    <glyph glyph-name="aogonek" unicode="&#x105;" horiz-adv-x="556" 
d="M487 528q26 0 31.5 -3t4.5 -9q-2 -18 -9 -61t-14 -91l-20 -140q-11 -75 -16 -131t-5 -78q0 -6 -2 -8.5t-6 -4.5q-92 -56 -92 -111q0 -21 13 -28.5t32 -7.5q8 0 18.5 1.5t20.5 4.5q5 2 7 -3t4 -19l1 -9q2 -17 0.5 -21t-6.5 -6q-14 -6 -31.5 -10t-37.5 -4q-52 0 -76.5 26.5
t-24.5 61.5q0 20 8.5 39t22.5 36t32.5 31t38.5 24l1 53q-27 -30 -67 -50t-91 -20q-47 0 -81 17t-56 46t-32.5 69t-10.5 87q0 58 17 116.5t51 105.5t83.5 77t114.5 30q45 0 77 -18.5t50 -45.5l11 42q2 8 8.5 10t26.5 2h4zM415 389q-14 27 -42.5 48t-63.5 21q-45 0 -77.5 -22
t-53.5 -56t-31 -75.5t-10 -81.5q0 -31 6 -59t19 -49t34.5 -33.5t53.5 -12.5q23 0 50 9t50 32q9 9 15 19t11.5 25.5t9.5 38t9 54.5z" />
    <glyph glyph-name="Cacute" unicode="&#x106;" horiz-adv-x="562" 
d="M546 633q-9 -16 -15 -19t-11 -1q-36 20 -70 28.5t-74 8.5q-63 0 -108 -34t-73.5 -86.5t-42 -115.5t-13.5 -122q0 -45 8.5 -85t29 -70t55 -47.5t85.5 -17.5q67 0 133 31q5 2 10.5 -2t10.5 -20l4 -13q4 -13 4 -21q0 -10 -6 -13q-42 -22 -88.5 -33t-96.5 -11q-65 0 -112 20
t-77 57.5t-44 90t-14 118.5q0 49 8 102t25.5 103.5t44 95.5t64 79t86.5 54t110 20q108 0 183 -49q3 -2 3 -7q0 -9 -9 -25zM465 914q28 0 35 -4.5t2 -9.5l-111 -128q-4 -4 -11 -6.5t-25 -2.5h-12q-23 0 -27 3.5t0 8.5l90 128q5 6 14 8.5t30 2.5h15z" />
    <glyph glyph-name="cacute" unicode="&#x107;" horiz-adv-x="477" 
d="M410 71q5 -16 5.5 -25t-5.5 -12q-40 -21 -83.5 -32.5t-87.5 -11.5q-51 0 -89.5 16.5t-63.5 45.5t-37.5 69t-12.5 88q0 58 17 117t51.5 106t85.5 76.5t120 29.5q45 0 88.5 -12t71.5 -35q3 -3 3 -8q0 -11 -13 -34q-16 -28 -29 -28q-2 0 -5 1q-29 18 -61 27t-64 9
q-42 0 -74 -21t-53.5 -54t-32.5 -74.5t-11 -83.5q0 -31 7 -59t23 -49t40.5 -33.5t60.5 -12.5q31 0 62 8.5t61 22.5q7 3 12.5 -1.5t11.5 -23.5zM407 732q28 0 35 -4.5t2 -9.5l-111 -128q-4 -4 -11 -6.5t-25 -2.5h-12q-23 0 -27 3.5t0 8.5l90 128q4 5 13.5 8t30.5 3h15z" />
    <glyph glyph-name="Ccircumflex" unicode="&#x108;" horiz-adv-x="562" 
d="M546 633q-9 -16 -15 -19t-11 -1q-36 20 -70 28.5t-74 8.5q-63 0 -108 -34t-73.5 -86.5t-42 -115.5t-13.5 -122q0 -45 8.5 -85t29 -70t55 -47.5t85.5 -17.5q67 0 133 31q5 2 10.5 -2t10.5 -20l4 -13q4 -13 4 -21q0 -10 -6 -13q-42 -22 -88.5 -33t-96.5 -11q-65 0 -112 20
t-77 57.5t-44 90t-14 118.5q0 49 8 102t25.5 103.5t44 95.5t64 79t86.5 54t110 20q108 0 183 -49q3 -2 3 -7q0 -9 -9 -25zM345 896q6 6 15.5 9.5t29.5 3.5h37q21 0 29.5 -4.5t12.5 -9.5l76 -97q6 -8 -12 -26l-7 -7q-10 -10 -18 -13t-11 0l-94 96l-122 -94q-3 -3 -8.5 -1.5
t-13.5 12.5l-7 9q-8 11 -9.5 16.5t3.5 10.5z" />
    <glyph glyph-name="ccircumflex" unicode="&#x109;" horiz-adv-x="477" 
d="M410 71q5 -16 5.5 -25t-5.5 -12q-40 -21 -83.5 -32.5t-87.5 -11.5q-51 0 -89.5 16.5t-63.5 45.5t-37.5 69t-12.5 88q0 58 17 117t51.5 106t85.5 76.5t120 29.5q45 0 88.5 -12t71.5 -35q3 -3 3 -8q0 -11 -13 -34q-16 -28 -29 -28q-2 0 -5 1q-29 18 -61 27t-64 9
q-42 0 -74 -21t-53.5 -54t-32.5 -74.5t-11 -83.5q0 -31 7 -59t23 -49t40.5 -33.5t60.5 -12.5q31 0 62 8.5t61 22.5q7 3 12.5 -1.5t11.5 -23.5zM283 724q6 6 15.5 9.5t29.5 3.5h37q21 0 29.5 -4.5t12.5 -9.5l76 -97q6 -8 -12 -26l-7 -7q-10 -10 -18 -13t-11 0l-94 96
l-122 -94q-3 -3 -8.5 -1.5t-13.5 12.5l-7 9q-8 11 -9.5 16.5t3.5 10.5z" />
    <glyph glyph-name="Cdotaccent" unicode="&#x10a;" horiz-adv-x="562" 
d="M546 633q-9 -16 -15 -19t-11 -1q-36 20 -70 28.5t-74 8.5q-63 0 -108 -34t-73.5 -86.5t-42 -115.5t-13.5 -122q0 -45 8.5 -85t29 -70t55 -47.5t85.5 -17.5q67 0 133 31q5 2 10.5 -2t10.5 -20l4 -13q4 -13 4 -21q0 -10 -6 -13q-42 -22 -88.5 -33t-96.5 -11q-65 0 -112 20
t-77 57.5t-44 90t-14 118.5q0 49 8 102t25.5 103.5t44 95.5t64 79t86.5 54t110 20q108 0 183 -49q3 -2 3 -7q0 -9 -9 -25zM409 898q23 0 37.5 -15t14.5 -36q0 -22 -15 -42t-44 -20q-23 0 -37.5 14.5t-14.5 36.5q0 23 16 42.5t43 19.5z" />
    <glyph glyph-name="cdotaccent" unicode="&#x10b;" horiz-adv-x="477" 
d="M410 71q5 -16 5.5 -25t-5.5 -12q-40 -21 -83.5 -32.5t-87.5 -11.5q-51 0 -89.5 16.5t-63.5 45.5t-37.5 69t-12.5 88q0 58 17 117t51.5 106t85.5 76.5t120 29.5q45 0 88.5 -12t71.5 -35q3 -3 3 -8q0 -11 -13 -34q-16 -28 -29 -28q-2 0 -5 1q-29 18 -61 27t-64 9
q-42 0 -74 -21t-53.5 -54t-32.5 -74.5t-11 -83.5q0 -31 7 -59t23 -49t40.5 -33.5t60.5 -12.5q31 0 62 8.5t61 22.5q7 3 12.5 -1.5t11.5 -23.5zM337 718q23 0 37.5 -15t14.5 -36q0 -22 -15 -42t-44 -20q-23 0 -37.5 14.5t-14.5 36.5q0 23 16 42.5t43 19.5z" />
    <glyph glyph-name="Ccaron" unicode="&#x10c;" horiz-adv-x="562" 
d="M546 633q-9 -16 -15 -19t-11 -1q-36 20 -70 28.5t-74 8.5q-63 0 -108 -34t-73.5 -86.5t-42 -115.5t-13.5 -122q0 -45 8.5 -85t29 -70t55 -47.5t85.5 -17.5q67 0 133 31q5 2 10.5 -2t10.5 -20l4 -13q4 -13 4 -21q0 -10 -6 -13q-42 -22 -88.5 -33t-96.5 -11q-65 0 -112 20
t-77 57.5t-44 90t-14 118.5q0 49 8 102t25.5 103.5t44 95.5t64 79t86.5 54t110 20q108 0 183 -49q3 -2 3 -7q0 -9 -9 -25zM285 912q9 8 16.5 13t11.5 0l95 -98l120 95q5 3 9.5 1.5t13.5 -12.5l7 -9q9 -11 9.5 -16.5t-4.5 -10.5l-101 -95q-6 -6 -15 -9.5t-30 -3.5h-37
q-21 0 -28.5 3t-13.5 11l-76 96q-4 5 1.5 12.5t13.5 15.5z" />
    <glyph glyph-name="ccaron" unicode="&#x10d;" horiz-adv-x="477" 
d="M410 71q5 -16 5.5 -25t-5.5 -12q-40 -21 -83.5 -32.5t-87.5 -11.5q-51 0 -89.5 16.5t-63.5 45.5t-37.5 69t-12.5 88q0 58 17 117t51.5 106t85.5 76.5t120 29.5q45 0 88.5 -12t71.5 -35q3 -3 3 -8q0 -11 -13 -34q-16 -28 -29 -28q-2 0 -5 1q-29 18 -61 27t-64 9
q-42 0 -74 -21t-53.5 -54t-32.5 -74.5t-11 -83.5q0 -31 7 -59t23 -49t40.5 -33.5t60.5 -12.5q31 0 62 8.5t61 22.5q7 3 12.5 -1.5t11.5 -23.5zM203 720q9 8 16.5 13t11.5 0l95 -98l120 95q5 3 9.5 1.5t13.5 -12.5l7 -9q9 -11 9.5 -16.5t-4.5 -10.5l-101 -95q-6 -6 -15 -9.5
t-30 -3.5h-37q-21 0 -28.5 3t-13.5 11l-76 96q-4 5 1.5 12.5t13.5 15.5z" />
    <glyph glyph-name="Dcaron" unicode="&#x10e;" horiz-adv-x="641" 
d="M297 720q70 0 127 -14.5t97.5 -47.5t62.5 -87.5t22 -135.5q0 -46 -8 -96t-24.5 -98t-43.5 -91.5t-64 -75.5q-51 -44 -113.5 -59t-144.5 -15h-178l101 720h166zM133 77h87q53 0 96.5 11.5t82.5 43.5q30 25 50.5 57.5t33.5 70t19 77t6 78.5q0 112 -50 170t-164 58h-81z
M260 912q9 8 16.5 13t11.5 0l95 -98l120 95q5 3 9.5 1.5t13.5 -12.5l7 -9q9 -11 9.5 -16.5t-4.5 -10.5l-101 -95q-6 -6 -15 -9.5t-30 -3.5h-37q-21 0 -28.5 3t-13.5 11l-76 96q-4 5 1.5 12.5t13.5 15.5z" />
    <glyph glyph-name="dcaron" unicode="&#x10f;" horiz-adv-x="654" 
d="M514 760q23 0 31.5 -2.5t6.5 -10.5l-87 -622q-3 -19 -2.5 -29.5t3.5 -16t9 -7t16 -1.5q5 0 6.5 -6t-0.5 -21l-1 -6q-2 -17 -6 -24.5t-9 -9.5q-8 -4 -18.5 -5t-24.5 -1q-22 0 -38 14.5t-21 43.5h-1q-22 -27 -62 -46.5t-94 -19.5q-86 0 -133.5 56t-47.5 156q0 57 17 116.5
t51 108.5t84.5 80t118.5 31q37 0 67.5 -10t50.5 -25l34 244q1 8 10 10.5t34 2.5h6zM418 419q-17 17 -45.5 27.5t-60.5 10.5q-44 0 -77.5 -21.5t-55.5 -55.5t-33 -76t-11 -84q0 -76 32 -113.5t85 -37.5q23 0 50 8.5t44 27.5q8 9 15 20.5t13 27.5t11 38t9 53zM574 508
q-9 12 -3 18l18 18q11 10 20.5 21t16.5 23t7 24q0 10 -4 16l-9 14q-4 7 -8 15t-4 20q0 21 14.5 37t39.5 16q26 0 39 -17t13 -42t-10 -50.5t-26.5 -49t-37.5 -44t-43 -35.5q-4 -2 -7 -1.5t-9 8.5z" />
    <glyph glyph-name="Dcroat" unicode="&#x110;" horiz-adv-x="655" 
d="M311 720q70 0 127 -14.5t97.5 -47.5t62.5 -87.5t22 -135.5q0 -46 -8 -96t-24.5 -98t-43.5 -91.5t-64 -75.5q-51 -44 -113.5 -59t-144.5 -15h-178l46 328h-53q-6 0 -8.5 6t1.5 26l2 11q3 17 6.5 24t10.5 7h51l45 318h166zM357 402q6 0 8.5 -6t-1.5 -26l-2 -11
q-3 -17 -6.5 -24t-10.5 -7h-163l-35 -251h87q53 0 96.5 11.5t82.5 43.5q30 25 50.5 57.5t33.5 70t19 77t6 78.5q0 112 -50 170t-164 58h-81l-34 -241h164z" />
    <glyph glyph-name="dcroat" unicode="&#x111;" horiz-adv-x="568" 
d="M454 678l10 69q1 8 10 10.5t34 2.5h6q23 0 31.5 -2.5t6.5 -10.5l-10 -69h64q6 0 7.5 -6t-2.5 -26l-2 -11q-3 -16 -6 -20.5t-10 -4.5h-60l-68 -485q-3 -19 -2.5 -29.5t3.5 -16t9 -7t16 -1.5q5 0 6.5 -6t-0.5 -21l-1 -6q-2 -17 -6 -24.5t-9 -9.5q-8 -4 -18.5 -5t-24.5 -1
q-22 0 -38 14.5t-21 43.5h-1q-22 -27 -62 -46.5t-94 -19.5q-86 0 -133.5 56t-47.5 156q0 57 17 116.5t51 108.5t84.5 80t118.5 31q37 0 67.5 -10t50.5 -25l15 107h-147q-6 0 -7.5 6.5t1.5 25.5l2 11q3 16 6 20.5t10 4.5h144zM418 419q-17 17 -45.5 27.5t-60.5 10.5
q-44 0 -77.5 -21.5t-55.5 -55.5t-33 -76t-11 -84q0 -76 32 -113.5t85 -37.5q23 0 50 8.5t44 27.5q8 9 15 20.5t13 27.5t11 38t9 53z" />
    <glyph glyph-name="Emacron" unicode="&#x112;" horiz-adv-x="533" 
d="M523 720q6 0 6 -13q0 -9 -2 -20l-2 -10q-6 -34 -14 -34h-298l-34 -240h254q7 0 7 -14q0 -7 -2 -18l-2 -12q-2 -14 -5.5 -23.5t-8.5 -9.5h-254l-34 -248h303q6 0 6 -13q0 -7 -2 -18l-2 -13q-2 -15 -5.5 -24.5t-8.5 -9.5h-395l101 720h392zM481 874q12 0 6 -30l-2 -12
q-6 -31 -14 -31h-270q-12 0 -6 32l2 12q5 29 14 29h270z" />
    <glyph glyph-name="emacron" unicode="&#x113;" horiz-adv-x="533" 
d="M132 232q-1 -7 -1 -12v-12q0 -71 38 -104t110 -33q30 0 60.5 8t68.5 25q2 1 4 1q9 0 17 -22l4 -11q7 -18 5.5 -25.5t-7.5 -10.5q-81 -46 -179 -46q-109 0 -161 56t-52 157q0 56 16.5 115.5t49.5 108t83.5 80t119.5 31.5q47 0 82.5 -15t59 -41.5t35.5 -63.5t12 -82
q0 -17 -2 -35l-4 -35q-3 -23 -6 -28.5t-9 -5.5h-344zM408 306q1 7 1.5 14t0.5 14q0 24 -6 46.5t-19.5 40t-35 27.5t-51.5 10q-51 0 -91.5 -37t-60.5 -115h262zM470 693q12 0 6 -30l-2 -12q-6 -31 -14 -31h-270q-12 0 -6 32l2 12q5 29 14 29h270z" />
    <glyph glyph-name="Ebreve" unicode="&#x114;" horiz-adv-x="533" 
d="M523 720q6 0 6 -13q0 -9 -2 -20l-2 -10q-6 -34 -14 -34h-298l-34 -240h254q7 0 7 -14q0 -7 -2 -18l-2 -12q-2 -14 -5.5 -23.5t-8.5 -9.5h-254l-34 -248h303q6 0 6 -13q0 -7 -2 -18l-2 -13q-2 -15 -5.5 -24.5t-8.5 -9.5h-395l101 720h392zM248 903q16 0 22 -2.5t6 -7.5
q-2 -29 16.5 -44t53.5 -15q29 0 48 15.5t27 43.5q2 5 8 7.5t22 2.5h13q32 0 31 -10q-12 -61 -54.5 -90t-102.5 -29q-32 0 -58 7t-44 21.5t-26.5 37t-6.5 53.5q1 10 33 10h12z" />
    <glyph glyph-name="ebreve" unicode="&#x115;" horiz-adv-x="533" 
d="M132 232q-1 -7 -1 -12v-12q0 -71 38 -104t110 -33q30 0 60.5 8t68.5 25q2 1 4 1q9 0 17 -22l4 -11q7 -18 5.5 -25.5t-7.5 -10.5q-81 -46 -179 -46q-109 0 -161 56t-52 157q0 56 16.5 115.5t49.5 108t83.5 80t119.5 31.5q47 0 82.5 -15t59 -41.5t35.5 -63.5t12 -82
q0 -17 -2 -35l-4 -35q-3 -23 -6 -28.5t-9 -5.5h-344zM408 306q1 7 1.5 14t0.5 14q0 24 -6 46.5t-19.5 40t-35 27.5t-51.5 10q-51 0 -91.5 -37t-60.5 -115h262zM231 722q16 0 22 -2.5t6 -7.5q-2 -29 16.5 -44t53.5 -15q29 0 48 15.5t27 43.5q2 5 8 7.5t22 2.5h13q32 0 31 -10
q-12 -61 -54.5 -90t-102.5 -29q-32 0 -58 7t-44 21.5t-26.5 37t-6.5 53.5q1 10 33 10h12z" />
    <glyph glyph-name="Edotaccent" unicode="&#x116;" horiz-adv-x="533" 
d="M523 720q6 0 6 -13q0 -9 -2 -20l-2 -10q-6 -34 -14 -34h-298l-34 -240h254q7 0 7 -14q0 -7 -2 -18l-2 -12q-2 -14 -5.5 -23.5t-8.5 -9.5h-254l-34 -248h303q6 0 6 -13q0 -7 -2 -18l-2 -13q-2 -15 -5.5 -24.5t-8.5 -9.5h-395l101 720h392zM344 898q23 0 37.5 -15t14.5 -36
q0 -22 -15 -42t-44 -20q-23 0 -37.5 14.5t-14.5 36.5q0 23 16 42.5t43 19.5z" />
    <glyph glyph-name="edotaccent" unicode="&#x117;" horiz-adv-x="533" 
d="M132 232q-1 -7 -1 -12v-12q0 -71 38 -104t110 -33q30 0 60.5 8t68.5 25q2 1 4 1q9 0 17 -22l4 -11q7 -18 5.5 -25.5t-7.5 -10.5q-81 -46 -179 -46q-109 0 -161 56t-52 157q0 56 16.5 115.5t49.5 108t83.5 80t119.5 31.5q47 0 82.5 -15t59 -41.5t35.5 -63.5t12 -82
q0 -17 -2 -35l-4 -35q-3 -23 -6 -28.5t-9 -5.5h-344zM408 306q1 7 1.5 14t0.5 14q0 24 -6 46.5t-19.5 40t-35 27.5t-51.5 10q-51 0 -91.5 -37t-60.5 -115h262zM332 718q23 0 37.5 -15t14.5 -36q0 -22 -15 -42t-44 -20q-23 0 -37.5 14.5t-14.5 36.5q0 23 16 42.5t43 19.5z
" />
    <glyph glyph-name="Eogonek" unicode="&#x118;" horiz-adv-x="533" 
d="M523 720q5 0 5.5 -9.5t-1.5 -23.5l-2 -10q-6 -34 -14 -34h-298l-34 -240h254q10 0 5 -32l-2 -12q-2 -14 -5.5 -23.5t-8.5 -9.5h-254l-34 -248h303q9 0 4 -31l-2 -13q-2 -15 -5.5 -24.5t-8.5 -9.5h-1q-19 0 -40 -8.5t-38 -22.5t-28.5 -33.5t-11.5 -41.5t14 -30.5t31 -8.5
q8 0 18 1t21 5q8 2 11 -22l1 -9q1 -14 -0.5 -19.5t-5.5 -7.5q-14 -6 -31.5 -10t-37.5 -4q-51 0 -76 26.5t-25 61.5q0 38 24.5 70t63.5 53h-284l101 720h392z" />
    <glyph glyph-name="eogonek" unicode="&#x119;" horiz-adv-x="533" 
d="M132 232q-1 -6 -1 -12v-12q0 -71 38 -104t110 -33q30 0 60.5 8t68.5 25q11 5 21 -21l4 -11q7 -18 5.5 -25.5t-7.5 -10.5q-57 -26 -89.5 -63.5t-32.5 -75.5q0 -20 10.5 -31t34.5 -11q8 0 18 1t21 5q8 2 11 -22l1 -9q1 -14 -0.5 -19.5t-5.5 -7.5q-14 -6 -31.5 -10t-37.5 -4
q-52 0 -76.5 26t-24.5 63q0 62 64 114q-9 -1 -20.5 -1.5t-20.5 -0.5q-109 0 -161 56t-52 157q0 56 16.5 115.5t49.5 108t83.5 80t119.5 31.5q47 0 82.5 -15t59 -41.5t35.5 -63.5t12 -82q0 -17 -2 -35l-4 -35q-3 -23 -6 -28.5t-9 -5.5h-344zM408 306q1 7 1.5 14t0.5 14
q0 24 -6 46.5t-19.5 40t-35 27.5t-51.5 10q-51 0 -91.5 -37t-60.5 -115h262z" />
    <glyph glyph-name="Ecaron" unicode="&#x11a;" horiz-adv-x="533" 
d="M523 720q6 0 6 -13q0 -9 -2 -20l-2 -10q-6 -34 -14 -34h-298l-34 -240h254q7 0 7 -14q0 -7 -2 -18l-2 -12q-2 -14 -5.5 -23.5t-8.5 -9.5h-254l-34 -248h303q6 0 6 -13q0 -7 -2 -18l-2 -13q-2 -15 -5.5 -24.5t-8.5 -9.5h-395l101 720h392zM234 912q9 8 16.5 13t11.5 0
l95 -98l120 95q5 3 9.5 1.5t13.5 -12.5l7 -9q9 -11 9.5 -16.5t-4.5 -10.5l-101 -95q-6 -6 -15 -9.5t-30 -3.5h-37q-21 0 -28.5 3t-13.5 11l-76 96q-4 5 1.5 12.5t13.5 15.5z" />
    <glyph glyph-name="ecaron" unicode="&#x11b;" horiz-adv-x="533" 
d="M132 232q-1 -7 -1 -12v-12q0 -71 38 -104t110 -33q30 0 60.5 8t68.5 25q2 1 4 1q9 0 17 -22l4 -11q7 -18 5.5 -25.5t-7.5 -10.5q-81 -46 -179 -46q-109 0 -161 56t-52 157q0 56 16.5 115.5t49.5 108t83.5 80t119.5 31.5q47 0 82.5 -15t59 -41.5t35.5 -63.5t12 -82
q0 -17 -2 -35l-4 -35q-3 -23 -6 -28.5t-9 -5.5h-344zM408 306q1 7 1.5 14t0.5 14q0 24 -6 46.5t-19.5 40t-35 27.5t-51.5 10q-51 0 -91.5 -37t-60.5 -115h262zM199 720q9 8 16.5 13t11.5 0l95 -98l120 95q5 3 9.5 1.5t13.5 -12.5l7 -9q9 -11 9.5 -16.5t-4.5 -10.5l-101 -95
q-6 -6 -15 -9.5t-30 -3.5h-37q-21 0 -28.5 3t-13.5 11l-76 96q-4 5 1.5 12.5t13.5 15.5z" />
    <glyph glyph-name="Gcircumflex" unicode="&#x11c;" horiz-adv-x="622" 
d="M572 624q-12 -20 -21 -20q-2 0 -4 1q-38 24 -80.5 35t-87.5 11q-69 0 -116 -34t-76 -86.5t-41.5 -117t-12.5 -124.5q0 -50 11 -90t34 -69t59 -44.5t87 -15.5q30 0 61 4.5t54 13.5l31 219h-154q-7 0 -7 15q0 7 2 18l2 14q4 32 14 32h245l-48 -349q-43 -21 -102.5 -34
t-121.5 -13q-131 0 -198 75.5t-67 210.5q0 50 8 103.5t25.5 103.5t45.5 95t67 79t90 53.5t115 19.5q67 0 117 -15.5t84 -43.5q4 -3 4 -8q0 -8 -9 -22zM355 896q6 6 15.5 9.5t29.5 3.5h37q21 0 29.5 -4.5t12.5 -9.5l76 -97q6 -8 -12 -26l-7 -7q-10 -10 -18 -13t-11 0l-94 96
l-122 -94q-3 -3 -8.5 -1.5t-13.5 12.5l-7 9q-8 11 -9.5 16.5t3.5 10.5z" />
    <glyph glyph-name="gcircumflex" unicode="&#x11d;" horiz-adv-x="554" 
d="M401 284q4 27 5.5 45.5t1.5 32.5q0 44 -31 68.5t-81 24.5q-44 0 -74.5 -22t-50.5 -55.5t-29 -74.5t-9 -79q0 -68 27 -106t81 -38q41 0 77.5 16.5t62.5 43.5zM478 528q22 0 29.5 -2.5t7.5 -10.5q-1 -19 -4 -51.5t-7 -68.5l-10 -71l-7 -57l-23 -166q-8 -60 -18 -108.5
t-23 -79.5q-31 -75 -93.5 -110.5t-137.5 -35.5q-19 0 -41.5 2t-44.5 6t-40.5 9.5t-28.5 12.5q-5 3 -5 10q0 9 9 29l4 9q11 26 22 26q3 0 5 -1q27 -11 59 -17.5t64 -6.5q57 0 97 26.5t58 83.5q7 20 12 50l7 51q-30 -32 -69.5 -44.5t-77.5 -12.5q-46 0 -80 16t-56.5 44.5
t-33.5 67.5t-11 85q0 55 16 113t47.5 105t78.5 77t109 30q48 0 83 -16.5t52 -47.5l6 41q1 7 8.5 10t30.5 3h6zM267 724q6 6 15.5 9.5t29.5 3.5h37q21 0 29.5 -4.5t12.5 -9.5l76 -97q6 -8 -12 -26l-7 -7q-10 -10 -18 -13t-11 0l-94 96l-122 -94q-3 -3 -8.5 -1.5t-13.5 12.5
l-7 9q-8 11 -9.5 16.5t3.5 10.5z" />
    <glyph glyph-name="Gbreve" unicode="&#x11e;" horiz-adv-x="622" 
d="M572 624q-12 -20 -21 -20q-2 0 -4 1q-38 24 -80.5 35t-87.5 11q-69 0 -116 -34t-76 -86.5t-41.5 -117t-12.5 -124.5q0 -50 11 -90t34 -69t59 -44.5t87 -15.5q30 0 61 4.5t54 13.5l31 219h-154q-7 0 -7 15q0 7 2 18l2 14q4 32 14 32h245l-48 -349q-43 -21 -102.5 -34
t-121.5 -13q-131 0 -198 75.5t-67 210.5q0 50 8 103.5t25.5 103.5t45.5 95t67 79t90 53.5t115 19.5q67 0 117 -15.5t84 -43.5q4 -3 4 -8q0 -8 -9 -22zM313 903q16 0 22 -2.5t6 -7.5q-2 -29 16.5 -44t53.5 -15q29 0 48 15.5t27 43.5q2 5 8 7.5t22 2.5h13q32 0 31 -10
q-12 -61 -54.5 -90t-102.5 -29q-32 0 -58 7t-44 21.5t-26.5 37t-6.5 53.5q1 10 33 10h12z" />
    <glyph glyph-name="gbreve" unicode="&#x11f;" horiz-adv-x="554" 
d="M401 284q4 27 5.5 45.5t1.5 32.5q0 44 -31 68.5t-81 24.5q-44 0 -74.5 -22t-50.5 -55.5t-29 -74.5t-9 -79q0 -68 27 -106t81 -38q41 0 77.5 16.5t62.5 43.5zM478 528q22 0 29.5 -2.5t7.5 -10.5q-1 -19 -4 -51.5t-7 -68.5l-10 -71l-7 -57l-23 -166q-8 -60 -18 -108.5
t-23 -79.5q-31 -75 -93.5 -110.5t-137.5 -35.5q-19 0 -41.5 2t-44.5 6t-40.5 9.5t-28.5 12.5q-5 3 -5 10q0 9 9 29l4 9q11 26 22 26q3 0 5 -1q27 -11 59 -17.5t64 -6.5q57 0 97 26.5t58 83.5q7 20 12 50l7 51q-30 -32 -69.5 -44.5t-77.5 -12.5q-46 0 -80 16t-56.5 44.5
t-33.5 67.5t-11 85q0 55 16 113t47.5 105t78.5 77t109 30q48 0 83 -16.5t52 -47.5l6 41q1 7 8.5 10t30.5 3h6zM230 722q16 0 22 -2.5t6 -7.5q-2 -29 16.5 -44t53.5 -15q29 0 48 15.5t27 43.5q2 5 8 7.5t22 2.5h13q32 0 31 -10q-12 -61 -54.5 -90t-102.5 -29q-32 0 -58 7
t-44 21.5t-26.5 37t-6.5 53.5q1 10 33 10h12z" />
    <glyph glyph-name="Gdotaccent" unicode="&#x120;" horiz-adv-x="622" 
d="M572 624q-12 -20 -21 -20q-2 0 -4 1q-38 24 -80.5 35t-87.5 11q-69 0 -116 -34t-76 -86.5t-41.5 -117t-12.5 -124.5q0 -50 11 -90t34 -69t59 -44.5t87 -15.5q30 0 61 4.5t54 13.5l31 219h-154q-7 0 -7 15q0 7 2 18l2 14q4 32 14 32h245l-48 -349q-43 -21 -102.5 -34
t-121.5 -13q-131 0 -198 75.5t-67 210.5q0 50 8 103.5t25.5 103.5t45.5 95t67 79t90 53.5t115 19.5q67 0 117 -15.5t84 -43.5q4 -3 4 -8q0 -8 -9 -22zM414 898q23 0 37.5 -15t14.5 -36q0 -22 -15 -42t-44 -20q-23 0 -37.5 14.5t-14.5 36.5q0 23 16 42.5t43 19.5z" />
    <glyph glyph-name="gdotaccent" unicode="&#x121;" horiz-adv-x="554" 
d="M401 284q4 27 5.5 45.5t1.5 32.5q0 44 -31 68.5t-81 24.5q-44 0 -74.5 -22t-50.5 -55.5t-29 -74.5t-9 -79q0 -68 27 -106t81 -38q41 0 77.5 16.5t62.5 43.5zM478 528q22 0 29.5 -2.5t7.5 -10.5q-1 -19 -4 -51.5t-7 -68.5l-10 -71l-7 -57l-23 -166q-8 -60 -18 -108.5
t-23 -79.5q-31 -75 -93.5 -110.5t-137.5 -35.5q-19 0 -41.5 2t-44.5 6t-40.5 9.5t-28.5 12.5q-5 3 -5 10q0 9 9 29l4 9q11 26 22 26q3 0 5 -1q27 -11 59 -17.5t64 -6.5q57 0 97 26.5t58 83.5q7 20 12 50l7 51q-30 -32 -69.5 -44.5t-77.5 -12.5q-46 0 -80 16t-56.5 44.5
t-33.5 67.5t-11 85q0 55 16 113t47.5 105t78.5 77t109 30q48 0 83 -16.5t52 -47.5l6 41q1 7 8.5 10t30.5 3h6zM328 718q23 0 37.5 -15t14.5 -36q0 -22 -15 -42t-44 -20q-23 0 -37.5 14.5t-14.5 36.5q0 23 16 42.5t43 19.5z" />
    <glyph glyph-name="Gcommaaccent" unicode="&#x122;" horiz-adv-x="622" 
d="M572 624q-12 -20 -21 -20q-2 0 -4 1q-38 24 -80.5 35t-87.5 11q-69 0 -116 -34t-76 -86.5t-41.5 -117t-12.5 -124.5q0 -50 11 -90t34 -69t59 -44.5t87 -15.5q30 0 61 4.5t54 13.5l31 219h-154q-7 0 -7 15q0 7 2 18l2 14q4 32 14 32h245l-48 -349q-43 -21 -102.5 -34
t-121.5 -13q-131 0 -198 75.5t-67 210.5q0 50 8 103.5t25.5 103.5t45.5 95t67 79t90 53.5t115 19.5q67 0 117 -15.5t84 -43.5q4 -3 4 -8q0 -8 -9 -22zM205 -276q-9 12 -3 18l18 18q11 10 20.5 21t16.5 23t7 24q0 10 -4 16l-9 14q-4 7 -8 15t-4 20q0 21 14.5 37t39.5 16
q26 0 39 -17t13 -42t-10 -50.5t-26.5 -49t-37.5 -44t-43 -35.5q-4 -2 -7 -1.5t-9 8.5z" />
    <glyph glyph-name="gcommaaccent" unicode="&#x123;" horiz-adv-x="554" 
d="M403 810q9 -12 3 -18l-18 -18q-10 -10 -20 -21t-17 -23t-7 -24q0 -10 4 -17t8.5 -13.5t8.5 -14.5t4 -20q0 -21 -14.5 -37t-39.5 -16q-26 0 -39 17t-13 42t10 50.5t26.5 49t37.5 44t43 35.5q4 2 7 1.5t9 -8.5zM401 284q4 27 5.5 45.5t1.5 32.5q0 44 -31 68.5t-81 24.5
q-44 0 -74.5 -22t-50.5 -55.5t-29 -74.5t-9 -79q0 -68 27 -106t81 -38q41 0 77.5 16.5t62.5 43.5zM478 528q22 0 29.5 -2.5t7.5 -10.5q-1 -19 -4 -51.5t-7 -68.5l-10 -71l-7 -57l-23 -166q-8 -60 -18 -108.5t-23 -79.5q-31 -75 -93.5 -110.5t-137.5 -35.5q-19 0 -41.5 2
t-44.5 6t-40.5 9.5t-28.5 12.5q-5 3 -4.5 11.5t8.5 27.5l4 9q13 31 27 25q27 -11 59 -17.5t64 -6.5q57 0 97 26.5t58 83.5q8 20 12 50l7 51q-30 -32 -69.5 -44.5t-77.5 -12.5q-46 0 -80 16t-56.5 44.5t-33.5 67.5t-11 85q0 55 16 113t47.5 105t78.5 77t109 30q48 0 83 -16.5
t52 -47.5l6 41q1 7 8.5 10t30.5 3h6z" />
    <glyph glyph-name="Hcircumflex" unicode="&#x124;" horiz-adv-x="651" 
d="M182 720q41 0 40 -11l-43 -307h308l43 307q1 6 12 8.5t30 2.5h11q41 0 40 -11l-98 -698q-1 -11 -41 -11h-11q-42 0 -41 11l44 314h-308l-44 -314q-1 -11 -41 -11h-10q-43 0 -42 11l98 698q1 6 12 8.5t31 2.5h10zM337 896q6 6 15.5 9.5t29.5 3.5h37q21 0 29.5 -4.5
t12.5 -9.5l76 -97q6 -8 -12 -26l-7 -7q-10 -10 -18 -13t-11 0l-94 96l-122 -94q-3 -3 -8.5 -1.5t-13.5 12.5l-7 9q-8 11 -9.5 16.5t3.5 10.5z" />
    <glyph glyph-name="hcircumflex" unicode="&#x125;" horiz-adv-x="572" 
d="M195 760q29 0 35.5 -3t5.5 -9l-39 -274q30 30 75.5 47t89.5 17q41 0 74 -13.5t54 -39.5q31 -38 31 -106q0 -14 -1.5 -30t-3.5 -34l-43 -303q0 -3 -1 -5t-5 -3.5t-12 -2.5t-23 -1h-6q-30 0 -36 3t-5 9l37 261q4 29 6.5 51t2.5 39q0 19 -3.5 32.5t-11.5 24.5q-24 34 -89 34
q-27 0 -58 -10t-51 -27q-10 -8 -19 -23.5t-17 -47.5q-5 -21 -10.5 -57t-11.5 -80l-28 -197q0 -3 -1 -5t-5 -3.5t-12.5 -2.5t-23.5 -1h-5q-30 0 -36.5 3t-5.5 9l104 736q0 3 1 5t5 3.5t12.5 2.5t23.5 1h6zM145 903q6 6 15.5 9.5t29.5 3.5h37q21 0 29.5 -4.5t12.5 -9.5l76 -97
q6 -8 -12 -26l-7 -7q-10 -10 -18 -13t-11 0l-94 96l-122 -94q-3 -3 -8.5 -1.5t-13.5 12.5l-7 9q-8 11 -9.5 16.5t3.5 10.5z" />
    <glyph glyph-name="Hbar" unicode="&#x126;" horiz-adv-x="671" 
d="M192 720q41 0 40 -11l-15 -107h308l15 107q1 6 12 8.5t30 2.5h11q41 0 40 -11l-15 -107h55q12 0 6 -32l-2 -11q-6 -31 -16 -31h-54l-72 -517q-1 -11 -41 -11h-11q-42 0 -41 11l44 314h-308l-44 -314q-1 -11 -41 -11h-10q-43 0 -42 11l72 517h-53q-12 0 -6 32l2 11
q6 31 16 31h52l15 107q1 6 12 8.5t31 2.5h10zM497 402l17 126h-308l-17 -126h308z" />
    <glyph glyph-name="hbar" unicode="&#x127;" horiz-adv-x="572" 
d="M195 760q29 0 35.5 -3t5.5 -9l-10 -70h146q6 0 7.5 -6.5t-1.5 -25.5l-2 -11q-3 -16 -6 -20.5t-10 -4.5h-144l-19 -136q30 30 75.5 47t89.5 17q41 0 74 -13.5t54 -39.5q31 -38 31 -106q0 -14 -1.5 -30t-3.5 -34l-43 -303q0 -3 -1 -5t-5 -3.5t-12 -2.5t-23 -1h-6
q-30 0 -36 3t-5 9l37 261q4 29 6.5 51t2.5 39q0 19 -3.5 32.5t-11.5 24.5q-24 34 -89 34q-27 0 -58 -10t-51 -27q-10 -8 -19 -23.5t-17 -47.5q-5 -21 -10.5 -57t-11.5 -80l-28 -197q0 -3 -1 -5t-5 -3.5t-12.5 -2.5t-23.5 -1h-5q-30 0 -36.5 3t-5.5 9l84 598h-63q-6 0 -7.5 6
t2.5 26l2 11q3 16 6 20.5t10 4.5h60l10 70q0 3 1 5t5 3.5t12.5 2.5t23.5 1h6z" />
    <glyph glyph-name="Itilde" unicode="&#x128;" horiz-adv-x="373" 
d="M356 720q7 0 7 -12q0 -7 -2 -16l-2 -11q-4 -29 -13 -29h-71l-82 -584h71q7 0 7 -12q0 -7 -2 -16l-2 -12q-2 -16 -5 -22t-8 -6h-234q-6 0 -6 10q0 7 2 21l1 8q2 17 4.5 23t7.5 6h71l82 584h-70q-9 0 -5 28l2 13q2 15 5 21t8 6h234zM104 807q-5 8 -7 15.5t3 12.5
q17 19 42 33t54 14q23 0 38 -6q16 -6 28 -12l24 -13q12 -6 30 -6q13 0 25 7.5t22 16.5q5 4 10.5 3t13.5 -12l6 -8q7 -10 8 -16.5t-4 -13.5q-15 -20 -39 -36t-53 -16q-20 0 -34.5 6t-27.5 12.5t-27 12.5t-32 6q-15 0 -26.5 -6.5t-22.5 -17.5q-4 -4 -11 0t-14 15z" />
    <glyph glyph-name="itilde" unicode="&#x129;" horiz-adv-x="235" 
d="M164 528q29 0 34 -3.5t4 -8.5l-71 -504q0 -3 -1 -5t-5 -3.5t-12 -2.5t-23 -1h-6q-30 0 -36.5 3t-5.5 9l71 504q1 6 8 9t37 3h6zM30 645q-5 8 -7 15.5t3 12.5q17 19 42 33t54 14q23 0 38 -6t27 -12l25 -13q12 -6 30 -6q13 0 25 7.5t22 16.5q5 4 10.5 3t13.5 -12l6 -8
q7 -10 8 -16.5t-4 -13.5q-15 -20 -39 -36t-53 -16q-20 0 -34.5 6t-27.5 12.5t-27 12.5t-32 6q-15 0 -26.5 -6.5t-22.5 -17.5q-4 -4 -11 0t-14 15z" />
    <glyph glyph-name="Imacron" unicode="&#x12a;" horiz-adv-x="373" 
d="M356 720q7 0 7 -12q0 -7 -2 -16l-2 -11q-4 -29 -13 -29h-71l-82 -584h71q7 0 7 -12q0 -7 -2 -16l-2 -12q-2 -16 -5 -22t-8 -6h-234q-6 0 -6 10q0 7 2 21l1 8q2 17 4.5 23t7.5 6h71l82 584h-70q-9 0 -5 28l2 13q2 15 5 21t8 6h234zM394 874q12 0 6 -30l-2 -12
q-6 -31 -14 -31h-270q-12 0 -6 32l2 12q5 29 14 29h270z" />
    <glyph glyph-name="imacron" unicode="&#x12b;" horiz-adv-x="235" 
d="M164 528q29 0 34 -3.5t4 -8.5l-71 -504q0 -3 -1 -5t-5 -3.5t-12 -2.5t-23 -1h-6q-30 0 -36.5 3t-5.5 9l71 504q1 6 8 9t37 3h6zM315 693q12 0 6 -30l-2 -12q-6 -31 -14 -31h-270q-12 0 -6 32l2 12q5 29 14 29h270z" />
    <glyph glyph-name="Ibreve" unicode="&#x12c;" horiz-adv-x="373" 
d="M356 720q7 0 7 -12q0 -7 -2 -16l-2 -11q-4 -29 -13 -29h-71l-82 -584h71q7 0 7 -12q0 -7 -2 -16l-2 -12q-2 -16 -5 -22t-8 -6h-234q-6 0 -6 10q0 7 2 21l1 8q2 17 4.5 23t7.5 6h71l82 584h-70q-9 0 -5 28l2 13q2 15 5 21t8 6h234zM157 903q16 0 22 -2.5t6 -7.5
q-2 -29 16.5 -44t53.5 -15q29 0 48 15.5t27 43.5q2 5 8 7.5t22 2.5h13q32 0 31 -10q-12 -61 -54.5 -90t-102.5 -29q-32 0 -58 7t-44 21.5t-26.5 37t-6.5 53.5q1 10 33 10h12z" />
    <glyph glyph-name="ibreve" unicode="&#x12d;" horiz-adv-x="235" 
d="M164 528q29 0 34 -3.5t4 -8.5l-71 -504q0 -3 -1 -5t-5 -3.5t-12 -2.5t-23 -1h-6q-30 0 -36.5 3t-5.5 9l71 504q1 6 8 9t37 3h6zM80 722q16 0 22 -2.5t6 -7.5q-2 -29 16.5 -44t53.5 -15q29 0 48 15.5t27 43.5q2 5 8 7.5t22 2.5h13q32 0 31 -10q-12 -61 -54.5 -90
t-102.5 -29q-32 0 -58 7t-44 21.5t-26.5 37t-6.5 53.5q1 10 33 10h12z" />
    <glyph glyph-name="Iogonek" unicode="&#x12e;" horiz-adv-x="373" 
d="M20 0q-5 0 -5.5 6.5t1.5 24.5l1 8q2 17 4.5 23t7.5 6h71l82 584h-70q-9 0 -5 28l2 13q2 15 5 21t8 6h234q10 0 5 -28l-2 -11q-4 -29 -13 -29h-71l-82 -584h71q10 0 5 -28l-2 -12q-2 -16 -5 -22t-8 -6h-15q-29 0 -55.5 -10.5t-44.5 -28.5q-14 -14 -22 -30.5t-8 -36.5
q0 -22 14 -30.5t31 -8.5q8 0 18 1t21 5q8 2 11 -22l1 -9q1 -14 -0.5 -19.5t-5.5 -7.5q-14 -6 -31.5 -10t-37.5 -4q-51 0 -76 26.5t-25 61.5q0 38 24.5 70t63.5 53h-97z" />
    <glyph glyph-name="iogonek" unicode="&#x12f;" horiz-adv-x="235" 
d="M-38 -123q0 18 6.5 36t18 34.5t25.5 31t29 25.5l72 512q1 6 8 9t37 3h6q29 0 34 -3.5t4 -8.5l-71 -499q-1 -5 -2.5 -8.5t-6.5 -6.5q-35 -20 -57.5 -51t-22.5 -60q0 -21 13 -28.5t32 -7.5q8 0 18.5 1.5t20.5 4.5q5 2 7 -3t4 -19l1 -9q2 -17 0.5 -21t-6.5 -6
q-14 -6 -31.5 -10t-37.5 -4q-52 0 -76.5 26.5t-24.5 61.5zM186 753q26 0 42 -16.5t16 -40.5t-17 -46.5t-49 -22.5q-26 0 -42 16.5t-16 40.5q0 26 18 47.5t48 21.5z" />
    <glyph glyph-name="Idotaccent" unicode="&#x130;" horiz-adv-x="373" 
d="M356 720q7 0 7 -12q0 -7 -2 -16l-2 -11q-4 -29 -13 -29h-71l-82 -584h71q7 0 7 -12q0 -7 -2 -16l-2 -12q-2 -16 -5 -22t-8 -6h-234q-6 0 -6 10q0 7 2 21l1 8q2 17 4.5 23t7.5 6h71l82 584h-70q-9 0 -5 28l2 13q2 15 5 21t8 6h234zM257 898q23 0 37.5 -15t14.5 -36
q0 -22 -15 -42t-44 -20q-23 0 -37.5 14.5t-14.5 36.5q0 23 16 42.5t43 19.5z" />
    <glyph glyph-name="dotlessi" unicode="&#x131;" horiz-adv-x="235" 
d="M164 528q29 0 34 -3.5t4 -8.5l-71 -504q0 -3 -1 -5t-5 -3.5t-12 -2.5t-23 -1h-6q-30 0 -36.5 3t-5.5 9l71 504q1 6 8 9t37 3h6z" />
    <glyph glyph-name="IJ" unicode="&#x132;" horiz-adv-x="806" 
d="M356 720q7 0 7 -12q0 -7 -2 -16l-2 -11q-4 -29 -13 -29h-71l-82 -584h71q7 0 7 -12q0 -7 -2 -16l-2 -12q-2 -16 -5 -22t-8 -6h-234q-6 0 -6 10q0 7 2 21l1 8q2 17 4.5 23t7.5 6h71l82 584h-70q-9 0 -5 28l2 13q2 15 5 21t8 6h234zM751 720q42 0 41 -11l-69 -493
q-8 -53 -23 -95t-41 -71t-63.5 -44.5t-89.5 -15.5q-44 0 -84 12t-63 35q-3 3 -3 10.5t12 23.5l11 15q11 15 17.5 18t12.5 -1q21 -14 46.5 -24t53.5 -10q31 0 52 11.5t34.5 30.5t21 44t11.5 52l70 502q1 6 12 8.5t31 2.5h10z" />
    <glyph glyph-name="ij" unicode="&#x133;" horiz-adv-x="471" 
d="M164 528q29 0 34 -3.5t4 -8.5l-71 -504q0 -3 -1 -5t-5 -3.5t-12 -2.5t-23 -1h-6q-30 0 -36.5 3t-5.5 9l71 504q1 6 8 9t37 3h6zM186 753q26 0 42 -16.5t16 -40.5t-17 -46.5t-49 -22.5q-26 0 -42 16.5t-16 40.5q0 26 18 47.5t48 21.5zM396 528q30 0 35 -3.5t4 -8.5
l-73 -519q-9 -65 -27.5 -109t-45.5 -71t-62.5 -38.5t-77.5 -11.5q-16 0 -37 4t-31 11q-5 3 -5 7.5t6 22.5l6 17q5 12 9 18.5t10 4.5q11 -4 23.5 -6.5t22.5 -2.5q27 0 46.5 7.5t34 25.5t24 47t15.5 72l73 521q1 6 8 9t37 3h5zM418 753q26 0 42 -16.5t16 -40.5t-17 -46.5
t-49 -22.5q-26 0 -42 16.5t-16 40.5q0 26 18 47.5t48 21.5z" />
    <glyph glyph-name="Jcircumflex" unicode="&#x134;" horiz-adv-x="433" 
d="M378 720q42 0 41 -11l-69 -493q-8 -53 -23 -95t-41 -71t-63.5 -44.5t-89.5 -15.5q-44 0 -84 12t-63 35q-3 3 -3 10.5t12 23.5l11 15q11 15 17.5 18t12.5 -1q21 -14 46.5 -24t53.5 -10q31 0 52 11.5t34.5 30.5t21 44t11.5 52l70 502q1 6 12 8.5t31 2.5h10zM332 896
q6 6 15.5 9.5t29.5 3.5h37q21 0 29.5 -4.5t12.5 -9.5l76 -97q6 -8 -12 -26l-7 -7q-10 -10 -18 -13t-11 0l-94 96l-122 -94q-3 -3 -8.5 -1.5t-13.5 12.5l-7 9q-8 11 -9.5 16.5t3.5 10.5z" />
    <glyph glyph-name="jcircumflex" unicode="&#x135;" horiz-adv-x="236" 
d="M161 528q30 0 35 -3.5t4 -8.5l-73 -519q-9 -65 -27.5 -109t-45.5 -71t-62.5 -38.5t-77.5 -11.5q-16 0 -37 4t-31 11q-5 3 -4.5 8.5t5.5 21.5l6 17q5 12 9 18.5t10 4.5q11 -4 23.5 -6.5t22.5 -2.5q27 0 46.5 7.5t34 25.5t24 47t15.5 72l73 521q1 6 8 9t37 3h5zM115 724
q6 6 15.5 9.5t29.5 3.5h37q21 0 29.5 -4.5t12.5 -9.5l76 -97q6 -8 -12 -26l-7 -7q-10 -10 -18 -13t-11 0l-94 96l-122 -94q-3 -3 -8.5 -1.5t-13.5 12.5l-7 9q-8 11 -9.5 16.5t3.5 10.5z" />
    <glyph glyph-name="Kcommaaccent" unicode="&#x136;" horiz-adv-x="576" 
d="M181 720q42 0 41 -11l-48 -337l92 90q73 71 128 134t88 114q4 6 13 8t32 2h11q26 0 34 -2q4 -1 4 -5q0 -2 -1 -4q-12 -22 -35 -54.5t-55.5 -71t-72.5 -81.5t-85 -86l182 -405q2 -5 -10.5 -8t-32.5 -3h-16q-41 0 -46 11l-148 345l-97 -92l-35 -253q-1 -11 -41 -11h-10
q-43 0 -42 11l98 698q1 11 42 11h10zM170 -276q-9 12 -3 18l18 18q11 10 20.5 21t16.5 23t7 24q0 10 -4 16l-9 14q-4 7 -8 15t-4 20q0 21 14.5 37t39.5 16q26 0 39 -17t13 -42t-10 -50.5t-26.5 -49t-37.5 -44t-43 -35.5q-4 -2 -7 -1.5t-9 8.5z" />
    <glyph glyph-name="kcommaaccent" unicode="&#x137;" horiz-adv-x="482" 
d="M195 760q27 0 34 -3.5t6 -8.5l-62 -432l64 54l41 36l36 32q17 17 34 36l39 43q5 6 15.5 8.5t37.5 2.5q42 0 42 -10q0 -2 -2 -5q-10 -14 -28 -35t-43 -47l-55 -55q-31 -29 -65 -58l140 -302q2 -5 -4 -10.5t-35 -5.5h-5q-29 0 -39 3.5t-12 9.5l-116 251l-58 -47l-29 -205
q-1 -5 -7 -8.5t-35 -3.5h-5q-30 0 -36.5 3t-5.5 9l104 736q1 6 8 9t36 3h5zM140 -276q-9 12 -3 18l18 18q11 10 20.5 21t16.5 23t7 24q0 10 -4 16l-9 14q-4 7 -8 15t-4 20q0 21 14.5 37t39.5 16q26 0 39 -17t13 -42t-10 -50.5t-26.5 -49t-37.5 -44t-43 -35.5q-4 -2 -7 -1.5
t-9 8.5z" />
    <glyph glyph-name="kgreenlandic" unicode="&#x138;" horiz-adv-x="482" 
d="M162 528q27 0 34 -3.5t6 -8.5l-29 -200l64 54l41 36l36 32q16 16 34 36l39 43q5 6 15.5 8.5t37.5 2.5q50 0 40 -15q-10 -14 -28 -35t-43 -47l-55 -55q-30 -29 -65 -58l140 -302q2 -5 -4 -10.5t-35 -5.5h-5q-29 0 -39 3.5t-12 9.5l-116 251l-58 -47l-29 -205
q-1 -5 -7 -8.5t-35 -3.5h-5q-30 0 -36.5 3t-5.5 9l71 504q1 6 8 9t36 3h5z" />
    <glyph glyph-name="Lacute" unicode="&#x139;" horiz-adv-x="496" 
d="M182 720q41 0 40 -12l-88 -630h280q7 0 7 -14q0 -7 -2 -19l-2 -11q-6 -34 -14 -34h-374l100 708q1 8 12 10t31 2h10zM289 914q28 0 35 -4.5t2 -9.5l-111 -128q-4 -4 -11 -6.5t-25 -2.5h-12q-23 0 -27 3.5t0 8.5l90 128q5 6 14 8.5t30 2.5h15z" />
    <glyph glyph-name="lacute" unicode="&#x13a;" horiz-adv-x="251" 
d="M178 760q23 0 30.5 -2.5t7.5 -10.5q0 -26 -6 -102.5t-23 -193.5l-47 -332q-1 -7 -1.5 -13t-0.5 -11q0 -26 32 -26h10q7 0 4 -26l-1 -7q-4 -27 -12 -29q-11 -4 -23.5 -6t-23.5 -2q-35 0 -55 17t-20 54q0 27 6 68l47 335q6 43 11 85t8.5 78.5t5.5 65t2 45.5q0 8 9 10.5
t35 2.5h5zM280 937q28 0 35 -4.5t2 -9.5l-111 -128q-4 -4 -11 -6.5t-25 -2.5h-12q-23 0 -27 3.5t0 8.5l90 128q4 5 13.5 8t30.5 3h15z" />
    <glyph glyph-name="Lcommaaccent" unicode="&#x13b;" horiz-adv-x="496" 
d="M182 720q41 0 40 -12l-88 -630h280q7 0 7 -14q0 -7 -2 -19l-2 -11q-6 -34 -14 -34h-374l100 708q1 8 12 10t31 2h10zM132 -276q-9 12 -3 18l18 18q11 10 20.5 21t16.5 23t7 24q0 10 -4 16l-9 14q-4 7 -8 15t-4 20q0 21 14.5 37t39.5 16q26 0 39 -17t13 -42t-10 -50.5
t-26.5 -49t-37.5 -44t-43 -35.5q-4 -2 -7 -1.5t-9 8.5z" />
    <glyph glyph-name="lcommaaccent" unicode="&#x13c;" horiz-adv-x="251" 
d="M178 760q23 0 30.5 -2.5t7.5 -10.5q0 -26 -6 -102.5t-23 -193.5l-47 -332q-1 -7 -1.5 -13t-0.5 -11q0 -26 32 -26h10q7 0 4 -26l-1 -7q-4 -27 -12 -29q-11 -4 -23.5 -6t-23.5 -2q-35 0 -55 17t-20 54q0 27 6 68l47 335q6 43 11 85t8.5 78.5t5.5 65t2 45.5q0 8 9 10.5
t35 2.5h5zM1 -276q-9 12 -3 18l18 18q11 10 20.5 21t16.5 23t7 24q0 10 -4 16l-9 14q-4 7 -8 15t-4 20q0 21 14.5 37t39.5 16q26 0 39 -17t13 -42t-10 -50.5t-26.5 -49t-37.5 -44t-43 -35.5q-4 -2 -7 -1.5t-9 8.5z" />
    <glyph glyph-name="Lcaron" unicode="&#x13d;" horiz-adv-x="496" 
d="M182 720q41 0 40 -12l-88 -630h280q7 0 7 -14q0 -7 -2 -19l-2 -11q-6 -34 -14 -34h-374l100 708q1 8 12 10t31 2h10zM273 513q-9 12 -3 18l18 18q11 10 20.5 21t16.5 23t7 24q0 10 -4 16l-9 14q-4 7 -8 15t-4 20q0 21 14.5 37t39.5 16q26 0 39 -17t13 -42t-10 -50.5
t-26.5 -49t-37.5 -44t-43 -35.5q-4 -2 -7 -1.5t-9 8.5z" />
    <glyph glyph-name="lcaron" unicode="&#x13e;" horiz-adv-x="330" 
d="M178 760q23 0 30.5 -2.5t7.5 -10.5q0 -26 -6 -102.5t-23 -193.5l-47 -332q-1 -7 -1.5 -13t-0.5 -11q0 -26 32 -26h10q7 0 4 -26l-1 -7q-4 -27 -12 -29q-11 -4 -23.5 -6t-23.5 -2q-35 0 -55 17t-20 54q0 27 6 68l47 335q6 43 11 85t8.5 78.5t5.5 65t2 45.5q0 8 9 10.5
t35 2.5h5zM250 508q-9 12 -3 18l18 18q11 10 20.5 21t16.5 23t7 24q0 10 -4 16l-9 14q-4 7 -8 15t-4 20q0 21 14.5 37t39.5 16q26 0 39 -17t13 -42t-10 -50.5t-26.5 -49t-37.5 -44t-43 -35.5q-4 -2 -7 -1.5t-9 8.5z" />
    <glyph glyph-name="Ldot" unicode="&#x13f;" horiz-adv-x="496" 
d="M182 720q41 0 40 -12l-88 -630h280q7 0 7 -14q0 -7 -2 -19l-2 -11q-6 -34 -14 -34h-374l100 708q1 8 12 10t31 2h10zM362 441q23 0 37.5 -15t14.5 -36q0 -22 -15 -42t-44 -20q-23 0 -37.5 14.5t-14.5 36.5q0 23 16 42.5t43 19.5z" />
    <glyph glyph-name="ldot" unicode="&#x140;" horiz-adv-x="345" 
d="M178 760q23 0 30.5 -2.5t7.5 -10.5q0 -26 -6 -102.5t-23 -193.5l-47 -332q-1 -7 -1.5 -13t-0.5 -11q0 -26 32 -26h10q7 0 4 -26l-1 -7q-4 -27 -12 -29q-11 -4 -23.5 -6t-23.5 -2q-35 0 -55 17t-20 54q0 27 6 68l47 335q6 43 11 85t8.5 78.5t5.5 65t2 45.5q0 8 9 10.5
t35 2.5h5zM299 431q23 0 37.5 -15t14.5 -36q0 -22 -15 -42t-44 -20q-23 0 -37.5 14.5t-14.5 36.5q0 23 16 42.5t43 19.5z" />
    <glyph glyph-name="Lslash" unicode="&#x141;" horiz-adv-x="503" 
d="M189 720q41 0 40 -12l-42 -298l129 90q5 4 8 -2.5t1 -24.5l-3 -23q-4 -29 -13 -36l-134 -91l-34 -245h280q11 0 5 -33l-2 -11q-6 -34 -14 -34h-374l37 260l-64 -44q-5 -3 -7.5 2.5t-0.5 23.5l3 21q4 31 13 37l69 47l50 361q1 8 12 10t31 2h10z" />
    <glyph glyph-name="lslash" unicode="&#x142;" horiz-adv-x="266" 
d="M186 760q23 0 30.5 -2.5t7.5 -10.5q0 -26 -6 -102.5t-23 -193.5l-2 -9l73 55q5 4 7.5 -7t0.5 -28l-1 -7q-4 -32 -13 -39l-78 -58l-34 -239q-1 -7 -1.5 -13t-0.5 -11q0 -26 32 -26h10q7 0 4 -26l-1 -7q-4 -27 -12 -29q-11 -4 -23.5 -6t-23.5 -2q-35 0 -55 17t-20 54
q0 27 6 68l22 152l-58 -42q-4 -3 -8 4t0 25l2 12q6 34 15 41l60 44l14 99q6 43 11 85t8.5 78.5t5.5 65t2 45.5q0 8 9 10.5t35 2.5h5z" />
    <glyph glyph-name="Nacute" unicode="&#x143;" horiz-adv-x="664" 
d="M178 720q16 0 25 -0.5t14.5 -2t7.5 -4t4 -6.5l250 -553l78 555q1 11 39 11h10q38 0 37 -11l-98 -698q-1 -7 -10 -9t-36 -2h-4q-31 0 -39.5 2.5t-12.5 10.5l-251 554l-78 -556q-1 -11 -38 -11h-10q-40 0 -39 11l98 698q1 7 10.5 9t37.5 2h5zM487 914q28 0 35 -4.5t2 -9.5
l-111 -128q-4 -4 -11 -6.5t-25 -2.5h-12q-23 0 -27 3.5t0 8.5l90 128q5 6 14 8.5t30 2.5h15z" />
    <glyph glyph-name="nacute" unicode="&#x144;" horiz-adv-x="573" 
d="M160 528q26 0 32.5 -3t5.5 -9l-5 -45h1q15 15 34.5 27.5t41.5 21.5t45.5 13.5t46.5 4.5q76 0 117.5 -42t41.5 -117q0 -14 -1.5 -29.5t-3.5 -33.5l-43 -304q0 -3 -1 -5t-5 -3.5t-12 -2.5t-23 -1h-6q-30 0 -36.5 3t-5.5 9l37 261q9 58 9 92q0 48 -26 68.5t-77 20.5
q-27 0 -58 -10t-51 -27q-10 -8 -19 -23.5t-17 -47.5q-5 -21 -10.5 -57t-11.5 -80l-28 -197q0 -3 -1 -5t-5 -3.5t-12.5 -2.5t-23.5 -1h-5q-30 0 -36.5 3t-5.5 9l48 341q4 25 7 50.5t6 47t5 39.5l3 26q1 6 7.5 9t35.5 3h5zM436 732q28 0 35 -4.5t2 -9.5l-111 -128
q-4 -4 -11 -6.5t-25 -2.5h-12q-23 0 -27 3.5t0 8.5l90 128q4 5 13.5 8t30.5 3h15z" />
    <glyph glyph-name="Ncommaaccent" unicode="&#x145;" horiz-adv-x="664" 
d="M178 720q16 0 25 -0.5t14.5 -2t7.5 -4t4 -6.5l250 -553l78 555q1 11 39 11h10q38 0 37 -11l-98 -698q-1 -7 -10 -9t-36 -2h-4q-31 0 -39.5 2.5t-12.5 10.5l-251 554l-78 -556q-1 -11 -38 -11h-10q-40 0 -39 11l98 698q1 7 10.5 9t37.5 2h5zM197 -276q-9 12 -3 18l18 18
q11 10 20.5 21t16.5 23t7 24q0 10 -4 16l-9 14q-4 7 -8 15t-4 20q0 21 14.5 37t39.5 16q26 0 39 -17t13 -42t-10 -50.5t-26.5 -49t-37.5 -44t-43 -35.5q-4 -2 -7 -1.5t-9 8.5z" />
    <glyph glyph-name="ncommaaccent" unicode="&#x146;" horiz-adv-x="573" 
d="M160 528q26 0 32.5 -3t5.5 -9l-5 -45h1q15 15 34.5 27.5t41.5 21.5t45.5 13.5t46.5 4.5q76 0 117.5 -42t41.5 -117q0 -14 -1.5 -29.5t-3.5 -33.5l-43 -304q0 -3 -1 -5t-5 -3.5t-12 -2.5t-23 -1h-6q-30 0 -36.5 3t-5.5 9l37 261q9 58 9 92q0 48 -26 68.5t-77 20.5
q-27 0 -58 -10t-51 -27q-10 -8 -19 -23.5t-17 -47.5q-5 -21 -10.5 -57t-11.5 -80l-28 -197q0 -3 -1 -5t-5 -3.5t-12.5 -2.5t-23.5 -1h-5q-30 0 -36.5 3t-5.5 9l48 341q4 25 7 50.5t6 47t5 39.5l3 26q1 6 7.5 9t35.5 3h5zM164 -276q-9 12 -3 18l18 18q11 10 20.5 21t16.5 23
t7 24q0 10 -4 16l-9 14q-4 7 -8 15t-4 20q0 21 14.5 37t39.5 16q26 0 39 -17t13 -42t-10 -50.5t-26.5 -49t-37.5 -44t-43 -35.5q-4 -2 -7 -1.5t-9 8.5z" />
    <glyph glyph-name="Ncaron" unicode="&#x147;" horiz-adv-x="664" 
d="M178 720q16 0 25 -0.5t14.5 -2t7.5 -4t4 -6.5l250 -553l78 555q1 11 39 11h10q38 0 37 -11l-98 -698q-1 -7 -10 -9t-36 -2h-4q-31 0 -39.5 2.5t-12.5 10.5l-251 554l-78 -556q-1 -11 -38 -11h-10q-40 0 -39 11l98 698q1 7 10.5 9t37.5 2h5zM287 912q9 8 16.5 13t11.5 0
l95 -98l120 95q5 3 9.5 1.5t13.5 -12.5l7 -9q9 -11 9.5 -16.5t-4.5 -10.5l-101 -95q-6 -6 -15 -9.5t-30 -3.5h-37q-21 0 -28.5 3t-13.5 11l-76 96q-4 5 1.5 12.5t13.5 15.5z" />
    <glyph glyph-name="ncaron" unicode="&#x148;" horiz-adv-x="573" 
d="M160 528q26 0 32.5 -3t5.5 -9l-5 -45h1q15 15 34.5 27.5t41.5 21.5t45.5 13.5t46.5 4.5q76 0 117.5 -42t41.5 -117q0 -14 -1.5 -29.5t-3.5 -33.5l-43 -304q0 -3 -1 -5t-5 -3.5t-12 -2.5t-23 -1h-6q-30 0 -36.5 3t-5.5 9l37 261q9 58 9 92q0 48 -26 68.5t-77 20.5
q-27 0 -58 -10t-51 -27q-10 -8 -19 -23.5t-17 -47.5q-5 -21 -10.5 -57t-11.5 -80l-28 -197q0 -3 -1 -5t-5 -3.5t-12.5 -2.5t-23.5 -1h-5q-30 0 -36.5 3t-5.5 9l48 341q4 25 7 50.5t6 47t5 39.5l3 26q1 6 7.5 9t35.5 3h5zM243 720q9 8 16.5 13t11.5 0l95 -98l120 95
q5 3 9.5 1.5t13.5 -12.5l7 -9q9 -11 9.5 -16.5t-4.5 -10.5l-101 -95q-6 -6 -15 -9.5t-30 -3.5h-37q-21 0 -28.5 3t-13.5 11l-76 96q-4 5 1.5 12.5t13.5 15.5z" />
    <glyph glyph-name="napostrophe" unicode="&#x149;" horiz-adv-x="654" 
d="M241 528q26 0 32.5 -3t5.5 -9l-5 -45h1q15 15 34.5 27.5t41.5 21.5t45.5 13.5t46.5 4.5q76 0 117.5 -42t41.5 -117q0 -14 -1.5 -29.5t-3.5 -33.5l-43 -304q0 -3 -1 -5t-5 -3.5t-12 -2.5t-23 -1h-6q-30 0 -36.5 3t-5.5 9l37 261q9 58 9 92q0 48 -26 68.5t-77 20.5
q-27 0 -58 -10t-51 -27q-10 -8 -19 -23.5t-17 -47.5q-5 -21 -10.5 -57t-11.5 -80l-28 -197q0 -3 -1 -5t-5 -3.5t-12.5 -2.5t-23.5 -1h-5q-30 0 -36.5 3t-5.5 9l48 341q4 25 7 50.5t6 47t5 39.5l3 26q1 6 7.5 9t35.5 3h5zM18 463q-5 5 -6.5 10.5t3.5 9.5l23 21q13 12 24.5 25
t19.5 27.5t8 28.5q0 13 -5 21t-10.5 15.5t-10.5 17t-5 26.5q0 26 18 45.5t47 19.5q32 0 48 -20.5t16 -51.5q0 -30 -12 -61t-32 -59.5t-45 -53t-52 -42.5q-5 -3 -9.5 -0.5t-8.5 7.5z" />
    <glyph glyph-name="Eng" unicode="&#x14a;" horiz-adv-x="664" 
d="M341 -107q44 0 71 23t41 77l-261 574l-78 -556q-1 -11 -38 -11h-10q-40 0 -39 11l98 698q1 7 10.5 9t37.5 2h5q16 0 25 -0.5t14.5 -2t7.5 -4t4 -6.5l250 -553l78 555q1 11 39 11h10q38 0 37 -11l-93 -662q-9 -63 -27.5 -107t-45.5 -71.5t-62.5 -39.5t-77.5 -12
q-16 0 -37 4t-31 11q-5 3 -4.5 8.5t5.5 21.5l6 17q5 12 9 18.5t10 4.5q11 -4 23.5 -6.5t22.5 -2.5z" />
    <glyph glyph-name="eng" unicode="&#x14b;" horiz-adv-x="573" 
d="M421 273q4 29 6.5 52t2.5 40q0 48 -26 68.5t-77 20.5q-27 0 -58 -10t-51 -27q-10 -8 -19 -23.5t-17 -47.5q-5 -21 -10.5 -57t-11.5 -80l-28 -197q0 -3 -1 -5t-5 -3.5t-12.5 -2.5t-23.5 -1h-5q-30 0 -36.5 3t-5.5 9l48 341q4 25 7 50.5t6 47t5 39.5l3 26q1 6 7.5 9t35.5 3
h5q26 0 32.5 -3t5.5 -9l-5 -45h1q15 15 34.5 27.5t41.5 21.5t45.5 13.5t46.5 4.5q76 0 117.5 -42t41.5 -117q0 -14 -1.5 -29.5t-3.5 -33.5l-38 -269q-9 -63 -27.5 -107t-45.5 -71t-62.5 -39.5t-77.5 -12.5q-16 0 -37 4t-31 11q-5 3 -4.5 8.5t5.5 21.5l6 17q5 12 9 18.5
t10 4.5q11 -4 23.5 -6.5t22.5 -2.5q53 0 80.5 34.5t39.5 117.5z" />
    <glyph glyph-name="Omacron" unicode="&#x14c;" horiz-adv-x="683" 
d="M376 650q-55 0 -100 -28t-76.5 -76.5t-49 -113t-17.5 -137.5q0 -111 43.5 -168t131.5 -57q56 0 101 28.5t76.5 77.5t48 113.5t16.5 135.5q0 112 -43.5 168.5t-130.5 56.5zM391 730q118 0 187 -73t69 -222q0 -92 -25 -173t-71.5 -141.5t-111.5 -95.5t-145 -35
q-59 0 -107 18t-81.5 54.5t-51.5 91.5t-18 130q0 93 25.5 174t72 141.5t112 95.5t145.5 35zM551 874q12 0 6 -30l-2 -12q-6 -31 -14 -31h-270q-12 0 -6 32l2 12q5 29 14 29h270z" />
    <glyph glyph-name="omacron" unicode="&#x14d;" horiz-adv-x="553" 
d="M314 538q104 0 153.5 -58t49.5 -163q0 -72 -20.5 -132t-57.5 -103.5t-88.5 -67.5t-112.5 -24q-105 0 -153.5 58t-48.5 161q0 73 21 133.5t58.5 104t88 67.5t110.5 24zM300 458q-35 0 -66.5 -17t-54.5 -47.5t-36.5 -74.5t-13.5 -98q0 -30 6 -57.5t20 -48.5t37.5 -33
t59.5 -12t67 17t54 48t36 74.5t13 97.5q0 30 -5.5 57.5t-19.5 48t-37.5 33t-59.5 12.5zM471 693q12 0 6 -30l-2 -12q-6 -31 -14 -31h-270q-12 0 -6 32l2 12q5 29 14 29h270z" />
    <glyph glyph-name="Obreve" unicode="&#x14e;" horiz-adv-x="683" 
d="M376 650q-55 0 -100 -28t-76.5 -76.5t-49 -113t-17.5 -137.5q0 -111 43.5 -168t131.5 -57q56 0 101 28.5t76.5 77.5t48 113.5t16.5 135.5q0 112 -43.5 168.5t-130.5 56.5zM391 730q118 0 187 -73t69 -222q0 -92 -25 -173t-71.5 -141.5t-111.5 -95.5t-145 -35
q-59 0 -107 18t-81.5 54.5t-51.5 91.5t-18 130q0 93 25.5 174t72 141.5t112 95.5t145.5 35zM313 903q16 0 22 -2.5t6 -7.5q-2 -29 16.5 -44t53.5 -15q29 0 48 15.5t27 43.5q2 5 8 7.5t22 2.5h13q32 0 31 -10q-12 -61 -54.5 -90t-102.5 -29q-32 0 -58 7t-44 21.5t-26.5 37
t-6.5 53.5q1 10 33 10h12z" />
    <glyph glyph-name="obreve" unicode="&#x14f;" horiz-adv-x="553" 
d="M314 538q104 0 153.5 -58t49.5 -163q0 -72 -20.5 -132t-57.5 -103.5t-88.5 -67.5t-112.5 -24q-105 0 -153.5 58t-48.5 161q0 73 21 133.5t58.5 104t88 67.5t110.5 24zM300 458q-35 0 -66.5 -17t-54.5 -47.5t-36.5 -74.5t-13.5 -98q0 -30 6 -57.5t20 -48.5t37.5 -33
t59.5 -12t67 17t54 48t36 74.5t13 97.5q0 30 -5.5 57.5t-19.5 48t-37.5 33t-59.5 12.5zM234 722q16 0 22 -2.5t6 -7.5q-2 -29 16.5 -44t53.5 -15q29 0 48 15.5t27 43.5q2 5 8 7.5t22 2.5h13q32 0 31 -10q-12 -61 -54.5 -90t-102.5 -29q-32 0 -58 7t-44 21.5t-26.5 37
t-6.5 53.5q1 10 33 10h12z" />
    <glyph glyph-name="Ohungarumlaut" unicode="&#x150;" horiz-adv-x="683" 
d="M376 650q-55 0 -100 -28t-76.5 -76.5t-49 -113t-17.5 -137.5q0 -111 43.5 -168t131.5 -57q56 0 101 28.5t76.5 77.5t48 113.5t16.5 135.5q0 112 -43.5 168.5t-130.5 56.5zM391 730q118 0 187 -73t69 -222q0 -92 -25 -173t-71.5 -141.5t-111.5 -95.5t-145 -35
q-59 0 -107 18t-81.5 54.5t-51.5 91.5t-18 130q0 93 25.5 174t72 141.5t112 95.5t145.5 35zM387 914q28 0 34.5 -4t1.5 -10l-101 -128q-4 -5 -11.5 -7.5t-22.5 -2.5h-12q-22 0 -25.5 3.5t0.5 9.5l80 128q3 5 12.5 8t29.5 3h14zM555 914q28 0 34.5 -4t1.5 -10l-101 -128
q-4 -5 -11.5 -7.5t-22.5 -2.5h-12q-22 0 -25.5 3.5t0.5 9.5l80 128q3 5 12.5 8t29.5 3h14z" />
    <glyph glyph-name="ohungarumlaut" unicode="&#x151;" horiz-adv-x="553" 
d="M314 538q104 0 153.5 -58t49.5 -163q0 -72 -20.5 -132t-57.5 -103.5t-88.5 -67.5t-112.5 -24q-105 0 -153.5 58t-48.5 161q0 73 21 133.5t58.5 104t88 67.5t110.5 24zM300 458q-35 0 -66.5 -17t-54.5 -47.5t-36.5 -74.5t-13.5 -98q0 -30 6 -57.5t20 -48.5t37.5 -33
t59.5 -12t67 17t54 48t36 74.5t13 97.5q0 30 -5.5 57.5t-19.5 48t-37.5 33t-59.5 12.5zM321 732q28 0 34.5 -4t1.5 -10l-101 -128q-4 -5 -11.5 -7.5t-22.5 -2.5h-12q-22 0 -25.5 3.5t0.5 9.5l80 128q3 5 12.5 8t29.5 3h14zM489 732q28 0 34.5 -4t1.5 -10l-101 -128
q-4 -5 -11.5 -7.5t-22.5 -2.5h-12q-22 0 -25.5 3.5t0.5 9.5l80 128q3 5 12.5 8t29.5 3h14z" />
    <glyph glyph-name="OE" unicode="&#x152;" horiz-adv-x="918" 
d="M909 720q5 0 5.5 -9.5t-1.5 -23.5l-2 -10q-6 -34 -14 -34h-298l-34 -240h254q10 0 5 -32l-2 -12q-2 -14 -5.5 -23.5t-8.5 -9.5h-254l-34 -248h303q9 0 4 -31l-2 -13q-2 -15 -5.5 -24.5t-8.5 -9.5h-394q-28 -5 -57 -7.5t-53 -2.5q-63 0 -112.5 17.5t-84 54t-53 93
t-18.5 134.5q0 95 25.5 176t72.5 140t114 92t150 33q29 0 59.5 -3t57.5 -7h391zM506 640q-24 6 -54 9t-57 3q-63 0 -111.5 -26.5t-81 -74t-49.5 -113t-17 -142.5q0 -121 46 -175t147 -54q22 0 49.5 2.5t48.5 7.5z" />
    <glyph glyph-name="oe" unicode="&#x153;" horiz-adv-x="894" 
d="M498 232q-1 -6 -1 -12v-12q0 -71 36.5 -104t106.5 -33q31 0 61 8.5t65 25.5q7 3 11 -2t9 -20l4 -12q9 -26 -2 -34q-79 -47 -175 -47q-71 0 -115 24.5t-67 72.5q-37 -47 -85.5 -72t-109.5 -25q-102 0 -149.5 58t-47.5 161q0 73 20.5 133.5t57 104t86.5 67.5t109 24
q126 0 173 -98q32 45 77.5 71.5t105.5 26.5q46 0 80.5 -15t58 -41.5t35 -63.5t11.5 -82q0 -17 -1.5 -34t-3.5 -34q-3 -23 -6 -29.5t-9 -6.5h-335zM298 458q-34 0 -64.5 -17t-53 -47.5t-35.5 -74.5t-13 -98q0 -30 5.5 -57.5t19 -48.5t36.5 -33t57 -12q35 0 65 17t52.5 48
t35 74.5t12.5 97.5q0 30 -5.5 57.5t-19 48t-36 33t-56.5 12.5zM764 306q1 7 1.5 14t0.5 14q0 24 -6 46.5t-19 40t-33.5 27.5t-49.5 10q-48 0 -87.5 -37t-58.5 -115h252z" />
    <glyph glyph-name="Racute" unicode="&#x154;" horiz-adv-x="563" 
d="M291 720q54 0 99 -7.5t77.5 -27.5t51 -54.5t18.5 -87.5q0 -82 -46 -144.5t-131 -91.5l33 -92q19 -54 40 -100.5t52 -99.5q4 -6 -6.5 -10.5t-32.5 -4.5h-18q-23 0 -35.5 5.5t-16.5 12.5q-23 40 -38.5 77t-31.5 81l-43 119h-99l-40 -284q-1 -11 -41 -11h-10q-43 0 -42 11
l100 709h160zM175 370h95q78 0 124 42.5t46 114.5q0 40 -13.5 63.5t-34.5 35.5t-47 15t-50 3h-82zM427 914q28 0 35 -4.5t2 -9.5l-111 -128q-4 -4 -11 -6.5t-25 -2.5h-12q-23 0 -27 3.5t0 8.5l90 128q5 6 14 8.5t30 2.5h15z" />
    <glyph glyph-name="racute" unicode="&#x155;" horiz-adv-x="348" 
d="M159 528q26 0 32.5 -3t5.5 -10l-11 -102q34 64 76 92.5t84 28.5q7 0 10.5 -0.5t7.5 -1.5q8 -2 8 -18q0 -6 -1 -13l-2 -15q-2 -16 -5.5 -25t-11.5 -9q-35 0 -65 -16.5t-53.5 -42t-39 -57t-22.5 -61.5q-2 -9 -5 -27l-7 -38q-3 -20 -6 -42t-6 -41l-16 -115q-1 -5 -8.5 -8.5
t-33.5 -3.5h-5q-28 0 -35.5 3t-6.5 9l48 341q4 25 7 50t6 46.5t4.5 38.5t2.5 27q1 6 7.5 9.5t35.5 3.5h5zM339 732q28 0 35 -4.5t2 -9.5l-111 -128q-4 -4 -11 -6.5t-25 -2.5h-12q-23 0 -27 3.5t0 8.5l90 128q4 5 13.5 8t30.5 3h15z" />
    <glyph glyph-name="Rcommaaccent" unicode="&#x156;" horiz-adv-x="563" 
d="M291 720q54 0 99 -7.5t77.5 -27.5t51 -54.5t18.5 -87.5q0 -82 -46 -144.5t-131 -91.5l33 -92q19 -54 40 -100.5t52 -99.5q4 -6 -6.5 -10.5t-32.5 -4.5h-18q-23 0 -35.5 5.5t-16.5 12.5q-23 40 -38.5 77t-31.5 81l-43 119h-99l-40 -284q-1 -11 -41 -11h-10q-43 0 -42 11
l100 709h160zM175 370h95q78 0 124 42.5t46 114.5q0 40 -13.5 63.5t-34.5 35.5t-47 15t-50 3h-82zM158 -276q-9 12 -3 18l18 18q11 10 20.5 21t16.5 23t7 24q0 10 -4 16l-9 14q-4 7 -8 15t-4 20q0 21 14.5 37t39.5 16q26 0 39 -17t13 -42t-10 -50.5t-26.5 -49t-37.5 -44
t-43 -35.5q-4 -2 -7 -1.5t-9 8.5z" />
    <glyph glyph-name="rcommaaccent" unicode="&#x157;" horiz-adv-x="348" 
d="M159 528q26 0 32.5 -3t5.5 -10l-11 -102q34 64 76 92.5t84 28.5q7 0 10.5 -0.5t7.5 -1.5q8 -2 8 -18q0 -6 -1 -13l-2 -15q-2 -16 -5.5 -25t-11.5 -9q-35 0 -65 -16.5t-53.5 -42t-39 -57t-22.5 -61.5q-2 -9 -5 -27l-7 -38q-3 -20 -6 -42t-6 -41l-16 -115q-1 -5 -8.5 -8.5
t-33.5 -3.5h-5q-28 0 -35.5 3t-6.5 9l48 341q4 25 7 50t6 46.5t4.5 38.5t2.5 27q1 6 7.5 9.5t35.5 3.5h5zM-21 -276q-9 12 -3 18l18 18q11 10 20.5 21t16.5 23t7 24q0 10 -4 16l-9 14q-4 7 -8 15t-4 20q0 21 14.5 37t39.5 16q26 0 39 -17t13 -42t-10 -50.5t-26.5 -49
t-37.5 -44t-43 -35.5q-4 -2 -7 -1.5t-9 8.5z" />
    <glyph glyph-name="Rcaron" unicode="&#x158;" horiz-adv-x="563" 
d="M291 720q54 0 99 -7.5t77.5 -27.5t51 -54.5t18.5 -87.5q0 -82 -46 -144.5t-131 -91.5l33 -92q19 -54 40 -100.5t52 -99.5q4 -6 -6.5 -10.5t-32.5 -4.5h-18q-23 0 -35.5 5.5t-16.5 12.5q-23 40 -38.5 77t-31.5 81l-43 119h-99l-40 -284q-1 -11 -41 -11h-10q-43 0 -42 11
l100 709h160zM175 370h95q78 0 124 42.5t46 114.5q0 40 -13.5 63.5t-34.5 35.5t-47 15t-50 3h-82zM237 912q9 8 16.5 13t11.5 0l95 -98l120 95q5 3 9.5 1.5t13.5 -12.5l7 -9q9 -11 9.5 -16.5t-4.5 -10.5l-101 -95q-6 -6 -15 -9.5t-30 -3.5h-37q-21 0 -28.5 3t-13.5 11
l-76 96q-4 5 1.5 12.5t13.5 15.5z" />
    <glyph glyph-name="rcaron" unicode="&#x159;" horiz-adv-x="348" 
d="M159 528q26 0 32.5 -3t5.5 -10l-11 -102q34 64 76 92.5t84 28.5q7 0 10.5 -0.5t7.5 -1.5q8 -2 8 -18q0 -6 -1 -13l-2 -15q-2 -16 -5.5 -25t-11.5 -9q-35 0 -65 -16.5t-53.5 -42t-39 -57t-22.5 -61.5q-2 -9 -5 -27l-7 -38q-3 -20 -6 -42t-6 -41l-16 -115q-1 -5 -8.5 -8.5
t-33.5 -3.5h-5q-28 0 -35.5 3t-6.5 9l48 341q4 25 7 50t6 46.5t4.5 38.5t2.5 27q1 6 7.5 9.5t35.5 3.5h5zM143 720q9 8 16.5 13t11.5 0l95 -98l120 95q5 3 9.5 1.5t13.5 -12.5l7 -9q9 -11 9.5 -16.5t-4.5 -10.5l-101 -95q-6 -6 -15 -9.5t-30 -3.5h-37q-21 0 -28.5 3
t-13.5 11l-76 96q-4 5 1.5 12.5t13.5 15.5z" />
    <glyph glyph-name="Sacute" unicode="&#x15a;" horiz-adv-x="509" 
d="M468 639q-10 -17 -16.5 -20.5t-11.5 -0.5q-23 14 -56.5 23.5t-66.5 9.5q-26 0 -50.5 -7t-43.5 -21.5t-30 -36t-11 -50.5q0 -33 20 -56.5t49.5 -43t64 -38.5t64 -44t49.5 -59t20 -84q0 -48 -17.5 -89t-49.5 -70t-79 -45.5t-105 -16.5q-29 0 -58.5 4t-56.5 11t-48.5 17.5
t-33.5 22.5q-3 3 -3 8v6q3 9 14 26l6 9q10 15 18.5 19t12.5 1q16 -11 35.5 -19.5t40.5 -14t41 -8.5t37 -3q31 0 58.5 8.5t48 24.5t32.5 39t12 52q0 38 -19.5 64t-49.5 46t-64 38.5t-64 42t-49.5 55t-19.5 78.5q0 46 17 85t47.5 67.5t72.5 44.5t93 16q21 0 45 -3.5t46 -9.5
t41 -15t31 -20q4 -4 4 -8q0 -6 -9 -21zM420 914q28 0 35 -4.5t2 -9.5l-111 -128q-4 -4 -11 -6.5t-25 -2.5h-12q-23 0 -27 3.5t0 8.5l90 128q5 6 14 8.5t30 2.5h15z" />
    <glyph glyph-name="sacute" unicode="&#x15b;" horiz-adv-x="449" 
d="M31 82q11 16 17.5 21t14.5 0q25 -16 59 -26.5t66 -10.5q19 0 40 4.5t38.5 14.5t28.5 25.5t11 37.5q0 19 -9 32.5t-23 23.5t-32 16.5t-37 12.5q-27 8 -52 18.5t-43.5 26t-30 37.5t-11.5 54q0 39 16.5 70.5t44.5 53.5t65 33.5t79 11.5q43 0 83 -13t64 -37q3 -3 3 -8
q0 -10 -13 -28l-5 -7q-11 -16 -18.5 -20t-12.5 0q-26 20 -54.5 29t-54.5 9q-19 0 -38.5 -4t-35.5 -12.5t-26.5 -23t-10.5 -35.5q0 -18 8 -30.5t20.5 -21.5t29.5 -15l35 -12q28 -9 54 -20t46.5 -27.5t32.5 -40.5t12 -58q0 -41 -17.5 -73t-47 -54.5t-69 -34t-84.5 -11.5
q-51 0 -91 13.5t-67 33.5q-3 3 -3 8q0 3 1 7q3 9 11 21zM358 732q28 0 35 -4.5t2 -9.5l-111 -128q-4 -4 -11 -6.5t-25 -2.5h-12q-23 0 -27 3.5t0 8.5l90 128q4 5 13.5 8t30.5 3h15z" />
    <glyph glyph-name="Scircumflex" unicode="&#x15c;" horiz-adv-x="509" 
d="M468 639q-10 -17 -16.5 -20.5t-11.5 -0.5q-23 14 -56.5 23.5t-66.5 9.5q-26 0 -50.5 -7t-43.5 -21.5t-30 -36t-11 -50.5q0 -33 20 -56.5t49.5 -43t64 -38.5t64 -44t49.5 -59t20 -84q0 -48 -17.5 -89t-49.5 -70t-79 -45.5t-105 -16.5q-29 0 -58.5 4t-56.5 11t-48.5 17.5
t-33.5 22.5q-3 3 -3 8v6q3 9 14 26l6 9q10 15 18.5 19t12.5 1q16 -11 35.5 -19.5t40.5 -14t41 -8.5t37 -3q31 0 58.5 8.5t48 24.5t32.5 39t12 52q0 38 -19.5 64t-49.5 46t-64 38.5t-64 42t-49.5 55t-19.5 78.5q0 46 17 85t47.5 67.5t72.5 44.5t93 16q21 0 45 -3.5t46 -9.5
t41 -15t31 -20q4 -4 4 -8q0 -6 -9 -21zM280 896q6 6 15.5 9.5t29.5 3.5h37q21 0 29.5 -4.5t12.5 -9.5l76 -97q6 -8 -12 -26l-7 -7q-10 -10 -18 -13t-11 0l-94 96l-122 -94q-3 -3 -8.5 -1.5t-13.5 12.5l-7 9q-8 11 -9.5 16.5t3.5 10.5z" />
    <glyph glyph-name="scircumflex" unicode="&#x15d;" horiz-adv-x="449" 
d="M31 82q11 16 17.5 21t14.5 0q25 -16 59 -26.5t66 -10.5q19 0 40 4.5t38.5 14.5t28.5 25.5t11 37.5q0 19 -9 32.5t-23 23.5t-32 16.5t-37 12.5q-27 8 -52 18.5t-43.5 26t-30 37.5t-11.5 54q0 39 16.5 70.5t44.5 53.5t65 33.5t79 11.5q43 0 83 -13t64 -37q3 -3 3 -8
q0 -10 -13 -28l-5 -7q-11 -16 -18.5 -20t-12.5 0q-26 20 -54.5 29t-54.5 9q-19 0 -38.5 -4t-35.5 -12.5t-26.5 -23t-10.5 -35.5q0 -18 8 -30.5t20.5 -21.5t29.5 -15l35 -12q28 -9 54 -20t46.5 -27.5t32.5 -40.5t12 -58q0 -41 -17.5 -73t-47 -54.5t-69 -34t-84.5 -11.5
q-51 0 -91 13.5t-67 33.5q-3 3 -3 8q0 3 1 7q3 9 11 21zM247 724q6 6 15.5 9.5t29.5 3.5h37q21 0 29.5 -4.5t12.5 -9.5l76 -97q6 -8 -12 -26l-7 -7q-10 -10 -18 -13t-11 0l-94 96l-122 -94q-3 -3 -8.5 -1.5t-13.5 12.5l-7 9q-8 11 -9.5 16.5t3.5 10.5z" />
    <glyph glyph-name="Scedilla" unicode="&#x15e;" horiz-adv-x="509" 
d="M468 639q-10 -17 -16.5 -20.5t-11.5 -0.5q-23 14 -56.5 23.5t-66.5 9.5q-26 0 -50.5 -7t-43.5 -21.5t-30 -36t-11 -50.5q0 -33 20 -56.5t49.5 -43t64 -38.5t64 -44t49.5 -59t20 -84q0 -45 -15 -83t-42.5 -66.5t-67.5 -47t-90 -22.5l-7 -33q3 1 7 1h6q35 0 58.5 -19.5
t23.5 -57.5q0 -20 -8.5 -39t-25 -33.5t-41.5 -23.5t-59 -9q-20 0 -38.5 3t-31.5 8q-7 3 0 23l6 16q8 21 16 18q12 -4 26 -5.5t25 -1.5q22 0 36.5 9t14.5 26q0 16 -9.5 21.5t-30.5 5.5q-16 0 -33.5 -0.5t-30.5 -2.5l25 94q-50 4 -95.5 18t-66.5 35q-5 5 -2.5 14t13.5 26l6 9
q10 15 18.5 19t12.5 1q16 -11 35.5 -19.5t40.5 -14t41 -8.5t37 -3q31 0 58.5 8.5t48 24.5t32.5 39t12 52q0 38 -19.5 64t-49.5 46t-64 38.5t-64 42t-49.5 55t-19.5 78.5q0 46 17 85t47.5 67.5t72.5 44.5t93 16q21 0 45 -3.5t46 -9.5t41 -15t31 -20q4 -4 3.5 -9.5t-8.5 -19.5
z" />
    <glyph glyph-name="scedilla" unicode="&#x15f;" horiz-adv-x="449" 
d="M31 82q11 16 17.5 21t14.5 0q25 -16 59 -26.5t66 -10.5q19 0 40 4.5t38.5 14.5t28.5 25.5t11 37.5q0 19 -9 32.5t-23 23.5t-32 16.5t-37 12.5q-27 8 -52 18.5t-43.5 26t-30 37.5t-11.5 54q0 39 16.5 70.5t44.5 53.5t65 33.5t79 11.5q43 0 83 -13t64 -37q9 -9 -10 -36
l-5 -7q-11 -16 -18.5 -20t-12.5 0q-26 20 -54.5 29t-54.5 9q-19 0 -38.5 -4t-35.5 -12.5t-26.5 -23t-10.5 -35.5q0 -18 8 -30.5t20.5 -21.5t29.5 -15l35 -12q28 -9 54 -20t46.5 -27.5t32.5 -40.5t12 -58q0 -36 -14 -65.5t-38 -51.5t-56.5 -35.5t-69.5 -17.5l-7 -34q3 1 7 1
h6q35 0 58.5 -19.5t23.5 -57.5q0 -20 -8.5 -39t-25 -33.5t-41.5 -23.5t-59 -9q-20 0 -38.5 3t-31.5 8q-7 3 0 23l6 16q8 21 16 18q12 -4 26 -5.5t25 -1.5q22 0 36.5 9t14.5 26q0 16 -9.5 21.5t-30.5 5.5q-16 0 -33.5 -0.5t-30.5 -2.5l25 94q-41 4 -72.5 16t-54.5 29
q-5 5 -2 14.5t11 21.5z" />
    <glyph glyph-name="Scaron" unicode="&#x160;" horiz-adv-x="509" 
d="M468 639q-10 -17 -16.5 -20.5t-11.5 -0.5q-23 14 -56.5 23.5t-66.5 9.5q-26 0 -50.5 -7t-43.5 -21.5t-30 -36t-11 -50.5q0 -33 20 -56.5t49.5 -43t64 -38.5t64 -44t49.5 -59t20 -84q0 -48 -17.5 -89t-49.5 -70t-79 -45.5t-105 -16.5q-29 0 -58.5 4t-56.5 11t-48.5 17.5
t-33.5 22.5q-3 3 -3 8v6q3 9 14 26l6 9q10 15 18.5 19t12.5 1q16 -11 35.5 -19.5t40.5 -14t41 -8.5t37 -3q31 0 58.5 8.5t48 24.5t32.5 39t12 52q0 38 -19.5 64t-49.5 46t-64 38.5t-64 42t-49.5 55t-19.5 78.5q0 46 17 85t47.5 67.5t72.5 44.5t93 16q21 0 45 -3.5t46 -9.5
t41 -15t31 -20q4 -4 4 -8q0 -6 -9 -21zM202 903q9 8 16.5 13t11.5 0l95 -98l120 95q5 3 9.5 1.5t13.5 -12.5l7 -9q9 -11 9.5 -16.5t-4.5 -10.5l-101 -95q-6 -6 -15 -9.5t-30 -3.5h-37q-21 0 -28.5 3t-13.5 11l-76 96q-4 5 1.5 12.5t13.5 15.5z" />
    <glyph glyph-name="scaron" unicode="&#x161;" horiz-adv-x="449" 
d="M31 82q11 16 17.5 21t14.5 0q25 -16 59 -26.5t66 -10.5q19 0 40 4.5t38.5 14.5t28.5 25.5t11 37.5q0 19 -9 32.5t-23 23.5t-32 16.5t-37 12.5q-27 8 -52 18.5t-43.5 26t-30 37.5t-11.5 54q0 39 16.5 70.5t44.5 53.5t65 33.5t79 11.5q43 0 83 -13t64 -37q3 -3 3 -8
q0 -10 -13 -28l-5 -7q-11 -16 -18.5 -20t-12.5 0q-26 20 -54.5 29t-54.5 9q-19 0 -38.5 -4t-35.5 -12.5t-26.5 -23t-10.5 -35.5q0 -18 8 -30.5t20.5 -21.5t29.5 -15l35 -12q28 -9 54 -20t46.5 -27.5t32.5 -40.5t12 -58q0 -41 -17.5 -73t-47 -54.5t-69 -34t-84.5 -11.5
q-51 0 -91 13.5t-67 33.5q-3 3 -3 8q0 3 1 7q3 9 11 21zM157 720q9 8 16.5 13t11.5 0l95 -98l120 95q5 3 9.5 1.5t13.5 -12.5l7 -9q9 -11 9.5 -16.5t-4.5 -10.5l-101 -95q-6 -6 -15 -9.5t-30 -3.5h-37q-21 0 -28.5 3t-13.5 11l-76 96q-4 5 1.5 12.5t13.5 15.5z" />
    <glyph glyph-name="Tcommaaccent" unicode="&#x162;" horiz-adv-x="502" 
d="M531 720q6 0 6 -13q0 -8 -2 -20l-2 -12q-3 -17 -5.5 -25.5t-7.5 -8.5h-182l-89 -630q-1 -11 -43 -11h-11q-40 0 -39 11l89 630h-181q-7 0 -7 14q0 8 2 20l2 12q6 33 14 33h456zM98 -276q-9 12 -3 18l18 18q11 10 20.5 21t16.5 23t7 24q0 10 -4 16l-9 14q-4 7 -8 15t-4 20
q0 21 14.5 37t39.5 16q26 0 39 -17t13 -42t-10 -50.5t-26.5 -49t-37.5 -44t-43 -35.5q-4 -2 -7 -1.5t-9 8.5z" />
    <glyph glyph-name="tcommaaccent" unicode="&#x163;" horiz-adv-x="361" 
d="M201 677q29 0 34.5 -4t4.5 -9l-19 -136h124q6 0 6 -14q0 -7 -1 -16l-1 -8q-4 -32 -14 -32h-124l-42 -296q-2 -13 -3 -23.5t-1 -19.5q0 -25 13.5 -39t42.5 -14q17 0 35.5 3t34.5 8q12 4 14 -22l1 -12q1 -13 0 -19.5t-7 -10.5q-20 -11 -49.5 -17t-57.5 -6q-53 0 -84.5 26.5
t-31.5 81.5q0 12 1 26.5t3 30.5l43 303h-71q-7 0 -7 16q0 7 1 16l1 8q2 17 6 23.5t9 6.5h71l19 136q1 6 7.5 9.5t35.5 3.5h6zM76 -276q-9 12 -3 18l18 18q11 10 20.5 21t16.5 23t7 24q0 10 -4 16l-9 14q-4 7 -8 15t-4 20q0 21 14.5 37t39.5 16q26 0 39 -17t13 -42t-10 -50.5
t-26.5 -49t-37.5 -44t-43 -35.5q-4 -2 -7 -1.5t-9 8.5z" />
    <glyph glyph-name="Tcaron" unicode="&#x164;" horiz-adv-x="502" 
d="M531 720q6 0 6 -13q0 -8 -2 -20l-2 -12q-3 -17 -5.5 -25.5t-7.5 -8.5h-182l-89 -630q-1 -11 -43 -11h-11q-40 0 -39 11l89 630h-181q-7 0 -7 14q0 8 2 20l2 12q6 33 14 33h456zM194 912q9 8 16.5 13t11.5 0l95 -98l120 95q5 3 9.5 1.5t13.5 -12.5l7 -9q9 -11 9.5 -16.5
t-4.5 -10.5l-101 -95q-6 -6 -15 -9.5t-30 -3.5h-37q-21 0 -28.5 3t-13.5 11l-76 96q-4 5 1.5 12.5t13.5 15.5z" />
    <glyph glyph-name="tcaron" unicode="&#x165;" horiz-adv-x="361" 
d="M201 677q29 0 34.5 -4t4.5 -9l-19 -136h124q6 0 6 -14q0 -7 -1 -16l-1 -8q-4 -32 -14 -32h-124l-42 -296q-2 -13 -3 -23.5t-1 -19.5q0 -25 13.5 -39t42.5 -14q17 0 35.5 3t34.5 8q12 4 14 -22l1 -12q1 -13 0 -19.5t-7 -10.5q-20 -11 -49.5 -17t-57.5 -6q-53 0 -84.5 26.5
t-31.5 81.5q0 12 1 26.5t3 30.5l43 303h-71q-7 0 -7 16q0 7 1 16l1 8q2 17 6 23.5t9 6.5h71l19 136q1 6 7.5 9.5t35.5 3.5h6zM286 597q-9 12 -3 18l18 18q11 10 20.5 21t16.5 23t7 24q0 10 -4 16l-9 14q-4 7 -8 15t-4 20q0 21 14.5 37t39.5 16q26 0 39 -17t13 -42t-10 -50.5
t-26.5 -49t-37.5 -44t-43 -35.5q-4 -2 -7 -1.5t-9 8.5z" />
    <glyph glyph-name="Tbar" unicode="&#x166;" horiz-adv-x="502" 
d="M531 720q5 0 5.5 -9t-1.5 -24l-2 -12q-3 -17 -5.5 -25.5t-7.5 -8.5h-182l-34 -240h116q12 0 6 -32l-2 -11q-4 -19 -6.5 -25t-8.5 -6h-116l-44 -316q-1 -11 -43 -11h-11q-40 0 -39 11l44 316h-112q-12 0 -6 32l2 11q4 19 6.5 25t8.5 6h112l34 240h-181q-11 0 -5 34l2 12
q6 33 14 33h456z" />
    <glyph glyph-name="tbar" unicode="&#x167;" horiz-adv-x="361" 
d="M201 677q29 0 34.5 -4t4.5 -9l-19 -136h124q9 0 5 -30l-1 -8q-4 -32 -14 -32h-124l-22 -152h99q6 0 7.5 -6.5t-1.5 -25.5l-2 -11q-3 -16 -6 -20.5t-10 -4.5h-96l-11 -76q-2 -13 -3 -23.5t-1 -19.5q0 -25 13.5 -39t42.5 -14q17 0 35.5 3t34.5 8q12 4 14 -22l1 -12
q1 -13 0 -19.5t-7 -10.5q-20 -11 -49.5 -17t-57.5 -6q-53 0 -84.5 26.5t-31.5 81.5q0 12 1 26.5t3 30.5l12 83h-62q-6 0 -7.5 6t2.5 26l2 11q3 16 6 20.5t10 4.5h58l22 152h-71q-10 0 -6 32l1 8q2 17 6 23.5t9 6.5h71l19 136q1 6 7.5 9.5t35.5 3.5h6z" />
    <glyph glyph-name="Utilde" unicode="&#x168;" horiz-adv-x="664" 
d="M176 720q42 0 41 -11l-62 -438q-2 -12 -3 -25.5t-1 -25.5q0 -33 7.5 -60.5t25 -47.5t46 -31.5t69.5 -11.5q81 0 129 48.5t62 152.5l62 439q1 11 42 11h11q41 0 40 -11l-60 -427q-21 -151 -93 -221.5t-203 -70.5q-233 0 -233 212q0 14 1.5 29.5t3.5 32.5l63 445
q1 11 42 11h10zM257 807q-5 8 -7 15.5t3 12.5q17 19 42 33t54 14q23 0 38 -6q16 -6 28 -12l24 -13q12 -6 30 -6q13 0 25 7.5t22 16.5q5 4 10.5 3t13.5 -12l6 -8q7 -10 8 -16.5t-4 -13.5q-15 -20 -39 -36t-53 -16q-20 0 -34.5 6t-27.5 12.5t-27 12.5t-32 6q-15 0 -26.5 -6.5
t-22.5 -17.5q-4 -4 -11 0t-14 15z" />
    <glyph glyph-name="utilde" unicode="&#x169;" horiz-adv-x="569" 
d="M153 528q28 0 34 -3t5 -9l-37 -262q-5 -30 -7 -51.5t-2 -38.5q0 -20 3 -33.5t10 -24.5q22 -34 82 -34q32 0 61 9.5t52 28.5q9 8 16 18t13.5 27t12 44.5t11.5 69.5l35 247q1 5 8.5 8.5t32.5 3.5h9q25 0 32 -3t6 -9l-48 -341q-3 -26 -6.5 -51t-6 -46.5t-5 -39t-3.5 -26.5
q-1 -6 -7 -9t-34 -3h-4q-26 0 -33 3t-6 9l4 43h-1q-32 -30 -74.5 -47.5t-93.5 -17.5q-41 0 -73.5 12.5t-52.5 38.5q-30 39 -30 103q0 14 1.5 33t3.5 36l43 303q1 5 7 8.5t34 3.5h8zM182 645q-5 8 -7 15.5t3 12.5q17 19 42 33t54 14q23 0 38 -6t27 -12l25 -13q12 -6 30 -6
q13 0 25 7.5t22 16.5q5 4 10.5 3t13.5 -12l6 -8q7 -10 8 -16.5t-4 -13.5q-15 -20 -39 -36t-53 -16q-20 0 -34.5 6t-27.5 12.5t-27 12.5t-32 6q-15 0 -26.5 -6.5t-22.5 -17.5q-4 -4 -11 0t-14 15z" />
    <glyph glyph-name="Umacron" unicode="&#x16a;" horiz-adv-x="664" 
d="M176 720q42 0 41 -11l-62 -438q-2 -12 -3 -25.5t-1 -25.5q0 -33 7.5 -60.5t25 -47.5t46 -31.5t69.5 -11.5q81 0 129 48.5t62 152.5l62 439q1 11 42 11h11q41 0 40 -11l-60 -427q-21 -151 -93 -221.5t-203 -70.5q-233 0 -233 212q0 14 1.5 29.5t3.5 32.5l63 445
q1 11 42 11h10zM542 874q12 0 6 -30l-2 -12q-6 -31 -14 -31h-270q-12 0 -6 32l2 12q5 29 14 29h270z" />
    <glyph glyph-name="umacron" unicode="&#x16b;" horiz-adv-x="569" 
d="M153 528q28 0 34 -3t5 -9l-37 -262q-5 -30 -7 -51.5t-2 -38.5q0 -20 3 -33.5t10 -24.5q22 -34 82 -34q32 0 61 9.5t52 28.5q9 8 16 18t13.5 27t12 44.5t11.5 69.5l35 247q1 5 8.5 8.5t32.5 3.5h9q25 0 32 -3t6 -9l-48 -341q-3 -26 -6.5 -51t-6 -46.5t-5 -39t-3.5 -26.5
q-1 -6 -7 -9t-34 -3h-4q-26 0 -33 3t-6 9l4 43h-1q-32 -30 -74.5 -47.5t-93.5 -17.5q-41 0 -73.5 12.5t-52.5 38.5q-30 39 -30 103q0 14 1.5 33t3.5 36l43 303q1 5 7 8.5t34 3.5h8zM474 693q12 0 6 -30l-2 -12q-6 -31 -14 -31h-270q-12 0 -6 32l2 12q5 29 14 29h270z" />
    <glyph glyph-name="Ubreve" unicode="&#x16c;" horiz-adv-x="664" 
d="M176 720q42 0 41 -11l-62 -438q-2 -12 -3 -25.5t-1 -25.5q0 -33 7.5 -60.5t25 -47.5t46 -31.5t69.5 -11.5q81 0 129 48.5t62 152.5l62 439q1 11 42 11h11q41 0 40 -11l-60 -427q-21 -151 -93 -221.5t-203 -70.5q-233 0 -233 212q0 14 1.5 29.5t3.5 32.5l63 445
q1 11 42 11h10zM305 903q16 0 22 -2.5t6 -7.5q-2 -29 16.5 -44t53.5 -15q29 0 48 15.5t27 43.5q2 5 8 7.5t22 2.5h13q32 0 31 -10q-12 -61 -54.5 -90t-102.5 -29q-32 0 -58 7t-44 21.5t-26.5 37t-6.5 53.5q1 10 33 10h12z" />
    <glyph glyph-name="ubreve" unicode="&#x16d;" horiz-adv-x="569" 
d="M153 528q28 0 34 -3t5 -9l-37 -262q-5 -30 -7 -51.5t-2 -38.5q0 -20 3 -33.5t10 -24.5q22 -34 82 -34q32 0 61 9.5t52 28.5q9 8 16 18t13.5 27t12 44.5t11.5 69.5l35 247q1 5 8.5 8.5t32.5 3.5h9q25 0 32 -3t6 -9l-48 -341q-3 -26 -6.5 -51t-6 -46.5t-5 -39t-3.5 -26.5
q-1 -6 -7 -9t-34 -3h-4q-26 0 -33 3t-6 9l4 43h-1q-32 -30 -74.5 -47.5t-93.5 -17.5q-41 0 -73.5 12.5t-52.5 38.5q-30 39 -30 103q0 14 1.5 33t3.5 36l43 303q1 5 7 8.5t34 3.5h8zM236 722q16 0 22 -2.5t6 -7.5q-2 -29 16.5 -44t53.5 -15q29 0 48 15.5t27 43.5q2 5 8 7.5
t22 2.5h13q32 0 31 -10q-12 -61 -54.5 -90t-102.5 -29q-32 0 -58 7t-44 21.5t-26.5 37t-6.5 53.5q1 10 33 10h12z" />
    <glyph glyph-name="Uring" unicode="&#x16e;" horiz-adv-x="664" 
d="M176 720q42 0 41 -11l-62 -438q-2 -12 -3 -25.5t-1 -25.5q0 -33 7.5 -60.5t25 -47.5t46 -31.5t69.5 -11.5q81 0 129 48.5t62 152.5l62 439q1 11 42 11h11q41 0 40 -11l-60 -427q-21 -151 -93 -221.5t-203 -70.5q-233 0 -233 212q0 14 1.5 29.5t3.5 32.5l63 445
q1 11 42 11h10zM306 824q0 20 8.5 38t23 31.5t32.5 21t38 7.5q36 0 60.5 -23.5t24.5 -58.5q0 -20 -8.5 -38t-22.5 -31.5t-32.5 -21t-37.5 -7.5q-36 0 -61 23.5t-25 58.5zM402 874q-17 0 -30.5 -12.5t-13.5 -32.5q0 -17 11 -28t27 -11q18 0 31.5 13.5t13.5 31.5q0 17 -11 28
t-28 11z" />
    <glyph glyph-name="uring" unicode="&#x16f;" horiz-adv-x="569" 
d="M153 528q28 0 34 -3t5 -9l-37 -262q-5 -30 -7 -51.5t-2 -38.5q0 -20 3 -33.5t10 -24.5q22 -34 82 -34q32 0 61 9.5t52 28.5q9 8 16 18t13.5 27t12 44.5t11.5 69.5l35 247q1 5 8.5 8.5t32.5 3.5h9q25 0 32 -3t6 -9l-48 -341q-3 -26 -6.5 -51t-6 -46.5t-5 -39t-3.5 -26.5
q-1 -6 -7 -9t-34 -3h-4q-26 0 -33 3t-6 9l4 43h-1q-32 -30 -74.5 -47.5t-93.5 -17.5q-41 0 -73.5 12.5t-52.5 38.5q-30 39 -30 103q0 14 1.5 33t3.5 36l43 303q1 5 7 8.5t34 3.5h8zM241 660q0 20 8.5 38t23 31.5t32.5 21t38 7.5q36 0 60.5 -23.5t24.5 -58.5q0 -20 -8.5 -38
t-22.5 -31.5t-32.5 -21t-37.5 -7.5q-36 0 -61 23.5t-25 58.5zM337 710q-17 0 -30.5 -12.5t-13.5 -32.5q0 -17 11 -28t27 -11q18 0 31.5 13.5t13.5 31.5q0 17 -11 28t-28 11z" />
    <glyph glyph-name="Uhungarumlaut" unicode="&#x170;" horiz-adv-x="664" 
d="M176 720q42 0 41 -11l-62 -438q-2 -12 -3 -25.5t-1 -25.5q0 -33 7.5 -60.5t25 -47.5t46 -31.5t69.5 -11.5q81 0 129 48.5t62 152.5l62 439q1 11 42 11h11q41 0 40 -11l-60 -427q-21 -151 -93 -221.5t-203 -70.5q-233 0 -233 212q0 14 1.5 29.5t3.5 32.5l63 445
q1 11 42 11h10zM391 914q28 0 34.5 -4t1.5 -10l-101 -128q-4 -5 -11.5 -7.5t-22.5 -2.5h-12q-22 0 -25.5 3.5t0.5 9.5l80 128q3 5 12.5 8t29.5 3h14zM559 914q28 0 34.5 -4t1.5 -10l-101 -128q-4 -5 -11.5 -7.5t-22.5 -2.5h-12q-22 0 -25.5 3.5t0.5 9.5l80 128q3 5 12.5 8
t29.5 3h14z" />
    <glyph glyph-name="uhungarumlaut" unicode="&#x171;" horiz-adv-x="569" 
d="M153 528q28 0 34 -3t5 -9l-37 -262q-5 -30 -7 -51.5t-2 -38.5q0 -20 3 -33.5t10 -24.5q22 -34 82 -34q32 0 61 9.5t52 28.5q9 8 16 18t13.5 27t12 44.5t11.5 69.5l35 247q1 5 8.5 8.5t32.5 3.5h9q25 0 32 -3t6 -9l-48 -341q-3 -26 -6.5 -51t-6 -46.5t-5 -39t-3.5 -26.5
q-1 -6 -7 -9t-34 -3h-4q-26 0 -33 3t-6 9l4 43h-1q-32 -30 -74.5 -47.5t-93.5 -17.5q-41 0 -73.5 12.5t-52.5 38.5q-30 39 -30 103q0 14 1.5 33t3.5 36l43 303q1 5 7 8.5t34 3.5h8zM324 732q28 0 34.5 -4t1.5 -10l-101 -128q-4 -5 -11.5 -7.5t-22.5 -2.5h-12
q-22 0 -25.5 3.5t0.5 9.5l80 128q3 5 12.5 8t29.5 3h14zM492 732q28 0 34.5 -4t1.5 -10l-101 -128q-4 -5 -11.5 -7.5t-22.5 -2.5h-12q-22 0 -25.5 3.5t0.5 9.5l80 128q3 5 12.5 8t29.5 3h14z" />
    <glyph glyph-name="Uogonek" unicode="&#x172;" horiz-adv-x="664" 
d="M176 720q42 0 41 -11l-62 -438q-2 -12 -3 -25.5t-1 -25.5q0 -33 7.5 -60.5t25 -47.5t46 -31.5t69.5 -11.5q81 0 129 48.5t62 152.5l62 439q1 11 42 11h11q41 0 40 -11l-60 -427q-11 -78 -34.5 -132.5t-61.5 -90.5q-22 -21 -51 -41t-54.5 -40.5t-43.5 -42t-18 -44.5
q0 -19 12.5 -27.5t32.5 -8.5q9 0 19.5 2t19.5 4q8 2 11 -22l1 -9q1 -14 -0.5 -19.5t-5.5 -7.5q-14 -6 -31.5 -10t-37.5 -4q-51 0 -76 26.5t-25 61.5q0 32 21 60.5t59 53.5q-6 -1 -16 -1h-17q-233 0 -233 212q0 14 1.5 29.5t3.5 32.5l63 445q1 11 42 11h10z" />
    <glyph glyph-name="uogonek" unicode="&#x173;" horiz-adv-x="569" 
d="M153 528q28 0 34 -3t5 -9l-37 -262q-5 -30 -7 -51.5t-2 -38.5q0 -20 3 -33.5t10 -24.5q22 -34 82 -34q32 0 61 9.5t52 28.5q9 8 16 18t13.5 27t12 44.5t11.5 69.5l35 247q1 5 8.5 8.5t32.5 3.5h9q25 0 32 -3t6 -9l-48 -341l-12 -93q-6 -42 -8 -65q-1 -5 -2.5 -8.5
t-6.5 -6.5q-46 -26 -69 -55.5t-23 -55.5q0 -21 13 -28.5t32 -7.5q8 0 18.5 1.5t20.5 4.5q5 2 7 -3t4 -19l1 -9q2 -17 0.5 -21t-6.5 -6q-14 -6 -31.5 -10t-37.5 -4q-52 0 -76.5 26.5t-24.5 61.5q0 19 8 37.5t21.5 35t31.5 30.5t37 24l2 51h-1q-32 -30 -74.5 -47.5
t-93.5 -17.5q-41 0 -73.5 12.5t-52.5 38.5q-30 39 -30 103q0 14 1.5 33t3.5 36l43 303q1 5 7 8.5t34 3.5h8z" />
    <glyph glyph-name="Wcircumflex" unicode="&#x174;" horiz-adv-x="934" 
d="M133 720q20 0 31.5 -3t12.5 -9l59 -619l229 620q4 11 47 11h25q41 0 42 -11l61 -618l227 617q4 12 43 12h12q41 0 37 -12l-271 -697q-2 -6 -15.5 -8.5t-32.5 -2.5h-30q-43 0 -44 11l-57 594l-222 -592q-2 -6 -15 -9.5t-33 -3.5h-30q-41 0 -43 13l-89 695q-1 6 12 9t34 3
h10zM483 916q6 6 15.5 9.5t29.5 3.5h37q21 0 29.5 -4.5t12.5 -9.5l76 -97q6 -8 -12 -26l-7 -7q-10 -10 -18 -13t-11 0l-94 96l-122 -94q-3 -3 -8.5 -1.5t-13.5 12.5l-7 9q-8 11 -9.5 16.5t3.5 10.5z" />
    <glyph glyph-name="wcircumflex" unicode="&#x175;" horiz-adv-x="761" 
d="M206 100l163 414q3 8 11.5 11t34.5 3h20q23 0 29.5 -3t8.5 -11l50 -411l46 101l42 100q20 49 38.5 100.5t35.5 108.5q2 8 9.5 11.5t36.5 3.5q26 0 35 -3q7 -2 7 -9q0 -3 -2 -8q-27 -77 -53 -144l-52 -126l-50 -114l-52 -107q-5 -8 -15.5 -12.5t-33.5 -4.5h-16
q-43 0 -46 14l-29 233q-5 42 -9 95.5t-5 98.5q-6 -21 -14 -46.5t-17 -50.5l-19 -50l-17 -46l-94 -235q-3 -8 -12.5 -10.5t-36.5 -2.5h-11q-31 0 -39.5 2.5t-10.5 10.5l-75 501q-2 9 6.5 11.5t33.5 2.5q30 0 38.5 -2.5t10.5 -8.5zM376 724q6 6 15.5 9.5t29.5 3.5h37
q21 0 29.5 -4.5t12.5 -9.5l76 -97q6 -8 -12 -26l-7 -7q-10 -10 -18 -13t-11 0l-94 96l-122 -94q-3 -3 -8.5 -1.5t-13.5 12.5l-7 9q-8 11 -9.5 16.5t3.5 10.5z" />
    <glyph glyph-name="Ycircumflex" unicode="&#x176;" horiz-adv-x="532" 
d="M121 720q19 0 31 -2.5t14 -8.5l107 -337l200 337q4 6 16.5 8.5t30.5 2.5h15q20 0 31 -3q9 -2 9 -6q0 -1 -1 -3l-269 -429l-38 -268q-1 -11 -43 -11h-11q-40 0 -39 11l38 268l-148 429q-2 6 11 9t34 3h12zM282 915q6 6 15.5 9.5t29.5 3.5h37q21 0 29.5 -4.5t12.5 -9.5
l76 -97q6 -8 -12 -26l-7 -7q-10 -10 -18 -13t-11 0l-94 96l-122 -94q-3 -3 -8.5 -1.5t-13.5 12.5l-7 9q-8 11 -9.5 16.5t3.5 10.5z" />
    <glyph glyph-name="ycircumflex" unicode="&#x177;" horiz-adv-x="497" 
d="M206 268q13 -54 19.5 -94t11.5 -82q13 35 33 79l42 90l123 256q5 11 48 11q28 0 38 -3q7 -2 7 -7q0 -2 -1 -4l-259 -526q-21 -42 -44.5 -82t-53.5 -71t-68 -49.5t-89 -18.5q-22 0 -43.5 4t-38.5 12q-6 3 -6 9q0 7 9 27l5 11q7 14 11 19t12 3q11 -4 26.5 -6.5t32.5 -2.5
q23 0 42.5 7.5t38 25.5t37 47t39.5 71l-122 520q-3 9 7.5 11.5t40.5 2.5q26 0 34.5 -2.5t10.5 -8.5zM250 724q6 6 15.5 9.5t29.5 3.5h37q21 0 29.5 -4.5t12.5 -9.5l76 -97q6 -8 -12 -26l-7 -7q-10 -10 -18 -13t-11 0l-94 96l-122 -94q-3 -3 -8.5 -1.5t-13.5 12.5l-7 9
q-8 11 -9.5 16.5t3.5 10.5z" />
    <glyph glyph-name="Ydieresis" unicode="&#x178;" horiz-adv-x="532" 
d="M121 720q19 0 31 -2.5t14 -8.5l107 -337l200 337q4 6 16.5 8.5t30.5 2.5h15q20 0 31 -3q9 -2 9 -6q0 -1 -1 -3l-269 -429l-38 -268q-1 -11 -43 -11h-11q-40 0 -39 11l38 268l-148 429q-2 6 11 9t34 3h12zM220 869q23 0 37.5 -15t14.5 -37t-15.5 -42t-44.5 -20
q-23 0 -37.5 15t-14.5 36q0 23 16 43t44 20zM448 869q23 0 37.5 -15t14.5 -37t-15.5 -42t-44.5 -20q-23 0 -37.5 15t-14.5 36q0 23 16 43t44 20z" />
    <glyph glyph-name="Zacute" unicode="&#x179;" horiz-adv-x="536" 
d="M507 720q35 0 32 -14l-6 -42q-2 -11 -11 -25.5t-17 -25.5l-397 -534h345q5 0 5 -15q0 -7 -1 -18l-2 -11q-5 -35 -13 -35h-420q-20 0 -27.5 3t-5.5 11l7 43q2 13 8 25t17 26l398 534h-315q-5 0 -6 7.5t2 29.5l1 6q5 35 14 35h392zM408 914q28 0 35 -4.5t2 -9.5l-111 -128
q-4 -4 -11 -6.5t-25 -2.5h-12q-23 0 -27 3.5t0 8.5l90 128q5 6 14 8.5t30 2.5h15z" />
    <glyph glyph-name="zacute" unicode="&#x17a;" horiz-adv-x="446" 
d="M434 528q5 0 6 -6q1 -3 1 -7t-1 -9l-2 -13q-3 -21 -14 -35l-296 -383h249q5 0 7 -6t-1 -26l-2 -12q-3 -20 -6 -25.5t-8 -5.5h-351q-9 0 -9 15q0 5 1 11l2 13l4 16q2 8 9 17l294 381h-230q-5 0 -6.5 6t0.5 26l2 12q3 19 6.5 25t8.5 6h336zM359 732q28 0 35 -4.5t2 -9.5
l-111 -128q-4 -4 -11 -6.5t-25 -2.5h-12q-23 0 -27 3.5t0 8.5l90 128q4 5 13.5 8t30.5 3h15z" />
    <glyph glyph-name="Zdotaccent" unicode="&#x17b;" horiz-adv-x="536" 
d="M507 720q35 0 32 -14l-6 -42q-2 -11 -11 -25.5t-17 -25.5l-397 -534h345q5 0 5 -15q0 -7 -1 -18l-2 -11q-5 -35 -13 -35h-420q-20 0 -27.5 3t-5.5 11l7 43q2 13 8 25t17 26l398 534h-315q-5 0 -6 7.5t2 29.5l1 6q5 35 14 35h392zM341 898q23 0 37.5 -15t14.5 -36
q0 -22 -15 -42t-44 -20q-23 0 -37.5 14.5t-14.5 36.5q0 23 16 42.5t43 19.5z" />
    <glyph glyph-name="zdotaccent" unicode="&#x17c;" horiz-adv-x="446" 
d="M434 528q5 0 6 -6q1 -3 1 -7t-1 -9l-2 -13q-3 -21 -14 -35l-296 -383h249q5 0 7 -6t-1 -26l-2 -12q-3 -20 -6 -25.5t-8 -5.5h-351q-9 0 -9 15q0 5 1 11l2 13l4 16q2 8 9 17l294 381h-230q-5 0 -6.5 6t0.5 26l2 12q3 19 6.5 25t8.5 6h336zM283 718q23 0 37.5 -15t14.5 -36
q0 -22 -15 -42t-44 -20q-23 0 -37.5 14.5t-14.5 36.5q0 23 16 42.5t43 19.5z" />
    <glyph glyph-name="Zcaron" unicode="&#x17d;" horiz-adv-x="536" 
d="M507 720q35 0 32 -14l-6 -42q-2 -11 -11 -25.5t-17 -25.5l-397 -534h345q5 0 5 -15q0 -7 -1 -18l-2 -11q-5 -35 -13 -35h-420q-20 0 -27.5 3t-5.5 11l7 43q2 13 8 25t17 26l398 534h-315q-5 0 -6 7.5t2 29.5l1 6q5 35 14 35h392zM209 903q9 8 16.5 13t11.5 0l95 -98
l120 95q5 3 9.5 1.5t13.5 -12.5l7 -9q9 -11 9.5 -16.5t-4.5 -10.5l-101 -95q-6 -6 -15 -9.5t-30 -3.5h-37q-21 0 -28.5 3t-13.5 11l-76 96q-4 5 1.5 12.5t13.5 15.5z" />
    <glyph glyph-name="zcaron" unicode="&#x17e;" horiz-adv-x="446" 
d="M434 528q5 0 6 -6q1 -3 1 -7t-1 -9l-2 -13q-3 -21 -14 -35l-296 -383h249q5 0 7 -6t-1 -26l-2 -12q-3 -20 -6 -25.5t-8 -5.5h-351q-9 0 -9 15q0 5 1 11l2 13l4 16q2 8 9 17l294 381h-230q-5 0 -6.5 6t0.5 26l2 12q3 19 6.5 25t8.5 6h336zM160 720q9 8 16.5 13t11.5 0
l95 -98l120 95q5 3 9.5 1.5t13.5 -12.5l7 -9q9 -11 9.5 -16.5t-4.5 -10.5l-101 -95q-6 -6 -15 -9.5t-30 -3.5h-37q-21 0 -28.5 3t-13.5 11l-76 96q-4 5 1.5 12.5t13.5 15.5z" />
    <glyph glyph-name="longs" unicode="&#x17f;" horiz-adv-x="301" 
d="M122 -221q0 -3 -1 -5t-5 -3.5t-12 -2.5t-23 -1h-6q-29 0 -35.5 3t-5.5 9l96 679h-72q-5 0 -5.5 6t1.5 25l1 8q2 20 5 25.5t8 5.5h72l3 23q14 106 63 162.5t138 56.5q58 0 103 -23q9 -3 -4 -34l-2 -5q-7 -17 -11.5 -23t-10.5 -4q-38 16 -81 16q-27 0 -45 -10.5
t-30.5 -29.5t-20 -45.5t-11.5 -59.5z" />
    <glyph glyph-name="florin" unicode="&#x192;" 
d="M254 438l13 50q12 45 29.5 88.5t43.5 77.5t62.5 55t86.5 21q25 0 45 -4.5t36 -11.5q5 -2 4.5 -9.5t-7.5 -24.5l-4 -10q-8 -20 -13.5 -25.5t-9.5 -3.5q-28 10 -57 10q-50 0 -77 -41.5t-47 -115.5l-15 -56h122q5 0 6 -6t-1 -22l-2 -13q-2 -17 -5 -23t-8 -6h-131l-57 -222
q-14 -56 -32.5 -103t-44.5 -81t-60.5 -53t-81.5 -19q-28 0 -52.5 5.5t-40.5 13.5q-5 2 -3.5 11.5t8.5 22.5l6 11q15 28 23 25q28 -11 63 -11q49 0 76 43.5t47 124.5l59 232h-98q-5 0 -6 6t1 23l2 13q2 16 5 22t8 6h107z" />
    <glyph glyph-name="Aringacute" unicode="&#x1fa;" horiz-adv-x="635" 
d="M563 11q2 -6 -10 -8.5t-33 -2.5h-11q-41 0 -44 11l-33 176h-277l-82 -176q-6 -11 -45 -11h-16q-21 0 -31.5 2.5t-7.5 8.5l336 697q-29 24 -29 62q0 20 8.5 38t23 31.5t32.5 21t38 7.5q36 0 60.5 -23.5t24.5 -58.5q0 -26 -13.5 -47.5t-34.5 -35.5zM188 265h231l-65 358z
M376 820q-17 0 -30.5 -12.5t-13.5 -32.5q0 -17 11 -28t27 -11q18 0 31.5 13.5t13.5 31.5q0 17 -11 28t-28 11zM466 1052q28 0 35 -4.5t2 -9.5l-111 -128q-4 -4 -11 -6.5t-25 -2.5h-12q-23 0 -27 3.5t0 8.5l90 128q4 5 13.5 8t30.5 3h15z" />
    <glyph glyph-name="aringacute" unicode="&#x1fb;" horiz-adv-x="556" 
d="M231 660q0 20 8.5 38t23 31.5t32.5 21t38 7.5q36 0 60.5 -23.5t24.5 -58.5q0 -20 -8.5 -38t-22.5 -31.5t-32.5 -21t-37.5 -7.5q-36 0 -61 23.5t-25 58.5zM327 710q-17 0 -30.5 -12.5t-13.5 -32.5q0 -17 11 -28t27 -11q18 0 31.5 13.5t13.5 31.5q0 17 -11 28t-28 11z
M487 528q26 0 31 -3t5 -7q0 -7 -9 -63q-7 -43 -14 -91l-20 -140q-10 -69 -14 -120l-9 -92q-1 -6 -7 -9t-29 -3h-4q-23 0 -29.5 2.5t-6.5 9.5l1 48q-27 -30 -67 -50t-91 -20q-47 0 -81 17t-56 46t-32.5 69t-10.5 87q0 58 17 116.5t51 105.5t83.5 77t114.5 30q45 0 77 -18.5
t50 -45.5l11 42q2 8 8.5 10t26.5 2h4zM415 389q-14 27 -42.5 48t-63.5 21q-45 0 -77.5 -22t-53.5 -56t-31 -75.5t-10 -81.5q0 -31 6 -59t19 -49t34.5 -33.5t53.5 -12.5q23 0 50 9t50 32q9 9 15 19t11.5 25.5t9.5 38t9 54.5zM423 935q28 0 35 -4.5t2 -9.5l-111 -128
q-4 -4 -11 -6.5t-25 -2.5h-12q-23 0 -27 3.5t0 8.5l90 128q4 5 13.5 8t30.5 3h15z" />
    <glyph glyph-name="AEacute" unicode="&#x1fc;" horiz-adv-x="874" 
d="M865 720q5 0 5.5 -9.5t-1.5 -23.5l-2 -10q-6 -34 -14 -34h-288l-34 -240h244q10 0 5 -32l-2 -12q-2 -14 -5.5 -23.5t-8.5 -9.5h-244l-34 -248h293q9 0 4 -31l-2 -13q-2 -15 -5.5 -24.5t-8.5 -9.5h-385l26 192h-222l-123 -181q-8 -11 -46 -11h-19q-20 0 -33.5 3t-9.5 8
l487 694q5 8 15.5 11.5t33.5 3.5h374zM241 271h179l45 329zM731 914q28 0 35 -4.5t2 -9.5l-111 -128q-4 -4 -11 -6.5t-25 -2.5h-12q-23 0 -27 3.5t0 8.5l90 128q5 6 14 8.5t30 2.5h15z" />
    <glyph glyph-name="aeacute" unicode="&#x1fd;" horiz-adv-x="840" 
d="M110 467q-5 17 -4.5 24.5t6.5 10.5q17 9 38 15.5t43.5 11t44.5 7t41 2.5q70 0 110 -20.5t57 -58.5q32 35 76 57t101 22q44 0 78 -15t56.5 -42t34 -64t11.5 -81q0 -17 -1.5 -34t-3.5 -34q-3 -23 -6 -29.5t-9 -6.5h-335q-1 -6 -1 -12v-12q0 -71 36.5 -104t106.5 -33
q56 0 124 32q7 3 11.5 0.5t10.5 -20.5l4 -12q6 -19 4.5 -25.5t-6.5 -9.5q-38 -22 -83 -34t-92 -12q-66 0 -109.5 21t-68.5 62q-16 -15 -35 -30t-42.5 -26.5t-51.5 -19t-63 -7.5q-33 0 -63.5 9.5t-53.5 28t-36.5 46.5t-13.5 65q0 44 16.5 80t46.5 61t71.5 38.5t90.5 13.5
q32 0 63 -6t54 -15q3 14 4.5 30t1.5 26q0 49 -26.5 70t-85.5 21q-28 0 -61.5 -5.5t-69.5 -19.5q-5 -2 -9.5 3t-9.5 23zM363 129q-5 17 -6.5 35.5t-1.5 38.5v18q0 9 1 19q-21 8 -50.5 13.5t-61.5 5.5q-26 0 -49 -6.5t-40.5 -19.5t-27.5 -33t-10 -46q0 -41 28 -63t75 -22
t84.5 19t58.5 41zM714 306q1 7 1.5 14t0.5 14q0 24 -5.5 47t-18 40t-32 27.5t-47.5 10.5q-50 0 -90.5 -37.5t-60.5 -115.5h252zM575 732q28 0 35 -4.5t2 -9.5l-111 -128q-4 -4 -11 -6.5t-25 -2.5h-12q-23 0 -27 3.5t0 8.5l90 128q4 5 13.5 8t30.5 3h15z" />
    <glyph glyph-name="Oslashacute" unicode="&#x1fe;" horiz-adv-x="703" 
d="M627 754q9 11 32 -7l20 -17q19 -16 12 -25l-73 -86q20 -35 31 -81t11 -103q0 -92 -25 -173t-71.5 -141.5t-111.5 -95.5t-145 -35q-53 0 -96.5 14t-76.5 43l-66 -81q-4 -5 -11 -4.5t-18 9.5l-20 17q-8 7 -13 15t0 13l79 94q-17 34 -26.5 77t-9.5 97q0 93 25.5 174
t72 141.5t112 95.5t145.5 35q99 0 162 -51zM193 123q44 -53 128 -53q56 0 101 28.5t76.5 77.5t48 113.5t16.5 135.5q0 66 -17 115zM509 605q-44 45 -120 45q-55 0 -100 -28t-76.5 -76.5t-49 -113t-17.5 -137.5q0 -62 13 -104zM477 914q28 0 35 -4.5t2 -9.5l-111 -128
q-4 -4 -11 -6.5t-25 -2.5h-12q-23 0 -27 3.5t0 8.5l90 128q5 6 14 8.5t30 2.5h15z" />
    <glyph glyph-name="oslashacute" unicode="&#x1ff;" horiz-adv-x="571" 
d="M480 565q9 11 29 -6l21 -17q19 -15 10 -24l-47 -57q36 -54 36 -144q0 -72 -20.5 -132t-57.5 -103.5t-88.5 -67.5t-112.5 -24q-79 0 -128 35l-43 -52q-9 -11 -29 6l-18 17q-19 15 -11 24l53 62q-14 26 -20 57.5t-6 69.5q0 73 21 133.5t58.5 104t88 67.5t110.5 24
q66 0 112 -26zM180 99q14 -14 34.5 -21.5t49.5 -7.5q36 0 67 17t54 48t36 74.5t13 97.5q0 43 -12 78zM382 439q-27 19 -70 19q-35 0 -66.5 -17t-54.5 -47.5t-36.5 -74.5t-13.5 -98q0 -32 6 -59zM412 732q28 0 35 -4.5t2 -9.5l-111 -128q-4 -4 -11 -6.5t-25 -2.5h-12
q-23 0 -27 3.5t0 8.5l90 128q4 5 13.5 8t30.5 3h15z" />
    <glyph glyph-name="Scommaaccent" unicode="&#x218;" horiz-adv-x="509" 
d="M468 639q-10 -17 -16.5 -20.5t-11.5 -0.5q-23 14 -56.5 23.5t-66.5 9.5q-26 0 -50.5 -7t-43.5 -21.5t-30 -36t-11 -50.5q0 -33 20 -56.5t49.5 -43t64 -38.5t64 -44t49.5 -59t20 -84q0 -48 -17.5 -89t-49.5 -70t-79 -45.5t-105 -16.5q-29 0 -58.5 4t-56.5 11t-48.5 17.5
t-33.5 22.5q-3 3 -3 8v6q3 9 14 26l6 9q10 15 18.5 19t12.5 1q16 -11 35.5 -19.5t40.5 -14t41 -8.5t37 -3q31 0 58.5 8.5t48 24.5t32.5 39t12 52q0 38 -19.5 64t-49.5 46t-64 38.5t-64 42t-49.5 55t-19.5 78.5q0 46 17 85t47.5 67.5t72.5 44.5t93 16q21 0 45 -3.5t46 -9.5
t41 -15t31 -20q4 -4 4 -8q0 -6 -9 -21zM119 -276q-9 12 -3 18l18 18q11 10 20.5 21t16.5 23t7 24q0 10 -4 16l-9 14q-4 7 -8 15t-4 20q0 21 14.5 37t39.5 16q26 0 39 -17t13 -42t-10 -50.5t-26.5 -49t-37.5 -44t-43 -35.5q-4 -2 -7 -1.5t-9 8.5z" />
    <glyph glyph-name="scommaaccent" unicode="&#x219;" horiz-adv-x="449" 
d="M31 82q11 16 17.5 21t14.5 0q25 -16 59 -26.5t66 -10.5q19 0 40 4.5t38.5 14.5t28.5 25.5t11 37.5q0 19 -9 32.5t-23 23.5t-32 16.5t-37 12.5q-27 8 -52 18.5t-43.5 26t-30 37.5t-11.5 54q0 39 16.5 70.5t44.5 53.5t65 33.5t79 11.5q43 0 83 -13t64 -37q3 -3 3 -8
q0 -10 -13 -28l-5 -7q-11 -16 -18.5 -20t-12.5 0q-26 20 -54.5 29t-54.5 9q-19 0 -38.5 -4t-35.5 -12.5t-26.5 -23t-10.5 -35.5q0 -18 8 -30.5t20.5 -21.5t29.5 -15l35 -12q28 -9 54 -20t46.5 -27.5t32.5 -40.5t12 -58q0 -41 -17.5 -73t-47 -54.5t-69 -34t-84.5 -11.5
q-51 0 -91 13.5t-67 33.5q-3 3 -3 8q0 3 1 7q3 9 11 21zM89 -276q-9 12 -3 18l18 18q11 10 20.5 21t16.5 23t7 24q0 10 -4 16l-9 14q-4 7 -8 15t-4 20q0 21 14.5 37t39.5 16q26 0 39 -17t13 -42t-10 -50.5t-26.5 -49t-37.5 -44t-43 -35.5q-4 -2 -7 -1.5t-9 8.5z" />
    <glyph glyph-name="uni021A" unicode="&#x21a;" horiz-adv-x="502" 
d="M531 720q6 0 6 -13q0 -8 -2 -20l-2 -12q-3 -17 -5.5 -25.5t-7.5 -8.5h-182l-89 -630q-1 -11 -43 -11h-11q-40 0 -39 11l89 630h-181q-7 0 -7 14q0 8 2 20l2 12q6 33 14 33h456zM98 -276q-9 12 -3 18l18 18q11 10 20.5 21t16.5 23t7 24q0 10 -4 16l-9 14q-4 7 -8 15t-4 20
q0 21 14.5 37t39.5 16q26 0 39 -17t13 -42t-10 -50.5t-26.5 -49t-37.5 -44t-43 -35.5q-4 -2 -7 -1.5t-9 8.5z" />
    <glyph glyph-name="uni021B" unicode="&#x21b;" horiz-adv-x="361" 
d="M201 677q29 0 34.5 -4t4.5 -9l-19 -136h124q6 0 6 -14q0 -7 -1 -16l-1 -8q-4 -32 -14 -32h-124l-42 -296q-2 -13 -3 -23.5t-1 -19.5q0 -25 13.5 -39t42.5 -14q17 0 35.5 3t34.5 8q12 4 14 -22l1 -12q1 -13 0 -19.5t-7 -10.5q-20 -11 -49.5 -17t-57.5 -6q-53 0 -84.5 26.5
t-31.5 81.5q0 12 1 26.5t3 30.5l43 303h-71q-7 0 -7 16q0 7 1 16l1 8q2 17 6 23.5t9 6.5h71l19 136q1 6 7.5 9.5t35.5 3.5h6zM76 -276q-9 12 -3 18l18 18q11 10 20.5 21t16.5 23t7 24q0 10 -4 16l-9 14q-4 7 -8 15t-4 20q0 21 14.5 37t39.5 16q26 0 39 -17t13 -42t-10 -50.5
t-26.5 -49t-37.5 -44t-43 -35.5q-4 -2 -7 -1.5t-9 8.5z" />
    <glyph glyph-name="circumflex" unicode="&#x2c6;" horiz-adv-x="343" 
d="M208 724q6 6 15.5 9.5t29.5 3.5h37q21 0 29.5 -4.5t12.5 -9.5l76 -97q6 -8 -12 -26l-7 -7q-10 -10 -18 -13t-11 0l-94 96l-122 -94q-3 -3 -8.5 -1.5t-13.5 12.5l-7 9q-8 11 -9.5 16.5t3.5 10.5z" />
    <glyph glyph-name="caron" unicode="&#x2c7;" horiz-adv-x="343" 
d="M141 720q9 8 16.5 13t11.5 0l95 -98l120 95q5 3 9.5 1.5t13.5 -12.5l7 -9q9 -11 9.5 -16.5t-4.5 -10.5l-101 -95q-6 -6 -15 -9.5t-30 -3.5h-37q-21 0 -28.5 3t-13.5 11l-76 96q-4 5 1.5 12.5t13.5 15.5z" />
    <glyph glyph-name="breve" unicode="&#x2d8;" horiz-adv-x="343" 
d="M170 722q16 0 22 -2.5t6 -7.5q-2 -29 16.5 -44t53.5 -15q29 0 48 15.5t27 43.5q2 5 8 7.5t22 2.5h13q32 0 31 -10q-12 -61 -54.5 -90t-102.5 -29q-32 0 -58 7t-44 21.5t-26.5 37t-6.5 53.5q1 10 33 10h12z" />
    <glyph glyph-name="dotaccent" unicode="&#x2d9;" horiz-adv-x="343" 
d="M267 718q23 0 37.5 -15t14.5 -36q0 -22 -15 -42t-44 -20q-23 0 -37.5 14.5t-14.5 36.5q0 23 16 42.5t43 19.5z" />
    <glyph glyph-name="ring" unicode="&#x2da;" horiz-adv-x="343" 
d="M171 660q0 20 8.5 38t23 31.5t32.5 21t38 7.5q36 0 60.5 -23.5t24.5 -58.5q0 -20 -8.5 -38t-22.5 -31.5t-32.5 -21t-37.5 -7.5q-36 0 -61 23.5t-25 58.5zM267 710q-17 0 -30.5 -12.5t-13.5 -32.5q0 -17 11 -28t27 -11q18 0 31.5 13.5t13.5 31.5q0 17 -11 28t-28 11z" />
    <glyph glyph-name="ogonek" unicode="&#x2db;" horiz-adv-x="343" 
d="M214 15q17 0 19 -5t-2 -7q-46 -28 -69 -57t-23 -55q0 -21 13 -28.5t32 -7.5q8 0 18 1t21 5q8 2 11 -22l1 -9q1 -14 -0.5 -19.5t-5.5 -7.5q-14 -6 -31.5 -10t-37.5 -4q-52 0 -76.5 26.5t-24.5 61.5q0 41 30 75t71 55q6 3 13.5 5.5t21.5 2.5h19z" />
    <glyph glyph-name="tilde" unicode="&#x2dc;" horiz-adv-x="343" 
d="M119 645q-5 8 -7 15.5t3 12.5q17 19 42 33t54 14q23 0 38 -6t27 -12l25 -13q12 -6 30 -6q13 0 25 7.5t22 16.5q5 4 10.5 3t13.5 -12l6 -8q7 -10 8 -16.5t-4 -13.5q-15 -20 -39 -36t-53 -16q-20 0 -34.5 6t-27.5 12.5t-27 12.5t-32 6q-15 0 -26.5 -6.5t-22.5 -17.5
q-4 -4 -11 0t-14 15z" />
    <glyph glyph-name="hungarumlaut" unicode="&#x2dd;" horiz-adv-x="343" 
d="M234 732q28 0 34.5 -4t1.5 -10l-101 -128q-4 -5 -11.5 -7.5t-22.5 -2.5h-12q-22 0 -25.5 3.5t0.5 9.5l80 128q3 5 12.5 8t29.5 3h14zM402 732q28 0 34.5 -4t1.5 -10l-101 -128q-4 -5 -11.5 -7.5t-22.5 -2.5h-12q-22 0 -25.5 3.5t0.5 9.5l80 128q3 5 12.5 8t29.5 3h14z
" />
    <glyph glyph-name="uni0326" unicode="&#x326;" horiz-adv-x="343" 
d="M32 -276q-9 12 -3 18l18 18q11 10 20.5 21t16.5 23t7 24q0 10 -4 16l-9 14q-4 7 -8 15t-4 20q0 21 14.5 37t39.5 16q26 0 39 -17t13 -42t-10 -50.5t-26.5 -49t-37.5 -44t-43 -35.5q-4 -2 -7 -1.5t-9 8.5z" />
    <glyph glyph-name="uni2206" unicode="&#x394;" horiz-adv-x="589" 
d="M358 720q22 0 31 -2t11 -8l116 -602q2 -11 3 -24.5t-1 -25.5l-7 -44q-2 -8 -9 -11t-27 -3h-459q-20 0 -28 3t-6 11l7 44q5 26 16 50l289 602q3 6 13 8t34 2h17zM89 79h334l-88 541z" />
    <glyph glyph-name="uni2206" unicode="&#x2206;" horiz-adv-x="589" 
d="M358 720q22 0 31 -2t11 -8l116 -602q2 -11 3 -24.5t-1 -25.5l-7 -44q-2 -8 -9 -11t-27 -3h-459q-20 0 -28 3t-6 11l7 44q5 26 16 50l289 602q3 6 13 8t34 2h17zM89 79h334l-88 541z" />
    <glyph glyph-name="uni2126" unicode="&#x3a9;" horiz-adv-x="733" 
d="M144 73q-37 35 -56.5 88t-19.5 124q0 96 25.5 177.5t71 141t107.5 93t136 33.5q65 0 115 -20.5t84 -58t51.5 -91.5t17.5 -120q0 -57 -12 -113t-34 -105t-52.5 -88t-67.5 -61h127q11 0 5 -31l-2 -11q-3 -17 -6 -24t-9 -7h-252q-8 0 -4 29l2 16q3 24 12 27q50 13 86.5 49.5
t60 87t35 109t11.5 115.5q0 109 -47 163.5t-132 54.5q-55 0 -98.5 -29t-73.5 -78.5t-46 -116.5t-16 -143q0 -82 26 -137.5t86 -75.5q5 -2 6 -7.5t-1 -19.5l-2 -15q-4 -29 -12 -29h-255q-10 0 -4 32l2 11q6 30 14 30h121z" />
    <glyph glyph-name="uni2126" unicode="&#x2126;" horiz-adv-x="733" 
d="M144 73q-37 35 -56.5 88t-19.5 124q0 96 25.5 177.5t71 141t107.5 93t136 33.5q65 0 115 -20.5t84 -58t51.5 -91.5t17.5 -120q0 -57 -12 -113t-34 -105t-52.5 -88t-67.5 -61h127q11 0 5 -31l-2 -11q-3 -17 -6 -24t-9 -7h-252q-8 0 -4 29l2 16q3 24 12 27q50 13 86.5 49.5
t60 87t35 109t11.5 115.5q0 109 -47 163.5t-132 54.5q-55 0 -98.5 -29t-73.5 -78.5t-46 -116.5t-16 -143q0 -82 26 -137.5t86 -75.5q5 -2 6 -7.5t-1 -19.5l-2 -15q-4 -29 -12 -29h-255q-10 0 -4 32l2 11q6 30 14 30h121z" />
    <glyph glyph-name="pi" unicode="&#x3c0;" horiz-adv-x="635" 
d="M620 528q5 0 6 -5.5t-2 -25.5l-1 -7q-3 -20 -5.5 -26t-7.5 -6h-114l-40 -282l-4 -35q-2 -18 -2 -29q0 -20 9.5 -31t34.5 -11q16 0 28.5 4t24.5 10q6 3 11 -1t11 -20l3 -8q6 -17 5.5 -23.5t-5.5 -9.5q-24 -14 -49.5 -23t-60.5 -9q-59 0 -80 28.5t-21 78.5q0 16 1.5 32
t4.5 37l41 292h-177l-63 -446q0 -3 -1 -5t-5 -3.5t-12 -2.5t-23 -1h-6q-29 0 -35.5 3t-5.5 9l63 446h-87q-5 0 -6 6t2 26l1 7q3 20 5.5 25.5t7.5 5.5h554z" />
    <glyph glyph-name="Wgrave" unicode="&#x1e80;" horiz-adv-x="934" 
d="M133 720q20 0 31.5 -3t12.5 -9l59 -619l229 620q4 11 47 11h25q41 0 42 -11l61 -618l227 617q4 12 43 12h12q41 0 37 -12l-271 -697q-2 -6 -15.5 -8.5t-32.5 -2.5h-30q-43 0 -44 11l-57 594l-222 -592q-2 -6 -15 -9.5t-33 -3.5h-30q-41 0 -43 13l-89 695q-1 6 12 9t34 3
h10zM444 924q21 0 31.5 -1.5t13.5 -9.5l53 -128q2 -5 -4 -8.5t-29 -3.5h-8q-18 0 -24 2.5t-9 6.5l-75 128q-2 5 5 9.5t35 4.5h11z" />
    <glyph glyph-name="wgrave" unicode="&#x1e81;" horiz-adv-x="761" 
d="M206 100l163 414q3 8 11.5 11t34.5 3h20q23 0 29.5 -3t8.5 -11l50 -411l46 101l42 100q20 49 38.5 100.5t35.5 108.5q2 8 9.5 11.5t36.5 3.5q26 0 35 -3q7 -2 7 -9q0 -3 -2 -8q-27 -77 -53 -144l-52 -126l-50 -114l-52 -107q-5 -8 -15.5 -12.5t-33.5 -4.5h-16
q-43 0 -46 14l-29 233q-5 42 -9 95.5t-5 98.5q-6 -21 -14 -46.5t-17 -50.5l-19 -50l-17 -46l-94 -235q-3 -8 -12.5 -10.5t-36.5 -2.5h-11q-31 0 -39.5 2.5t-10.5 10.5l-75 501q-2 9 6.5 11.5t33.5 2.5q30 0 38.5 -2.5t10.5 -8.5zM357 732q40 0 45 -11l53 -128q2 -5 -4 -8.5
t-29 -3.5h-8q-18 0 -24 2.5t-9 6.5l-75 128q-2 5 5 9.5t35 4.5h11z" />
    <glyph glyph-name="Wacute" unicode="&#x1e82;" horiz-adv-x="934" 
d="M133 720q20 0 31.5 -3t12.5 -9l59 -619l229 620q4 11 47 11h25q41 0 42 -11l61 -618l227 617q4 12 43 12h12q41 0 37 -12l-271 -697q-2 -6 -15.5 -8.5t-32.5 -2.5h-30q-43 0 -44 11l-57 594l-222 -592q-2 -6 -15 -9.5t-33 -3.5h-30q-41 0 -43 13l-89 695q-1 6 12 9t34 3
h10zM589 924q28 0 35 -4.5t2 -9.5l-111 -128q-4 -4 -11 -6.5t-25 -2.5h-12q-23 0 -27 3.5t0 8.5l90 128q5 6 14 8.5t30 2.5h15z" />
    <glyph glyph-name="wacute" unicode="&#x1e83;" horiz-adv-x="761" 
d="M206 100l163 414q3 8 11.5 11t34.5 3h20q23 0 29.5 -3t8.5 -11l50 -411l46 101l42 100q20 49 38.5 100.5t35.5 108.5q2 8 9.5 11.5t36.5 3.5q26 0 35 -3q7 -2 7 -9q0 -3 -2 -8q-27 -77 -53 -144l-52 -126l-50 -114l-52 -107q-5 -8 -15.5 -12.5t-33.5 -4.5h-16
q-43 0 -46 14l-29 233q-5 42 -9 95.5t-5 98.5q-6 -21 -14 -46.5t-17 -50.5l-19 -50l-17 -46l-94 -235q-3 -8 -12.5 -10.5t-36.5 -2.5h-11q-31 0 -39.5 2.5t-10.5 10.5l-75 501q-2 9 6.5 11.5t33.5 2.5q30 0 38.5 -2.5t10.5 -8.5zM486 732q28 0 35 -4.5t2 -9.5l-111 -128
q-4 -4 -11 -6.5t-25 -2.5h-12q-23 0 -27 3.5t0 8.5l90 128q4 5 13.5 8t30.5 3h15z" />
    <glyph glyph-name="Wdieresis" unicode="&#x1e84;" horiz-adv-x="934" 
d="M133 720q20 0 31.5 -3t12.5 -9l59 -619l229 620q4 11 47 11h25q41 0 42 -11l61 -618l227 617q4 12 43 12h12q41 0 37 -12l-271 -697q-2 -6 -15.5 -8.5t-32.5 -2.5h-30q-43 0 -44 11l-57 594l-222 -592q-2 -6 -15 -9.5t-33 -3.5h-30q-41 0 -43 13l-89 695q-1 6 12 9t34 3
h10zM420 904q23 0 37.5 -15t14.5 -37t-15.5 -42t-44.5 -20q-23 0 -37.5 15t-14.5 36q0 23 16 43t44 20zM648 904q23 0 37.5 -15t14.5 -37t-15.5 -42t-44.5 -20q-23 0 -37.5 15t-14.5 36q0 23 16 43t44 20z" />
    <glyph glyph-name="wdieresis" unicode="&#x1e85;" horiz-adv-x="761" 
d="M206 100l163 414q3 8 11.5 11t34.5 3h20q23 0 29.5 -3t8.5 -11l50 -411l46 101l42 100q20 49 38.5 100.5t35.5 108.5q2 8 9.5 11.5t36.5 3.5q26 0 35 -3q7 -2 7 -9q0 -3 -2 -8q-27 -77 -53 -144l-52 -126l-50 -114l-52 -107q-5 -8 -15.5 -12.5t-33.5 -4.5h-16
q-43 0 -46 14l-29 233q-5 42 -9 95.5t-5 98.5q-6 -21 -14 -46.5t-17 -50.5l-19 -50l-17 -46l-94 -235q-3 -8 -12.5 -10.5t-36.5 -2.5h-11q-31 0 -39.5 2.5t-10.5 10.5l-75 501q-2 9 6.5 11.5t33.5 2.5q30 0 38.5 -2.5t10.5 -8.5zM323 712q23 0 37.5 -15t14.5 -37t-15.5 -42
t-44.5 -20q-23 0 -37.5 15t-14.5 36q0 23 16 43t44 20zM551 712q23 0 37.5 -15t14.5 -37t-15.5 -42t-44.5 -20q-23 0 -37.5 15t-14.5 36q0 23 16 43t44 20z" />
    <glyph glyph-name="Ygrave" unicode="&#x1ef2;" horiz-adv-x="532" 
d="M121 720q19 0 31 -2.5t14 -8.5l107 -337l200 337q4 6 16.5 8.5t30.5 2.5h15q20 0 31 -3q9 -2 9 -6q0 -1 -1 -3l-269 -429l-38 -268q-1 -11 -43 -11h-11q-40 0 -39 11l38 268l-148 429q-2 6 11 9t34 3h12zM289 924q21 0 31.5 -1.5t13.5 -9.5l53 -128q2 -5 -4 -8.5
t-29 -3.5h-8q-18 0 -24 2.5t-9 6.5l-75 128q-2 5 5 9.5t35 4.5h11z" />
    <glyph glyph-name="ygrave" unicode="&#x1ef3;" horiz-adv-x="497" 
d="M206 268q13 -54 19.5 -94t11.5 -82q13 35 33 79l42 90l123 256q5 11 48 11q28 0 38 -3q7 -2 7 -7q0 -2 -1 -4l-259 -526q-21 -42 -44.5 -82t-53.5 -71t-68 -49.5t-89 -18.5q-22 0 -43.5 4t-38.5 12q-6 3 -6 9q0 7 9 27l5 11q7 14 11 19t12 3q11 -4 26.5 -6.5t32.5 -2.5
q23 0 42.5 7.5t38 25.5t37 47t39.5 71l-122 520q-3 9 7.5 11.5t40.5 2.5q26 0 34.5 -2.5t10.5 -8.5zM250 732q40 0 45 -11l53 -128q2 -5 -4 -8.5t-29 -3.5h-8q-18 0 -24 2.5t-9 6.5l-75 128q-2 5 5 9.5t35 4.5h11z" />
    <glyph glyph-name="uni2000" unicode="&#x2000;" horiz-adv-x="526" 
 />
    <glyph glyph-name="uni2001" unicode="&#x2001;" horiz-adv-x="1052" 
 />
    <glyph glyph-name="uni2002" unicode="&#x2002;" horiz-adv-x="526" 
 />
    <glyph glyph-name="uni2003" unicode="&#x2003;" horiz-adv-x="1052" 
 />
    <glyph glyph-name="uni2004" unicode="&#x2004;" horiz-adv-x="350" 
 />
    <glyph glyph-name="uni2005" unicode="&#x2005;" horiz-adv-x="263" 
 />
    <glyph glyph-name="uni2006" unicode="&#x2006;" horiz-adv-x="175" 
 />
    <glyph glyph-name="uni2007" unicode="&#x2007;" horiz-adv-x="175" 
 />
    <glyph glyph-name="uni2008" unicode="&#x2008;" horiz-adv-x="131" 
 />
    <glyph glyph-name="uni2009" unicode="&#x2009;" horiz-adv-x="210" 
 />
    <glyph glyph-name="uni200A" unicode="&#x200a;" horiz-adv-x="58" 
 />
    <glyph glyph-name="uni2010" unicode="&#x2010;" horiz-adv-x="370" 
d="M323 338q6 0 7 -7t-3 -24l-2 -10q-4 -17 -6.5 -23.5t-8.5 -6.5h-266q-6 0 -7 7t3 24l2 10q4 17 6.5 23.5t8.5 6.5h266z" />
    <glyph glyph-name="uni2011" unicode="&#x2011;" horiz-adv-x="370" 
d="M323 338q6 0 7 -7t-3 -24l-2 -10q-4 -17 -6.5 -23.5t-8.5 -6.5h-266q-6 0 -7 7t3 24l2 10q4 17 6.5 23.5t8.5 6.5h266z" />
    <glyph glyph-name="figuredash" unicode="&#x2012;" horiz-adv-x="370" 
d="M323 338q6 0 7 -7t-3 -24l-2 -10q-4 -17 -6.5 -23.5t-8.5 -6.5h-266q-6 0 -7 7t3 24l2 10q4 17 6.5 23.5t8.5 6.5h266z" />
    <glyph glyph-name="endash" unicode="&#x2013;" horiz-adv-x="500" 
d="M437 316q5 0 6.5 -6.5t-1.5 -23.5l-2 -10q-3 -15 -6 -21t-8 -6h-395q-5 0 -6.5 6.5t1.5 23.5l2 10q3 15 6 21t8 6h395z" />
    <glyph glyph-name="emdash" unicode="&#x2014;" horiz-adv-x="1000" 
d="M938 316q5 0 6.5 -6.5t-1.5 -23.5l-2 -10q-3 -15 -6 -21t-8 -6h-885q-5 0 -6.5 6.5t1.5 23.5l2 10q3 15 6 21t8 6h885z" />
    <glyph glyph-name="quoteleft" unicode="&#x2018;" horiz-adv-x="230" 
d="M243 714q5 -5 6.5 -10.5t-3.5 -9.5l-23 -20q-13 -12 -24.5 -25.5t-19.5 -28t-8 -28.5q0 -13 5 -21t10.5 -15.5t10.5 -17t5 -26.5q0 -26 -18 -45.5t-47 -19.5q-32 0 -48 20.5t-16 51.5q0 30 12 61t32 59.5t45 53t52 42.5q5 3 9.5 0.5t8.5 -7.5z" />
    <glyph glyph-name="quoteright" unicode="&#x2019;" horiz-adv-x="230" 
d="M76 463q-5 5 -6.5 10.5t3.5 9.5l23 21q13 12 24.5 25t19.5 27.5t8 28.5q0 13 -5 21t-10.5 15.5t-10.5 17t-5 26.5q0 26 18 45.5t47 19.5q32 0 48 -20.5t16 -51.5q0 -30 -12 -61t-32 -59.5t-45 -53t-52 -42.5q-5 -3 -9.5 -0.5t-8.5 7.5z" />
    <glyph glyph-name="quotesinglbase" unicode="&#x201a;" horiz-adv-x="236" 
d="M-6 -148q-4 5 -6.5 11.5t2.5 10.5l23 21q13 12 24.5 25.5t19.5 28.5t8 29q0 13 -5 21t-10.5 15.5t-10.5 17.5t-5 27q0 26 18.5 46t48.5 20q32 0 48.5 -21t16.5 -52t-12 -62.5t-32.5 -60.5t-46 -54t-52.5 -43q-9 -6 -19 8z" />
    <glyph glyph-name="quotedblleft" unicode="&#x201c;" horiz-adv-x="423" 
d="M243 713q5 -5 6.5 -10.5t-3.5 -9.5l-23 -21q-13 -12 -24.5 -25t-19.5 -27.5t-8 -28.5q0 -13 5 -21t10.5 -15.5t10.5 -17t5 -26.5q0 -26 -18 -45.5t-47 -19.5q-32 0 -48 20.5t-16 51.5q0 30 12 61t32 59.5t45 53t52 42.5q5 3 9.5 0.5t8.5 -7.5zM435 713q5 -5 6.5 -10.5
t-3.5 -9.5l-23 -21q-13 -12 -24.5 -25t-19.5 -27.5t-8 -28.5q0 -13 5 -21t10.5 -15.5t10.5 -17t5 -26.5q0 -26 -18 -45.5t-47 -19.5q-32 0 -48 20.5t-16 51.5q0 30 12 61t32 59.5t45 53t52 42.5q5 3 9.5 0.5t8.5 -7.5z" />
    <glyph glyph-name="quotedblright" unicode="&#x201d;" horiz-adv-x="423" 
d="M75 463q-5 5 -6.5 10.5t3.5 9.5l23 21q13 12 24.5 25t19.5 27.5t8 28.5q0 13 -5 21t-10.5 15.5t-10.5 17t-5 26.5q0 26 18 45.5t47 19.5q32 0 48 -20.5t16 -51.5q0 -30 -12 -61t-32 -59.5t-45 -53t-52 -42.5q-5 -3 -9.5 -0.5t-8.5 7.5zM269 463q-5 5 -6.5 10.5t3.5 9.5
l23 21q13 12 24.5 25t19.5 27.5t8 28.5q0 13 -5 21t-10.5 15.5t-10.5 17t-5 26.5q0 26 18 45.5t47 19.5q32 0 48 -20.5t16 -51.5q0 -30 -12 -61t-32 -59.5t-45 -53t-52 -42.5q-5 -3 -9.5 -0.5t-8.5 7.5z" />
    <glyph glyph-name="quotedblbase" unicode="&#x201e;" horiz-adv-x="429" 
d="M-7 -148q-4 5 -6.5 11.5t2.5 10.5l23 21q13 12 24.5 25.5t19.5 28.5t8 29q0 13 -5 21t-10.5 15.5t-10.5 17.5t-5 27q0 26 18.5 46t48.5 20q32 0 48.5 -21t16.5 -52t-12 -62.5t-32.5 -60.5t-46 -54t-52.5 -43q-9 -6 -19 8zM187 -148q-4 5 -6.5 11.5t2.5 10.5l23 21
q13 12 24.5 25.5t19.5 28.5t8 29q0 13 -5 21t-10.5 15.5t-10.5 17.5t-5 27q0 26 18.5 46t48.5 20q32 0 48.5 -21t16.5 -52t-12 -62.5t-32.5 -60.5t-46 -54t-52.5 -43q-9 -6 -19 8z" />
    <glyph glyph-name="dagger" unicode="&#x2020;" horiz-adv-x="460" 
d="M291 720q37 0 36 -10l-32 -231h165q5 0 5.5 -7t-1.5 -27l-1 -8q-2 -20 -5 -25.5t-8 -5.5h-165l-75 -533q-1 -10 -39 -10h-9q-37 0 -36 10l75 533h-161q-5 0 -6 7.5t1 25.5l1 8q2 20 5 26t8 6h162l32 231q1 6 11.5 8t27.5 2h9z" />
    <glyph glyph-name="daggerdbl" unicode="&#x2021;" horiz-adv-x="473" 
d="M220 499l29 211q1 6 11.5 8t27.5 2h9q37 0 36 -10l-29 -211h165q5 0 5.5 -7t-1.5 -27l-1 -8q-2 -20 -5.5 -25.5t-8.5 -5.5h-165l-37 -269h165q5 0 5.5 -7t-1.5 -27l-1 -8q-2 -20 -5.5 -25.5t-8.5 -5.5h-165l-29 -211q-1 -10 -39 -10h-9q-37 0 -36 10l29 211h-161
q-5 0 -5.5 6.5t1.5 26.5l1 8q2 20 5 26t8 6h162l37 269h-161q-5 0 -5.5 6.5t1.5 26.5l1 8q2 20 5 26t8 6h162z" />
    <glyph glyph-name="bullet" unicode="&#x2022;" horiz-adv-x="328" 
d="M177 472q52 0 82.5 -31.5t30.5 -79.5q0 -24 -8.5 -48t-25 -43.5t-40.5 -31.5t-55 -12q-50 0 -81.5 32t-31.5 79q0 25 9 49.5t26 43.5t41 30.5t53 11.5z" />
    <glyph glyph-name="ellipsis" unicode="&#x2026;" horiz-adv-x="709" 
d="M92 125q29 0 45.5 -17.5t16.5 -43.5q0 -13 -5 -26.5t-14 -24t-22 -17t-30 -6.5q-27 0 -44.5 17.5t-17.5 43.5q0 28 19.5 51t51.5 23zM328 125q29 0 45.5 -17.5t16.5 -43.5q0 -13 -5 -26.5t-14 -24t-22 -17t-30 -6.5q-27 0 -44.5 17.5t-17.5 43.5q0 28 19.5 51t51.5 23z
M564 125q29 0 45.5 -17.5t16.5 -43.5q0 -13 -5 -26.5t-14 -24t-22 -17t-30 -6.5q-27 0 -44.5 17.5t-17.5 43.5q0 28 19.5 51t51.5 23z" />
    <glyph glyph-name="uni202F" unicode="&#x202f;" horiz-adv-x="210" 
 />
    <glyph glyph-name="perthousand" unicode="&#x2030;" horiz-adv-x="1246" 
d="M668 737q33 0 27 -11l-433 -734q-5 -9 -34 -9h-21q-33 0 -27 11l434 734q3 5 10 7t23 2h21zM251 659q-23 0 -41 -15.5t-30 -40t-18.5 -56.5t-6.5 -65q0 -92 65 -92q23 0 41 15t30 39.5t18.5 56.5t6.5 66q0 92 -65 92zM262 730q67 0 105 -37.5t38 -116.5q0 -54 -13.5 -101
t-38.5 -81.5t-61 -54.5t-82 -20q-67 0 -105.5 38.5t-38.5 116.5q0 55 14 101.5t39.5 81t61.5 54t81 19.5zM660 330q-23 0 -41 -15.5t-30 -40t-18.5 -56.5t-6.5 -65q0 -92 65 -92q23 0 41 15t30 39.5t18.5 56.5t6.5 66q0 92 -65 92zM671 401q67 0 105 -37.5t38 -116.5
q0 -54 -13.5 -101t-38.5 -81.5t-61 -54.5t-82 -20q-67 0 -105.5 38.5t-38.5 116.5q0 55 14 101.5t39.5 81t61.5 54t81 19.5zM1044 330q-23 0 -41 -15.5t-30 -40t-18.5 -56.5t-6.5 -65q0 -92 65 -92q23 0 41 15t30 39.5t18.5 56.5t6.5 66q0 92 -65 92zM1055 401
q67 0 105 -37.5t38 -116.5q0 -54 -13.5 -101t-38.5 -81.5t-61 -54.5t-82 -20q-67 0 -105.5 38.5t-38.5 116.5q0 55 14 101.5t39.5 81t61.5 54t81 19.5z" />
    <glyph glyph-name="guilsinglleft" unicode="&#x2039;" horiz-adv-x="297" 
d="M211 523q7 11 33 -2l12 -6q27 -12 20 -21l-140 -188l90 -194q4 -9 -25 -23l-4 -2q-31 -15 -37 -4l-104 193q-3 6 -5.5 13.5t-0.5 15.5l2 12q3 14 10 23z" />
    <glyph glyph-name="guilsinglright" unicode="&#x203a;" horiz-adv-x="297" 
d="M116 516q30 15 37 3l102 -183q2 -5 4.5 -12t0.5 -16l-2 -11q-2 -10 -4 -14.5t-6 -9.5l-157 -197q-6 -9 -30 6l-11 7q-23 15 -16 25l142 192l-89 184q-5 10 25 24z" />
    <glyph glyph-name="fraction" unicode="&#x2044;" horiz-adv-x="378" 
d="M429 737q33 0 27 -11l-433 -734q-5 -9 -34 -9h-21q-32 0 -26 11l433 734q3 5 10 7t23 2h21z" />
    <glyph glyph-name="uni205F" unicode="&#x205f;" horiz-adv-x="263" 
 />
    <glyph glyph-name="Euro" unicode="&#x20ac;" 
d="M114 461q16 54 42.5 102.5t65 85.5t89 59t114.5 22q51 0 94.5 -11t76.5 -37q9 -6 -6 -34l-6 -11q-9 -17 -17 -21.5t-13 -2.5q-32 19 -64 28t-67 9q-41 0 -74.5 -15t-60 -41t-45.5 -60t-32 -73h240q10 0 6 -27l-2 -12q-4 -28 -13 -28h-248q-7 -39 -9 -77h233q10 0 6 -27
l-2 -12q-4 -28 -13 -28h-222q3 -38 13.5 -70.5t30 -56.5t49.5 -37.5t73 -13.5q63 0 125 31q5 2 10.5 -2t10.5 -20l4 -13q5 -16 4 -24t-6 -10q-80 -44 -177 -44q-119 0 -175.5 70t-61.5 190h-74q-9 0 -5 28l2 12q4 27 13 27h65q1 19 3.5 38t5.5 39h-51q-9 0 -5 28l2 12
q4 27 12 27h59z" />
    <glyph glyph-name="afii61289" unicode="&#x2113;" horiz-adv-x="251" 
d="M178 760q23 0 30.5 -2.5t7.5 -10.5q0 -26 -6 -102.5t-23 -193.5l-47 -332q-1 -7 -1.5 -13t-0.5 -11q0 -26 32 -26h10q7 0 4 -26l-1 -7q-4 -27 -12 -29q-11 -4 -23.5 -6t-23.5 -2q-35 0 -55 17t-20 54q0 27 6 68l47 335q6 43 11 85t8.5 78.5t5.5 65t2 45.5q0 8 9 10.5
t35 2.5h5z" />
    <glyph glyph-name="afii61352" unicode="&#x2116;" horiz-adv-x="1055" 
d="M835 326q24 0 46 11.5t38.5 33t26 52t9.5 67.5q0 20 -4.5 38.5t-15 32.5t-26.5 22.5t-40 8.5t-46 -11.5t-38.5 -33t-26 -52t-9.5 -67.5q0 -20 4.5 -38.5t15 -32.5t26.5 -22.5t40 -8.5zM827 250q-35 0 -64 11t-50.5 33t-33.5 53.5t-12 72.5q0 56 16 101.5t44.5 78
t66.5 50.5t83 18q34 0 63.5 -11t51 -33t33.5 -53.5t12 -72.5q0 -56 -16 -101.5t-44.5 -78t-66.5 -50.5t-83 -18zM178 720q16 0 25 -0.5t14.5 -2t7.5 -4t4 -6.5l250 -553l78 555q1 11 39 11h10q38 0 37 -11l-98 -698q-1 -7 -10 -9t-36 -2h-4q-31 0 -39.5 2.5t-12.5 10.5
l-251 554l-78 -556q-1 -11 -38 -11h-10q-40 0 -39 11l98 698q1 7 10.5 9t37.5 2h5z" />
    <glyph glyph-name="trademark" unicode="&#x2122;" horiz-adv-x="869" 
d="M400 720q5 0 6.5 -5t-1.5 -21l-1 -6q-3 -17 -5.5 -22t-7.5 -5h-118l-46 -333q-1 -10 -31 -10h-11q-17 0 -23.5 2.5t-5.5 7.5l46 333h-118q-5 0 -6 6t1 21l1 6q4 26 13 26h307zM518 720q17 0 22 -2.5t7 -7.5l68 -237l131 237q3 5 9 7.5t23 2.5h23q18 0 23.5 -3t4.5 -10
l-28 -379q-1 -5 -8 -7.5t-26 -2.5h-9q-17 0 -22.5 2.5t-4.5 7.5l21 270l-111 -203q-3 -5 -8.5 -7.5t-21.5 -2.5h-14q-18 0 -23 2t-7 8l-56 196l-53 -263q-1 -10 -32 -10h-8q-17 0 -23.5 2.5t-5.5 7.5l78 379q2 7 7.5 10t25.5 3h18z" />
    <glyph glyph-name="estimated" unicode="&#x212e;" horiz-adv-x="922" 
d="M206 352q-5 0 -5 -6v-202q0 -12 9 -24q48 -48 113 -78t140 -30q80 0 148 32.5t116 89.5h60q-57 -66 -141 -105t-184 -39q-85 0 -160 29t-131 79.5t-88.5 117.5t-32.5 144t32.5 144.5t88.5 117.5t131 79t160 29t159.5 -29t130 -79t88 -117.5t32.5 -144.5v-8h-666zM721 580
q0 13 -10 25q-48 48 -112 75.5t-136 27.5q-75 0 -139 -29t-113 -77q-10 -10 -10 -26v-199q0 -6 5 -6h510q5 0 5 6v203z" />
    <glyph glyph-name="partialdiff" unicode="&#x2202;" horiz-adv-x="536" 
d="M143 670q-4 12 -2.5 19t5.5 9q33 17 70 24.5t74 7.5q63 0 104 -24t65 -64t33.5 -90.5t9.5 -103.5q0 -80 -14 -161.5t-46 -147.5t-84.5 -107.5t-130.5 -41.5q-91 0 -140.5 51.5t-49.5 139.5q0 58 18.5 106.5t50 83t74 54t90.5 19.5q33 0 69 -8.5t68 -34.5q2 16 3 31.5
t1 30.5q0 40 -7.5 74.5t-24 60t-43.5 40t-65 14.5q-26 0 -51 -4.5t-54 -17.5q-4 -2 -8.5 2t-9.5 22zM399 314q-52 52 -126 52q-35 0 -61.5 -14.5t-44.5 -38.5t-27.5 -54.5t-9.5 -61.5q0 -25 6 -48t19 -41t34 -28.5t50 -10.5q39 0 67 21.5t46.5 56t29.5 78.5t17 89z" />
    <glyph glyph-name="product" unicode="&#x220f;" horiz-adv-x="680" 
d="M703 720q10 0 4 -33l-2 -12q-3 -17 -5.5 -25.5t-7.5 -8.5h-87l-112 -797q-3 -11 -43 -11h-10q-44 0 -41 11l112 797h-263l-112 -797q-3 -11 -42 -11h-11q-43 0 -40 11l112 797h-83q-10 0 -4 34l2 12q6 33 13 33h620z" />
    <glyph glyph-name="summation" unicode="&#x2211;" horiz-adv-x="552" 
d="M573 720q10 0 4 -33l-2 -11q-3 -17 -5.5 -25.5t-7.5 -8.5h-379l216 -319q3 -5 4.5 -12t-0.5 -19l-3 -19q-3 -23 -13 -34l-305 -328h384q5 0 6 -8t-1 -22l-2 -14q-4 -34 -14 -34h-474q-20 0 -26 3t-5 11l4 33q2 13 8 23t17 21l334 355l-235 350q-8 13 -11.5 22t-1.5 22
l5 33q1 8 8.5 11t27.5 3h467z" />
    <glyph glyph-name="minus" unicode="&#x2212;" 
d="M528 397q10 0 4 -29l-2 -10q-3 -16 -6 -22t-8 -6h-473q-5 0 -6.5 6.5t1.5 23.5l2 10q3 15 6 21t8 6h474z" />
    <glyph glyph-name="radical" unicode="&#x221a;" horiz-adv-x="627" 
d="M172 484q9 0 13.5 -6t7.5 -26l75 -422l341 780q4 12 40 12h24q39 0 32 -12l-399 -880q-5 -10 -35 -10h-35q-17 0 -23.5 2t-8.5 8l-98 476h-66q-10 0 -6 31l2 17q4 30 15 30h121z" />
    <glyph glyph-name="infinity" unicode="&#x221e;" horiz-adv-x="803" 
d="M415 379q46 49 93 78t107 29q66 0 107 -36t41 -103q0 -42 -15 -75.5t-40.5 -57t-58.5 -35.5t-69 -12q-53 0 -93.5 25.5t-83.5 80.5q-44 -48 -96 -78t-110 -30q-30 0 -56.5 9t-46 27t-31 44.5t-11.5 61.5t13 67.5t36.5 58t56.5 40.5t73 15q59 0 102.5 -28t81.5 -81z
M461 326q17 -23 31 -39t27.5 -26t28 -14.5t32.5 -4.5q45 0 74 26.5t29 67.5q0 38 -26 57.5t-62 19.5q-41 0 -72.5 -26t-61.5 -61zM358 330q-27 36 -56.5 60.5t-74.5 24.5q-19 0 -36.5 -7t-30.5 -19.5t-21 -30t-8 -39.5q0 -38 24 -57.5t61 -19.5q41 0 75.5 26t66.5 62z" />
    <glyph glyph-name="integral" unicode="&#x222b;" horiz-adv-x="353" 
d="M382 675q-11 -35 -21 -30q-21 6 -43 6q-38 0 -58.5 -21t-31 -52.5t-12.5 -68t-2 -67.5q0 -38 3 -74.5t7 -73t7 -73.5t3 -75q0 -55 -8.5 -107.5t-31.5 -94t-62.5 -66.5t-101.5 -25q-17 0 -33.5 2t-33.5 7q-8 3 1 37l2 8q5 20 10 26.5t11 4.5q11 -4 24 -5.5t25 -1.5
q36 0 57 20.5t31 50.5t12.5 65t2.5 65q0 70 -9 140t-9 147q0 56 7.5 111.5t29.5 100t62 72t105 27.5q16 0 32 -1.5t30 -6.5q8 -2 -1 -34z" />
    <glyph glyph-name="approxequal" unicode="&#x2248;" 
d="M69 408q-14 4 -19 7.5t-3 7.5q18 59 60 87t98 28q39 0 65.5 -11.5t50 -26t47.5 -26t59 -11.5q26 0 44 13.5t25 36.5q3 9 29 5l11 -2q15 -3 19.5 -6t2.5 -8q-9 -30 -24.5 -51t-36 -34t-45 -18.5t-50.5 -5.5q-45 0 -71 11.5t-46 25.5t-41 25.5t-56 11.5q-30 0 -50 -14.5
t-28 -43.5q-3 -9 -28 -4zM40 203q-14 4 -19 7.5t-3 7.5q18 59 60 87t98 28q39 0 65.5 -11.5t50 -26t47.5 -26t59 -11.5q26 0 44 13.5t25 36.5q3 9 29 5l11 -2q15 -3 19.5 -6t2.5 -8q-9 -30 -24.5 -51t-36 -34t-45 -18.5t-50.5 -5.5q-45 0 -71 11.5t-46 25.5t-41 25.5
t-56 11.5q-30 0 -50 -14.5t-28 -43.5q-3 -9 -28 -4z" />
    <glyph glyph-name="notequal" unicode="&#x2260;" 
d="M342 499l59 86q3 5 9 7.5t22 2.5h15q33 0 24 -12l-57 -84h128q10 0 4 -29l-2 -10q-3 -16 -6 -22t-8 -6h-160l-92 -137h236q10 0 4 -29l-2 -10q-3 -16 -6 -22t-8 -6h-269l-70 -105q-3 -5 -10 -7.5t-22 -2.5h-16q-33 0 -24 12l68 103h-130q-5 0 -7 6.5t2 23.5l2 10
q3 15 6 21t8 6h166l91 137h-240q-5 0 -7 6.5t2 23.5l2 10q3 15 6 21t8 6h274z" />
    <glyph glyph-name="lessequal" unicode="&#x2264;" 
d="M474 67q10 0 4 -29l-2 -10q-3 -16 -6 -22t-8 -6h-453q-5 0 -6.5 6.5t1.5 23.5l2 10q3 15 6 21t8 6h454zM520 692q5 3 11 -4.5t11 -19.5l5 -12q11 -27 1 -32l-399 -181l347 -188q9 -4 -8 -31l-7 -11q-16 -24 -26 -19l-386 211q-7 5 -4 34l1 11q2 15 4.5 22t7.5 10z" />
    <glyph glyph-name="greaterequal" unicode="&#x2265;" 
d="M474 67q10 0 4 -29l-2 -10q-3 -16 -6 -22t-8 -6h-453q-5 0 -6.5 6.5t1.5 23.5l2 10q3 15 6 21t8 6h454zM121 676q15 24 25 19l385 -210q9 -4 4 -36l-1 -8q-3 -28 -12 -33l-447 -212q-5 -3 -11 4.5t-11 19.5l-5 12q-11 27 -1 32l404 183l-345 187q-9 4 8 31z" />
    <glyph glyph-name="lozenge" unicode="&#x25ca;" horiz-adv-x="530" 
d="M167 356l110 -265l191 282l-108 265zM379 752q17 0 24 -2.5t9 -6.5l136 -330q3 -8 4 -16t-1 -22l-2 -13q-2 -16 -5.5 -24t-8.5 -16l-234 -336q-6 -8 -34 -8h-15q-17 0 -23.5 2t-8.5 6l-136 330q-3 8 -4 15.5t1 24.5l2 14q2 14 5.5 22.5t8.5 15.5l236 335q4 5 10.5 7
t22.5 2h13z" />
    <glyph glyph-name="uniE000" unicode="&#xe000;" horiz-adv-x="530" 
d="M0 530h530v-530h-530v530z" />
    <glyph glyph-name="grave.cap" horiz-adv-x="343" 
d="M187 914q21 0 31.5 -1.5t13.5 -9.5l53 -128q2 -5 -4 -8.5t-29 -3.5h-8q-18 0 -24 2.5t-9 6.5l-75 128q-2 5 5 9.5t35 4.5h11z" />
    <glyph glyph-name="acute.cap" horiz-adv-x="343" 
d="M328 914q28 0 35 -4.5t2 -9.5l-111 -128q-4 -4 -11 -6.5t-25 -2.5h-12q-23 0 -27 3.5t0 8.5l90 128q5 6 14 8.5t30 2.5h15z" />
    <glyph glyph-name="dieresis.cap" horiz-adv-x="343" 
d="M121 869q23 0 37.5 -15t14.5 -37t-15.5 -42t-44.5 -20q-23 0 -37.5 15t-14.5 36q0 23 16 43t44 20zM349 869q23 0 37.5 -15t14.5 -37t-15.5 -42t-44.5 -20q-23 0 -37.5 15t-14.5 36q0 23 16 43t44 20z" />
    <glyph glyph-name="circumflex.cap" horiz-adv-x="343" 
d="M182 896q6 6 15.5 9.5t29.5 3.5h37q21 0 29.5 -4.5t12.5 -9.5l76 -97q6 -8 -12 -26l-7 -7q-10 -10 -18 -13t-11 0l-94 96l-122 -94q-3 -3 -8.5 -1.5t-13.5 12.5l-7 9q-8 11 -9.5 16.5t3.5 10.5z" />
    <glyph glyph-name="tilde.cap" horiz-adv-x="343" 
d="M86 807q-5 8 -7 15.5t3 12.5q17 19 42 33t54 14q23 0 38 -6q16 -6 28 -12l24 -13q12 -6 30 -6q13 0 25 7.5t22 16.5q5 4 10.5 3t13.5 -12l6 -8q7 -10 8 -16.5t-4 -13.5q-15 -20 -39 -36t-53 -16q-20 0 -34.5 6t-27.5 12.5t-27 12.5t-32 6q-15 0 -26.5 -6.5t-22.5 -17.5
q-4 -4 -11 0t-14 15z" />
    <glyph glyph-name="macron.cap" horiz-adv-x="343" 
d="M373 874q12 0 6 -30l-2 -12q-6 -31 -14 -31h-270q-12 0 -6 32l2 12q5 29 14 29h270z" />
    <glyph glyph-name="breve.cap" horiz-adv-x="343" 
d="M135 903q16 0 22 -2.5t6 -7.5q-2 -29 16.5 -44t53.5 -15q29 0 48 15.5t27 43.5q2 5 8 7.5t22 2.5h13q32 0 31 -10q-12 -61 -54.5 -90t-102.5 -29q-32 0 -58 7t-44 21.5t-26.5 37t-6.5 53.5q1 10 33 10h12z" />
    <glyph glyph-name="dotaccent.cap" horiz-adv-x="343" 
d="M243 898q23 0 37.5 -15t14.5 -36q0 -22 -15 -42t-44 -20q-23 0 -37.5 14.5t-14.5 36.5q0 23 16 42.5t43 19.5z" />
    <glyph glyph-name="ring.cap" horiz-adv-x="343" 
d="M146 824q0 20 8.5 38t23 31.5t32.5 21t38 7.5q36 0 60.5 -23.5t24.5 -58.5q0 -20 -8.5 -38t-22.5 -31.5t-32.5 -21t-37.5 -7.5q-36 0 -61 23.5t-25 58.5zM242 874q-17 0 -30.5 -12.5t-13.5 -32.5q0 -17 11 -28t27 -11q18 0 31.5 13.5t13.5 31.5q0 17 -11 28t-28 11z" />
    <glyph glyph-name="hungarumlaut.cap" horiz-adv-x="343" 
d="M214 914q28 0 34.5 -4t1.5 -10l-101 -128q-4 -5 -11.5 -7.5t-22.5 -2.5h-12q-22 0 -25.5 3.5t0.5 9.5l80 128q3 5 12.5 8t29.5 3h14zM382 914q28 0 34.5 -4t1.5 -10l-101 -128q-4 -5 -11.5 -7.5t-22.5 -2.5h-12q-22 0 -25.5 3.5t0.5 9.5l80 128q3 5 12.5 8t29.5 3h14z
" />
    <glyph glyph-name="caron.cap" horiz-adv-x="343" 
d="M115 912q9 8 16.5 13t11.5 0l95 -98l120 95q5 3 9.5 1.5t13.5 -12.5l7 -9q9 -11 9.5 -16.5t-4.5 -10.5l-101 -95q-6 -6 -15 -9.5t-30 -3.5h-37q-21 0 -28.5 3t-13.5 11l-76 96q-4 5 1.5 12.5t13.5 15.5z" />
    <glyph glyph-name="apple" horiz-adv-x="521" 
d="M465 542v-66h-201v-66h201v-202h-269v66h202v69h-202v199h269zM465 676v-66h-334v-543h74v-67h-141v676h401z" />
    </font>
</defs>
</svg>
